%TF.GenerationSoftware,KiCad,Pcbnew,7.0.8-7.0.8~ubuntu20.04.1*%
%TF.CreationDate,2023-11-01T16:13:29+05:30*%
%TF.ProjectId,WLED_V0.1_panelized,574c4544-5f56-4302-9e31-5f70616e656c,rev?*%
%TF.SameCoordinates,Original*%
%TF.FileFunction,Soldermask,Top*%
%TF.FilePolarity,Negative*%
%FSLAX46Y46*%
G04 Gerber Fmt 4.6, Leading zero omitted, Abs format (unit mm)*
G04 Created by KiCad (PCBNEW 7.0.8-7.0.8~ubuntu20.04.1) date 2023-11-01 16:13:29*
%MOMM*%
%LPD*%
G01*
G04 APERTURE LIST*
G04 Aperture macros list*
%AMRoundRect*
0 Rectangle with rounded corners*
0 $1 Rounding radius*
0 $2 $3 $4 $5 $6 $7 $8 $9 X,Y pos of 4 corners*
0 Add a 4 corners polygon primitive as box body*
4,1,4,$2,$3,$4,$5,$6,$7,$8,$9,$2,$3,0*
0 Add four circle primitives for the rounded corners*
1,1,$1+$1,$2,$3*
1,1,$1+$1,$4,$5*
1,1,$1+$1,$6,$7*
1,1,$1+$1,$8,$9*
0 Add four rect primitives between the rounded corners*
20,1,$1+$1,$2,$3,$4,$5,0*
20,1,$1+$1,$4,$5,$6,$7,0*
20,1,$1+$1,$6,$7,$8,$9,0*
20,1,$1+$1,$8,$9,$2,$3,0*%
G04 Aperture macros list end*
%ADD10R,1.700000X1.700000*%
%ADD11O,1.700000X1.700000*%
%ADD12RoundRect,0.250000X-0.262500X-0.450000X0.262500X-0.450000X0.262500X0.450000X-0.262500X0.450000X0*%
%ADD13RoundRect,0.250000X0.262500X0.450000X-0.262500X0.450000X-0.262500X-0.450000X0.262500X-0.450000X0*%
%ADD14RoundRect,0.250000X0.475000X-0.250000X0.475000X0.250000X-0.475000X0.250000X-0.475000X-0.250000X0*%
%ADD15RoundRect,0.250000X-0.250000X-0.475000X0.250000X-0.475000X0.250000X0.475000X-0.250000X0.475000X0*%
%ADD16C,3.000000*%
%ADD17R,2.000000X1.500000*%
%ADD18R,2.000000X3.800000*%
%ADD19C,2.000000*%
%ADD20O,1.524800X2.845600*%
%ADD21RoundRect,0.250000X-1.000000X-0.650000X1.000000X-0.650000X1.000000X0.650000X-1.000000X0.650000X0*%
%ADD22RoundRect,0.102000X-0.550000X1.100000X-0.550000X-1.100000X0.550000X-1.100000X0.550000X1.100000X0*%
%ADD23RoundRect,0.102000X-1.600000X1.600000X-1.600000X-1.600000X1.600000X-1.600000X1.600000X1.600000X0*%
%ADD24O,1.200000X2.200000*%
%ADD25O,2.200000X1.200000*%
%ADD26O,2.300000X1.600000*%
%ADD27O,2.500000X1.600000*%
%ADD28RoundRect,0.250000X0.250000X0.475000X-0.250000X0.475000X-0.250000X-0.475000X0.250000X-0.475000X0*%
%ADD29RoundRect,0.150000X-0.150000X0.587500X-0.150000X-0.587500X0.150000X-0.587500X0.150000X0.587500X0*%
%ADD30RoundRect,0.250000X-0.450000X0.262500X-0.450000X-0.262500X0.450000X-0.262500X0.450000X0.262500X0*%
%ADD31RoundRect,0.150000X0.150000X-0.587500X0.150000X0.587500X-0.150000X0.587500X-0.150000X-0.587500X0*%
%ADD32R,1.500000X0.900000*%
%ADD33R,2.600000X2.600000*%
%ADD34C,2.600000*%
%ADD35R,2.500000X2.500000*%
%ADD36O,2.500000X2.500000*%
%ADD37RoundRect,0.500000X-1.350000X0.500000X-1.350000X-0.500000X1.350000X-0.500000X1.350000X0.500000X0*%
%ADD38RoundRect,0.500000X-0.900000X0.500000X-0.900000X-0.500000X0.900000X-0.500000X0.900000X0.500000X0*%
%ADD39O,2.800000X2.000000*%
%ADD40O,3.700000X2.000000*%
%ADD41R,2.000000X2.000000*%
%ADD42RoundRect,0.243750X0.456250X-0.243750X0.456250X0.243750X-0.456250X0.243750X-0.456250X-0.243750X0*%
G04 APERTURE END LIST*
D10*
%TO.C,J2*%
X118314000Y-100598000D03*
D11*
X118314000Y-103138000D03*
X118314000Y-105678000D03*
X118314000Y-108218000D03*
X118314000Y-110758000D03*
X118314000Y-113298000D03*
%TD*%
D10*
%TO.C,MK1*%
X83262000Y-101614000D03*
D11*
X83262000Y-99074000D03*
%TD*%
D12*
%TO.C,R5*%
X138079000Y-65800000D03*
X139904000Y-65800000D03*
%TD*%
%TO.C,R14*%
X97589500Y-103392000D03*
X99414500Y-103392000D03*
%TD*%
D13*
%TO.C,R4*%
X128728000Y-67310000D03*
X126903000Y-67310000D03*
%TD*%
D14*
%TO.C,C6*%
X126188000Y-103260000D03*
X126188000Y-101360000D03*
%TD*%
D15*
%TO.C,C10*%
X131752000Y-63132000D03*
X133652000Y-63132000D03*
%TD*%
D16*
%TO.C,H1*%
X139142000Y-58180000D03*
%TD*%
D13*
%TO.C,R13*%
X99414500Y-100344000D03*
X97589500Y-100344000D03*
%TD*%
D17*
%TO.C,U2*%
X106172000Y-91186000D03*
X106172000Y-93486000D03*
D18*
X112472000Y-93486000D03*
D17*
X106172000Y-95786000D03*
%TD*%
D12*
%TO.C,R8*%
X106771000Y-84263500D03*
X108596000Y-84263500D03*
%TD*%
D19*
%TO.C,SW2*%
X130304000Y-99110000D03*
X136804000Y-99110000D03*
X130304000Y-103610000D03*
X136804000Y-103610000D03*
%TD*%
D20*
%TO.C,U3*%
X94946000Y-112536000D03*
X92446000Y-112536000D03*
X97446000Y-112536000D03*
%TD*%
D21*
%TO.C,D1*%
X106376000Y-100598000D03*
X110376000Y-100598000D03*
%TD*%
D10*
%TO.C,J5*%
X137364000Y-113298000D03*
D11*
X134824000Y-113298000D03*
X132284000Y-113298000D03*
X129744000Y-113298000D03*
X127204000Y-113298000D03*
%TD*%
D12*
%TO.C,R3*%
X138079000Y-68594000D03*
X139904000Y-68594000D03*
%TD*%
D22*
%TO.C,U1*%
X133744000Y-76976000D03*
X131744000Y-76976000D03*
X129744000Y-76976000D03*
X127744000Y-76976000D03*
X125744000Y-76976000D03*
X123744000Y-76976000D03*
X121744000Y-76976000D03*
X119744000Y-76976000D03*
X119744000Y-92776000D03*
X121744000Y-92776000D03*
X123744000Y-92776000D03*
X125744000Y-92776000D03*
X127744000Y-92776000D03*
X129744000Y-92776000D03*
X131744000Y-92776000D03*
X133744000Y-92776000D03*
D23*
X129044000Y-85076000D03*
%TD*%
D24*
%TO.C,J6*%
X82943000Y-89803000D03*
D25*
X87943000Y-84803000D03*
D26*
X87943000Y-87303000D03*
D25*
X87943000Y-94803000D03*
D27*
X87943000Y-92303000D03*
%TD*%
D14*
%TO.C,C1*%
X102972000Y-94624000D03*
X102972000Y-92724000D03*
%TD*%
D28*
%TO.C,C8*%
X96574000Y-90808000D03*
X94674000Y-90808000D03*
%TD*%
D14*
%TO.C,C4*%
X120981000Y-74365000D03*
X120981000Y-72465000D03*
%TD*%
D29*
%TO.C,Q2*%
X132448500Y-66259500D03*
X130548500Y-66259500D03*
X131498500Y-68134500D03*
%TD*%
D30*
%TO.C,R2*%
X129806000Y-71717500D03*
X129806000Y-73542500D03*
%TD*%
D13*
%TO.C,R6*%
X128728000Y-69596000D03*
X126903000Y-69596000D03*
%TD*%
D31*
%TO.C,Q3*%
X102936000Y-85773500D03*
X104836000Y-85773500D03*
X103886000Y-83898500D03*
%TD*%
D28*
%TO.C,C11*%
X97420000Y-108726000D03*
X95520000Y-108726000D03*
%TD*%
D16*
%TO.C,H2*%
X82246000Y-112536000D03*
%TD*%
D28*
%TO.C,C7*%
X88276000Y-103133000D03*
X86376000Y-103133000D03*
%TD*%
D31*
%TO.C,Q1*%
X134231500Y-68134500D03*
X136131500Y-68134500D03*
X135181500Y-66259500D03*
%TD*%
D13*
%TO.C,R15*%
X99414500Y-106186000D03*
X97589500Y-106186000D03*
%TD*%
%TO.C,R9*%
X96602500Y-83988000D03*
X94777500Y-83988000D03*
%TD*%
%TO.C,R12*%
X88238500Y-100593000D03*
X86413500Y-100593000D03*
%TD*%
D32*
%TO.C,D2*%
X128818000Y-57164000D03*
X128818000Y-60464000D03*
X133718000Y-60464000D03*
X133718000Y-57164000D03*
%TD*%
D13*
%TO.C,R7*%
X108596000Y-81802000D03*
X106771000Y-81802000D03*
%TD*%
%TO.C,R10*%
X96602500Y-94402000D03*
X94777500Y-94402000D03*
%TD*%
D28*
%TO.C,C9*%
X96574000Y-87798000D03*
X94674000Y-87798000D03*
%TD*%
D14*
%TO.C,C3*%
X118822000Y-74304000D03*
X118822000Y-72404000D03*
%TD*%
D33*
%TO.C,J3*%
X124447000Y-60211000D03*
D34*
X119447000Y-60211000D03*
X114447000Y-60211000D03*
X109447000Y-60211000D03*
%TD*%
D30*
%TO.C,R1*%
X133616000Y-71717500D03*
X133616000Y-73542500D03*
%TD*%
D35*
%TO.C,K1*%
X87948000Y-75189500D03*
D36*
X93948000Y-73189500D03*
X93948000Y-60989500D03*
X81948000Y-60989500D03*
X81948000Y-73189500D03*
%TD*%
D28*
%TO.C,C2*%
X110460000Y-88152000D03*
X108560000Y-88152000D03*
%TD*%
D33*
%TO.C,J4*%
X106405000Y-109742000D03*
D34*
X111405000Y-109742000D03*
%TD*%
D37*
%TO.C,F2*%
X101804000Y-56308000D03*
D38*
X101804000Y-63578000D03*
D39*
X101804000Y-72658000D03*
D40*
X101804000Y-79928000D03*
%TD*%
D41*
%TO.C,C5*%
X109596323Y-76214000D03*
D19*
X114596323Y-76214000D03*
%TD*%
D12*
%TO.C,R11*%
X86413500Y-98053000D03*
X88238500Y-98053000D03*
%TD*%
D42*
%TO.C,F1*%
X101550000Y-109663500D03*
X101550000Y-107788500D03*
%TD*%
M02*
