M48
; DRILL file {KiCad 7.0.8-7.0.8~ubuntu20.04.1} date ബുധന്‍ 01 നവംബർ 2023 04:16:35 വൈകു
; FORMAT={-:-/ absolute / metric / decimal}
; #@! TF.CreationDate,2023-11-01T16:16:35+05:30
; #@! TF.GenerationSoftware,Kicad,Pcbnew,7.0.8-7.0.8~ubuntu20.04.1
; #@! TF.FileFunction,Plated,1,2,PTH
FMAT,2
METRIC
; #@! TA.AperFunction,Plated,PTH,ViaDrill
T1C0.400
; #@! TA.AperFunction,Plated,PTH,ComponentDrill
T2C0.400
; #@! TA.AperFunction,Plated,PTH,ComponentDrill
T3C0.800
; #@! TA.AperFunction,Plated,PTH,ComponentDrill
T4C0.813
; #@! TA.AperFunction,Plated,PTH,ComponentDrill
T5C1.000
; #@! TA.AperFunction,Plated,PTH,ComponentDrill
T6C1.020
; #@! TA.AperFunction,Plated,PTH,ComponentDrill
T7C1.100
; #@! TA.AperFunction,Plated,PTH,ComponentDrill
T8C1.300
%
G90
G05
T1
X89.739Y-100.598
X89.866Y-98.058
X95.962Y-103.392
X96.47Y-85.612
X96.47Y-92.724
X98.298Y-87.798
X101.432Y-92.715
X102.997Y-89.916
X103.074Y-91.2
X103.328Y-103.392
X104.267Y-89.916
X104.344Y-91.2
X104.902Y-83.566
X105.283Y-89.154
X106.553Y-89.154
X108.535Y-89.676
X108.56Y-86.628
X108.916Y-97.296
X110.186Y-84.342
X112.472Y-100.598
X114.504Y-86.12
X115.062Y-102.87
X117.298Y-72.399
X118.822Y-71.002
X120.912Y-71.138
X121.362Y-82.296
X121.412Y-69.85
X121.616Y-95.772
X122.152Y-63.776
X122.505Y-72.399
X123.19Y-69.342
X123.399Y-80.273
X123.902Y-79.008
X124.664Y-81.294
X125.744Y-95.074
X125.984Y-104.648
X126.188Y-99.328
X127.712Y-74.182
X128.469Y-90.179
X129.744Y-67.324
X132.284Y-60.466
X133.692Y-64.806
X135.332Y-70.372
X135.332Y-72.912
X139.904Y-64.022
T4
X92.446Y-112.536
X94.946Y-112.536
X97.446Y-112.536
T5
X83.262Y-99.074
X83.262Y-101.614
X109.596Y-76.214
X114.596Y-76.214
X118.314Y-100.598
X118.314Y-103.138
X118.314Y-105.678
X118.314Y-108.218
X118.314Y-110.758
X118.314Y-113.298
X127.204Y-113.298
X129.744Y-113.298
X132.284Y-113.298
X134.824Y-113.298
X137.364Y-113.298
T7
X130.304Y-99.11
X130.304Y-103.61
X136.804Y-99.11
X136.804Y-103.61
T8
X81.948Y-60.989
X81.948Y-73.189
X87.948Y-75.189
X93.948Y-60.989
X93.948Y-73.189
X106.405Y-109.742
X109.447Y-60.211
X111.405Y-109.742
X114.447Y-60.211
X119.447Y-60.211
X124.447Y-60.211
T2
G00X82.943Y-89.303
M15
G01X82.943Y-90.303
M16
G05
G00X88.443Y-84.803
M15
G01X87.443Y-84.803
M16
G05
G00X87.443Y-94.803
M15
G01X88.443Y-94.803
M16
G05
T3
G00X88.293Y-87.303
M15
G01X87.593Y-87.303
M16
G05
G00X87.593Y-92.303
M15
G01X88.293Y-92.303
M16
G05
T6
G00X102.649Y-56.308
M15
G01X100.959Y-56.308
M16
G05
G00X102.229Y-63.578
M15
G01X101.379Y-63.578
M16
G05
G00X102.229Y-72.658
M15
G01X101.379Y-72.658
M16
G05
G00X102.649Y-79.928
M15
G01X100.959Y-79.928
M16
G05
T0
M30
