M48
METRIC,TZ
T1C0.400
T2C0.400
T3C0.800
T4C0.813
T5C1.000
T6C1.020
T7C1.100
T8C1.300
%
G90
G05
T1
X89739Y-100598
X89866Y-98058
X95962Y-103392
X96470Y-85612
X96470Y-92724
X98298Y-87798
X101432Y-92715
X102997Y-89916
X103074Y-91200
X103328Y-103392
X104267Y-89916
X104344Y-91200
X104902Y-83566
X105283Y-89154
X106553Y-89154
X108535Y-89676
X108560Y-86628
X108916Y-97296
X110186Y-84342
X112472Y-100598
X114504Y-86120
X115062Y-102870
X117298Y-72399
X118822Y-71002
X120912Y-71138
X121362Y-82296
X121412Y-69850
X121616Y-95772
X122152Y-63776
X122505Y-72399
X123190Y-69342
X123399Y-80273
X123902Y-79008
X124664Y-81294
X125744Y-95074
X125984Y-104648
X126188Y-99328
X127712Y-74182
X128469Y-90179
X129744Y-67324
X132284Y-60466
X133692Y-64806
X135332Y-70372
X135332Y-72912
X139904Y-64022
T4
X92446Y-112536
X94946Y-112536
X97446Y-112536
T5
X83262Y-99074
X83262Y-101614
X109596Y-76214
X114596Y-76214
X118314Y-100598
X118314Y-103138
X118314Y-105678
X118314Y-108218
X118314Y-110758
X118314Y-113298
X127204Y-113298
X129744Y-113298
X132284Y-113298
X134824Y-113298
X137364Y-113298
T7
X130304Y-99110
X130304Y-103610
X136804Y-99110
X136804Y-103610
T8
X81948Y-60990
X81948Y-73190
X87948Y-75190
X93948Y-60990
X93948Y-73190
X106405Y-109742
X109447Y-60211
X111405Y-109742
X114447Y-60211
X119447Y-60211
X124447Y-60211
T2
G00X82943Y-89303
M15
G01X82943Y-90303
M16
G05
G00X88443Y-84803
M15
G01X87443Y-84803
M16
G05
G00X87443Y-94803
M15
G01X88443Y-94803
M16
G05
T3
G00X88293Y-87303
M15
G01X87593Y-87303
M16
G05
G00X87593Y-92303
M15
G01X88293Y-92303
M16
G05
T6
G00X102649Y-56308
M15
G01X100959Y-56308
M16
G05
G00X102229Y-63578
M15
G01X101379Y-63578
M16
G05
G00X102229Y-72658
M15
G01X101379Y-72658
M16
G05
G00X102649Y-79928
M15
G01X100959Y-79928
M16
G05
T0
M30
