%TF.GenerationSoftware,KiCad,Pcbnew,7.0.8-7.0.8~ubuntu20.04.1*%
%TF.CreationDate,2023-11-01T16:13:29+05:30*%
%TF.ProjectId,WLED_V0.1_panelized,574c4544-5f56-4302-9e31-5f70616e656c,rev?*%
%TF.SameCoordinates,Original*%
%TF.FileFunction,Copper,L2,Bot*%
%TF.FilePolarity,Positive*%
%FSLAX46Y46*%
G04 Gerber Fmt 4.6, Leading zero omitted, Abs format (unit mm)*
G04 Created by KiCad (PCBNEW 7.0.8-7.0.8~ubuntu20.04.1) date 2023-11-01 16:13:29*
%MOMM*%
%LPD*%
G01*
G04 APERTURE LIST*
G04 Aperture macros list*
%AMRoundRect*
0 Rectangle with rounded corners*
0 $1 Rounding radius*
0 $2 $3 $4 $5 $6 $7 $8 $9 X,Y pos of 4 corners*
0 Add a 4 corners polygon primitive as box body*
4,1,4,$2,$3,$4,$5,$6,$7,$8,$9,$2,$3,0*
0 Add four circle primitives for the rounded corners*
1,1,$1+$1,$2,$3*
1,1,$1+$1,$4,$5*
1,1,$1+$1,$6,$7*
1,1,$1+$1,$8,$9*
0 Add four rect primitives between the rounded corners*
20,1,$1+$1,$2,$3,$4,$5,0*
20,1,$1+$1,$4,$5,$6,$7,0*
20,1,$1+$1,$6,$7,$8,$9,0*
20,1,$1+$1,$8,$9,$2,$3,0*%
G04 Aperture macros list end*
%TA.AperFunction,ComponentPad*%
%ADD10R,1.700000X1.700000*%
%TD*%
%TA.AperFunction,ComponentPad*%
%ADD11O,1.700000X1.700000*%
%TD*%
%TA.AperFunction,ComponentPad*%
%ADD12C,2.000000*%
%TD*%
%TA.AperFunction,ComponentPad*%
%ADD13O,1.320800X2.641600*%
%TD*%
%TA.AperFunction,ComponentPad*%
%ADD14O,1.200000X2.200000*%
%TD*%
%TA.AperFunction,ComponentPad*%
%ADD15O,2.200000X1.200000*%
%TD*%
%TA.AperFunction,ComponentPad*%
%ADD16O,2.300000X1.600000*%
%TD*%
%TA.AperFunction,ComponentPad*%
%ADD17O,2.500000X1.600000*%
%TD*%
%TA.AperFunction,ComponentPad*%
%ADD18R,2.600000X2.600000*%
%TD*%
%TA.AperFunction,ComponentPad*%
%ADD19C,2.600000*%
%TD*%
%TA.AperFunction,ComponentPad*%
%ADD20R,2.500000X2.500000*%
%TD*%
%TA.AperFunction,ComponentPad*%
%ADD21O,2.500000X2.500000*%
%TD*%
%TA.AperFunction,ComponentPad*%
%ADD22RoundRect,0.500000X-1.350000X0.500000X-1.350000X-0.500000X1.350000X-0.500000X1.350000X0.500000X0*%
%TD*%
%TA.AperFunction,ComponentPad*%
%ADD23RoundRect,0.500000X-0.900000X0.500000X-0.900000X-0.500000X0.900000X-0.500000X0.900000X0.500000X0*%
%TD*%
%TA.AperFunction,ComponentPad*%
%ADD24O,2.800000X2.000000*%
%TD*%
%TA.AperFunction,ComponentPad*%
%ADD25O,3.700000X2.000000*%
%TD*%
%TA.AperFunction,ComponentPad*%
%ADD26R,2.000000X2.000000*%
%TD*%
%TA.AperFunction,ViaPad*%
%ADD27C,0.800000*%
%TD*%
%TA.AperFunction,Conductor*%
%ADD28C,0.800000*%
%TD*%
%TA.AperFunction,Conductor*%
%ADD29C,0.400000*%
%TD*%
%TA.AperFunction,Conductor*%
%ADD30C,0.250000*%
%TD*%
%ADD31C,0.350000*%
%ADD32O,0.400000X1.400000*%
%ADD33O,1.400000X0.400000*%
%ADD34O,1.500000X0.800000*%
%ADD35O,2.710000X1.020000*%
%ADD36O,1.870000X1.020000*%
G04 APERTURE END LIST*
D10*
%TO.P,J2,1,Pin_1*%
%TO.N,unconnected-(J2-Pin_1-Pad1)*%
X118314000Y-100598000D03*
D11*
%TO.P,J2,2,Pin_2*%
%TO.N,/Top_Sheet/ESP-12S/RXD0*%
X118314000Y-103138000D03*
%TO.P,J2,3,Pin_3*%
%TO.N,/Top_Sheet/ESP-12S/TXD*%
X118314000Y-105678000D03*
%TO.P,J2,4,Pin_4*%
%TO.N,unconnected-(J2-Pin_4-Pad4)*%
X118314000Y-108218000D03*
%TO.P,J2,5,Pin_5*%
%TO.N,unconnected-(J2-Pin_5-Pad5)*%
X118314000Y-110758000D03*
%TO.P,J2,6,Pin_6*%
%TO.N,GND*%
X118314000Y-113298000D03*
%TD*%
D10*
%TO.P,MK1,1,-*%
%TO.N,GND*%
X83262000Y-101614000D03*
D11*
%TO.P,MK1,2,+*%
%TO.N,Net-(MK1-+)*%
X83262000Y-99074000D03*
%TD*%
D12*
%TO.P,SW2,1,A*%
%TO.N,/Top_Sheet/ESP-12S/IO0*%
X130304000Y-99110000D03*
X136804000Y-99110000D03*
%TO.P,SW2,2,B*%
%TO.N,GND*%
X130304000Y-103610000D03*
X136804000Y-103610000D03*
%TD*%
D13*
%TO.P,U3,GND,GND*%
%TO.N,GND*%
X94946000Y-112536000D03*
%TO.P,U3,OUT,OUT*%
%TO.N,Net-(R13-Pad2)*%
X92446000Y-112536000D03*
%TO.P,U3,VCC,V+*%
%TO.N,Net-(U3-V+)*%
X97446000Y-112536000D03*
%TD*%
D10*
%TO.P,J5,1,Pin_1*%
%TO.N,/Top_Sheet/ESP-12S/IO2*%
X137364000Y-113298000D03*
D11*
%TO.P,J5,2,Pin_2*%
%TO.N,/Top_Sheet/ESP-12S/IO12*%
X134824000Y-113298000D03*
%TO.P,J5,3,Pin_3*%
%TO.N,/Top_Sheet/ESP-12S/IO13*%
X132284000Y-113298000D03*
%TO.P,J5,4,Pin_4*%
%TO.N,/Top_Sheet/ESP-12S/IO14*%
X129744000Y-113298000D03*
%TO.P,J5,5,Pin_5*%
%TO.N,/Top_Sheet/ESP-12S/IO15*%
X127204000Y-113298000D03*
%TD*%
D14*
%TO.P,J6,G*%
%TO.N,GND*%
X82943000Y-89803000D03*
D15*
%TO.P,J6,S*%
%TO.N,Net-(C9-Pad2)*%
X87943000Y-84803000D03*
D16*
%TO.P,J6,SN*%
X87943000Y-87303000D03*
D15*
%TO.P,J6,T*%
%TO.N,Net-(C8-Pad2)*%
X87943000Y-94803000D03*
D17*
%TO.P,J6,TN*%
X87943000Y-92303000D03*
%TD*%
D18*
%TO.P,J3,1,Pin_1*%
%TO.N,Net-(J3-Pin_1)*%
X124447000Y-60211000D03*
D19*
%TO.P,J3,2,Pin_2*%
%TO.N,/Top_Sheet/ESP-12S/DATA*%
X119447000Y-60211000D03*
%TO.P,J3,3,Pin_3*%
%TO.N,/Top_Sheet/ESP-12S/CLK*%
X114447000Y-60211000D03*
%TO.P,J3,4,Pin_4*%
%TO.N,GND*%
X109447000Y-60211000D03*
%TD*%
D20*
%TO.P,K1,1*%
%TO.N,/Top_Sheet/ESP-12S/5V_LED*%
X87948000Y-75189500D03*
D21*
%TO.P,K1,2*%
%TO.N,Net-(Q3-D)*%
X93948000Y-73189500D03*
%TO.P,K1,3*%
%TO.N,unconnected-(K1-Pad3)*%
X93948000Y-60989500D03*
%TO.P,K1,4*%
%TO.N,+5V*%
X81948000Y-60989500D03*
%TO.P,K1,5*%
X81948000Y-73189500D03*
%TD*%
D18*
%TO.P,J4,1,Pin_1*%
%TO.N,Net-(J4-Pin_1)*%
X106405000Y-109742000D03*
D19*
%TO.P,J4,2,Pin_2*%
%TO.N,GND*%
X111405000Y-109742000D03*
%TD*%
D22*
%TO.P,F2,1*%
%TO.N,Net-(J3-Pin_1)*%
X101804000Y-56308000D03*
D23*
X101804000Y-63578000D03*
D24*
%TO.P,F2,2*%
%TO.N,/Top_Sheet/ESP-12S/5V_LED*%
X101804000Y-72658000D03*
D25*
X101804000Y-79928000D03*
%TD*%
D26*
%TO.P,C5,1*%
%TO.N,Net-(J3-Pin_1)*%
X109596323Y-76214000D03*
D12*
%TO.P,C5,2*%
%TO.N,GND*%
X114596323Y-76214000D03*
%TD*%
D27*
%TO.N,GND*%
X106680000Y-89281000D03*
X105410000Y-89281000D03*
X104267000Y-89916000D03*
X102997000Y-89916000D03*
%TO.N,+5V*%
X139904000Y-64022000D03*
X123190000Y-69342000D03*
X122152351Y-63775649D03*
%TO.N,GND*%
X108535000Y-89676000D03*
X96470000Y-92724000D03*
X104902000Y-83566000D03*
X122505000Y-72399000D03*
X125983996Y-104648000D03*
X95962000Y-103392000D03*
X110186000Y-84342000D03*
X103074000Y-91200000D03*
X96470000Y-85612000D03*
X120912365Y-71137671D03*
X101431607Y-92715393D03*
X108560000Y-86628000D03*
X112472000Y-100598000D03*
X118822000Y-71002000D03*
X89739000Y-100598000D03*
X133692327Y-64806000D03*
X104344000Y-91200000D03*
X132284000Y-60466000D03*
X117298000Y-72399000D03*
%TO.N,+3V3*%
X108916000Y-97296000D03*
X89866000Y-98058000D03*
%TO.N,/Top_Sheet/ESP-12S/IO0*%
X126188000Y-99328000D03*
X125744000Y-95073998D03*
%TO.N,/Top_Sheet/ESP-12S/ADC*%
X98298000Y-87797998D03*
X121362000Y-82296000D03*
%TO.N,/Top_Sheet/ESP-12S/CLK*%
X121412000Y-69850000D03*
%TO.N,/Top_Sheet/ESP-12S/IO2*%
X128469347Y-90179347D03*
%TO.N,/Top_Sheet/ESP-12S/IO12*%
X123902000Y-79008000D03*
%TO.N,/Top_Sheet/ESP-12S/IO13*%
X124664000Y-81294000D03*
%TO.N,/Top_Sheet/ESP-12S/IO14*%
X123398653Y-80273347D03*
%TO.N,/Top_Sheet/ESP-12S/IO15*%
X114504000Y-86120000D03*
X121616000Y-95772000D03*
%TO.N,/Top_Sheet/ESP-12S/IO4*%
X135332000Y-70372000D03*
X135332000Y-72912000D03*
%TO.N,/Top_Sheet/ESP-12S/IO16*%
X129744006Y-67324000D03*
X127712000Y-74182000D03*
%TO.N,/Top_Sheet/ESP-12S/IO5*%
X103328000Y-103392000D03*
X115062000Y-102870000D03*
%TD*%
D28*
%TO.N,+5V*%
X122152351Y-63775649D02*
X122152351Y-68304351D01*
X122152351Y-68304351D02*
X123190000Y-69342000D01*
X139904000Y-64022000D02*
X139657649Y-63775649D01*
X139657649Y-63775649D02*
X122152351Y-63775649D01*
D29*
%TO.N,+3V3*%
X108154000Y-98058000D02*
X108916000Y-97296000D01*
X89866000Y-98058000D02*
X108154000Y-98058000D01*
D28*
%TO.N,Net-(J3-Pin_1)*%
X120544000Y-56308000D02*
X101804000Y-56308000D01*
X109678000Y-76132323D02*
X109596323Y-76214000D01*
X124447000Y-60211000D02*
X120544000Y-56308000D01*
X101804000Y-63578000D02*
X101804000Y-56308000D01*
X105424000Y-63578000D02*
X109678000Y-67832000D01*
X109678000Y-67832000D02*
X109678000Y-76132323D01*
X101804000Y-63578000D02*
X105424000Y-63578000D01*
D30*
%TO.N,/Top_Sheet/ESP-12S/IO0*%
X126188000Y-95517998D02*
X125744000Y-95073998D01*
X126188000Y-99328000D02*
X126188000Y-95517998D01*
%TO.N,/Top_Sheet/ESP-12S/ADC*%
X102997000Y-82296000D02*
X98298000Y-86995000D01*
X98298000Y-86995000D02*
X98298000Y-87797998D01*
X121362000Y-82296000D02*
X102997000Y-82296000D01*
D28*
%TO.N,/Top_Sheet/ESP-12S/5V_LED*%
X90026000Y-79928000D02*
X101804000Y-79928000D01*
X101804000Y-72658000D02*
X101804000Y-79928000D01*
X87948000Y-75189500D02*
X87948000Y-77850000D01*
X87948000Y-77850000D02*
X90026000Y-79928000D01*
D30*
%TO.N,/Top_Sheet/ESP-12S/CLK*%
X114447000Y-62885000D02*
X121412000Y-69850000D01*
X114447000Y-60211000D02*
X114447000Y-62885000D01*
%TO.N,/Top_Sheet/ESP-12S/IO2*%
X128529000Y-104463000D02*
X128529000Y-90239000D01*
X137364000Y-113298000D02*
X128529000Y-104463000D01*
X128529000Y-90239000D02*
X128469347Y-90179347D01*
%TO.N,/Top_Sheet/ESP-12S/IO12*%
X126950000Y-82056000D02*
X126950000Y-105424000D01*
X123902000Y-79008000D02*
X126950000Y-82056000D01*
X126950000Y-105424000D02*
X134824000Y-113298000D01*
%TO.N,/Top_Sheet/ESP-12S/IO13*%
X124664000Y-105678000D02*
X124664000Y-81294000D01*
X132284000Y-113298000D02*
X124664000Y-105678000D01*
%TO.N,/Top_Sheet/ESP-12S/IO14*%
X123398653Y-106952653D02*
X123398653Y-80273347D01*
X129744000Y-113298000D02*
X123398653Y-106952653D01*
%TO.N,/Top_Sheet/ESP-12S/IO15*%
X114504000Y-86120000D02*
X121616000Y-93232000D01*
X121616000Y-93232000D02*
X121616000Y-95772000D01*
X121616000Y-107710000D02*
X121616000Y-95772000D01*
X127204000Y-113298000D02*
X121616000Y-107710000D01*
%TO.N,/Top_Sheet/ESP-12S/IO4*%
X135332000Y-72912000D02*
X135332000Y-70372000D01*
%TO.N,/Top_Sheet/ESP-12S/IO16*%
X127712000Y-74182000D02*
X127712000Y-69356006D01*
X127712000Y-69356006D02*
X129744006Y-67324000D01*
%TO.N,/Top_Sheet/ESP-12S/IO5*%
X103328000Y-103392000D02*
X114540000Y-103392000D01*
X114540000Y-103392000D02*
X115062000Y-102870000D01*
%TD*%
%TA.AperFunction,Conductor*%
%TO.N,GND*%
G36*
X125494703Y-99905208D02*
G01*
X125505644Y-99915943D01*
X125532169Y-99945402D01*
X125582129Y-100000888D01*
X125735265Y-100112148D01*
X125735270Y-100112151D01*
X125908192Y-100189142D01*
X125908197Y-100189144D01*
X126093354Y-100228500D01*
X126093355Y-100228500D01*
X126200500Y-100228500D01*
X126267539Y-100248185D01*
X126313294Y-100300989D01*
X126324500Y-100352500D01*
X126324500Y-105341255D01*
X126322775Y-105356872D01*
X126323061Y-105356899D01*
X126322326Y-105364665D01*
X126324500Y-105433814D01*
X126324500Y-105463343D01*
X126324501Y-105463360D01*
X126325368Y-105470231D01*
X126325826Y-105476050D01*
X126327290Y-105522624D01*
X126327291Y-105522627D01*
X126332880Y-105541867D01*
X126336824Y-105560911D01*
X126339336Y-105580791D01*
X126356490Y-105624119D01*
X126358382Y-105629647D01*
X126371381Y-105674388D01*
X126381580Y-105691634D01*
X126390138Y-105709103D01*
X126397514Y-105727732D01*
X126424898Y-105765423D01*
X126428106Y-105770307D01*
X126451827Y-105810416D01*
X126451833Y-105810424D01*
X126465990Y-105824580D01*
X126478627Y-105839375D01*
X126490406Y-105855587D01*
X126520928Y-105880837D01*
X126526309Y-105885288D01*
X126530620Y-105889210D01*
X129537240Y-108895830D01*
X132372070Y-111730660D01*
X132405555Y-111791983D01*
X132400571Y-111861675D01*
X132358699Y-111917608D01*
X132293235Y-111942025D01*
X132284389Y-111942341D01*
X132283999Y-111942341D01*
X132048590Y-111962937D01*
X132048589Y-111962937D01*
X131948124Y-111989855D01*
X131878274Y-111988191D01*
X131828352Y-111957761D01*
X125325819Y-105455228D01*
X125292334Y-105393905D01*
X125289500Y-105367547D01*
X125289500Y-99998921D01*
X125309185Y-99931882D01*
X125361989Y-99886127D01*
X125431147Y-99876183D01*
X125494703Y-99905208D01*
G37*
%TD.AperFunction*%
%TA.AperFunction,Conductor*%
G36*
X143148539Y-54136185D02*
G01*
X143194294Y-54188989D01*
X143205500Y-54240500D01*
X143205500Y-74311500D01*
X143185815Y-74378539D01*
X143133011Y-74424294D01*
X143081500Y-74435500D01*
X135610760Y-74435500D01*
X135610554Y-74435459D01*
X135586000Y-74435459D01*
X135585901Y-74435500D01*
X135585617Y-74435616D01*
X135585615Y-74435618D01*
X135585459Y-74435999D01*
X135585476Y-74460616D01*
X135585471Y-74460616D01*
X135585500Y-74460759D01*
X135585500Y-94731467D01*
X135585416Y-94731889D01*
X135585459Y-94756001D01*
X135585500Y-94756099D01*
X135585616Y-94756382D01*
X135585618Y-94756384D01*
X135585808Y-94756462D01*
X135586000Y-94756541D01*
X135586002Y-94756539D01*
X135610616Y-94756524D01*
X135610616Y-94756528D01*
X135610760Y-94756500D01*
X143081500Y-94756500D01*
X143148539Y-94776185D01*
X143194294Y-94828989D01*
X143205500Y-94880500D01*
X143205500Y-116221500D01*
X143185815Y-116288539D01*
X143133011Y-116334294D01*
X143081500Y-116345500D01*
X78560543Y-116345500D01*
X78493504Y-116325815D01*
X78447749Y-116273011D01*
X78436543Y-116221457D01*
X78436931Y-115112469D01*
X78437831Y-112536000D01*
X79490473Y-112536000D01*
X79510563Y-112868136D01*
X79510563Y-112868141D01*
X79510564Y-112868142D01*
X79570544Y-113195441D01*
X79570545Y-113195445D01*
X79570546Y-113195449D01*
X79669530Y-113513104D01*
X79669534Y-113513116D01*
X79669537Y-113513123D01*
X79806102Y-113816557D01*
X79978246Y-114101318D01*
X79978251Y-114101326D01*
X80183460Y-114363255D01*
X80418744Y-114598539D01*
X80680673Y-114803748D01*
X80680678Y-114803751D01*
X80680682Y-114803754D01*
X80965443Y-114975898D01*
X81268877Y-115112463D01*
X81268890Y-115112467D01*
X81268895Y-115112469D01*
X81480665Y-115178458D01*
X81586559Y-115211456D01*
X81913858Y-115271436D01*
X82091740Y-115282196D01*
X82162892Y-115286500D01*
X82162894Y-115286500D01*
X82329108Y-115286500D01*
X82391365Y-115282734D01*
X82578142Y-115271436D01*
X82905441Y-115211456D01*
X83223123Y-115112463D01*
X83526557Y-114975898D01*
X83811318Y-114803754D01*
X84073252Y-114598542D01*
X84308542Y-114363252D01*
X84460664Y-114169082D01*
X84513748Y-114101326D01*
X84513748Y-114101324D01*
X84513754Y-114101318D01*
X84685898Y-113816557D01*
X84822463Y-113513123D01*
X84904435Y-113250064D01*
X91285100Y-113250064D01*
X91299977Y-113410628D01*
X91358855Y-113617559D01*
X91358860Y-113617572D01*
X91454751Y-113810146D01*
X91454753Y-113810149D01*
X91454755Y-113810153D01*
X91584409Y-113981844D01*
X91584412Y-113981846D01*
X91584414Y-113981849D01*
X91743402Y-114126785D01*
X91743404Y-114126786D01*
X91743405Y-114126787D01*
X91926326Y-114240047D01*
X92126944Y-114317767D01*
X92338427Y-114357300D01*
X92338429Y-114357300D01*
X92553571Y-114357300D01*
X92553573Y-114357300D01*
X92765056Y-114317767D01*
X92965674Y-114240047D01*
X93148595Y-114126787D01*
X93307591Y-113981844D01*
X93437245Y-113810153D01*
X93533144Y-113617562D01*
X93576995Y-113463439D01*
X93614272Y-113404353D01*
X93677581Y-113374795D01*
X93746821Y-113384157D01*
X93800007Y-113429466D01*
X93815525Y-113463446D01*
X93859321Y-113617376D01*
X93859324Y-113617382D01*
X93955178Y-113809883D01*
X93955183Y-113809891D01*
X94084781Y-113981507D01*
X94243706Y-114126385D01*
X94243708Y-114126387D01*
X94426545Y-114239595D01*
X94426551Y-114239597D01*
X94627083Y-114317283D01*
X94696000Y-114330166D01*
X94696000Y-112860737D01*
X94704146Y-112868883D01*
X94818850Y-112927327D01*
X94914015Y-112942400D01*
X94977985Y-112942400D01*
X95073150Y-112927327D01*
X95187854Y-112868883D01*
X95196000Y-112860737D01*
X95196000Y-114330166D01*
X95264916Y-114317283D01*
X95264917Y-114317283D01*
X95465448Y-114239597D01*
X95465454Y-114239595D01*
X95648291Y-114126387D01*
X95648293Y-114126385D01*
X95807218Y-113981507D01*
X95936816Y-113809891D01*
X95936821Y-113809883D01*
X96032675Y-113617383D01*
X96076473Y-113463447D01*
X96113752Y-113404353D01*
X96177062Y-113374795D01*
X96246301Y-113384157D01*
X96299488Y-113429466D01*
X96315006Y-113463446D01*
X96358854Y-113617557D01*
X96358860Y-113617572D01*
X96454751Y-113810146D01*
X96454753Y-113810149D01*
X96454755Y-113810153D01*
X96584409Y-113981844D01*
X96584412Y-113981846D01*
X96584414Y-113981849D01*
X96743402Y-114126785D01*
X96743404Y-114126786D01*
X96743405Y-114126787D01*
X96926326Y-114240047D01*
X97126944Y-114317767D01*
X97338427Y-114357300D01*
X97338429Y-114357300D01*
X97553571Y-114357300D01*
X97553573Y-114357300D01*
X97765056Y-114317767D01*
X97965674Y-114240047D01*
X98148595Y-114126787D01*
X98307591Y-113981844D01*
X98437245Y-113810153D01*
X98533144Y-113617562D01*
X98592022Y-113410629D01*
X98606900Y-113250068D01*
X98606900Y-111821932D01*
X98592022Y-111661371D01*
X98533144Y-111454438D01*
X98523880Y-111435834D01*
X98437248Y-111261853D01*
X98437247Y-111261852D01*
X98437245Y-111261847D01*
X98307591Y-111090156D01*
X98307587Y-111090152D01*
X98307585Y-111090150D01*
X98307278Y-111089870D01*
X104604500Y-111089870D01*
X104604501Y-111089876D01*
X104610908Y-111149483D01*
X104661202Y-111284328D01*
X104661206Y-111284335D01*
X104747452Y-111399544D01*
X104747455Y-111399547D01*
X104862664Y-111485793D01*
X104862671Y-111485797D01*
X104997517Y-111536091D01*
X104997516Y-111536091D01*
X105004444Y-111536835D01*
X105057127Y-111542500D01*
X107752872Y-111542499D01*
X107812483Y-111536091D01*
X107947331Y-111485796D01*
X108062546Y-111399546D01*
X108148796Y-111284331D01*
X108199091Y-111149483D01*
X108205500Y-111089873D01*
X108205500Y-109742004D01*
X109599953Y-109742004D01*
X109620113Y-110011026D01*
X109620113Y-110011028D01*
X109680142Y-110274033D01*
X109680148Y-110274052D01*
X109778709Y-110525181D01*
X109778708Y-110525181D01*
X109913602Y-110758822D01*
X109967294Y-110826151D01*
X109967295Y-110826151D01*
X110802452Y-109990993D01*
X110812188Y-110020956D01*
X110900186Y-110159619D01*
X111019903Y-110272040D01*
X111154510Y-110346041D01*
X110319848Y-111180702D01*
X110502483Y-111305220D01*
X110502485Y-111305221D01*
X110745539Y-111422269D01*
X110745537Y-111422269D01*
X111003337Y-111501790D01*
X111003343Y-111501792D01*
X111270101Y-111541999D01*
X111270110Y-111542000D01*
X111539890Y-111542000D01*
X111539898Y-111541999D01*
X111806656Y-111501792D01*
X111806662Y-111501790D01*
X112064461Y-111422269D01*
X112307521Y-111305218D01*
X112490150Y-111180702D01*
X111652534Y-110343086D01*
X111720629Y-110316126D01*
X111853492Y-110219595D01*
X111958175Y-110093055D01*
X112006631Y-109990079D01*
X112842703Y-110826151D01*
X112842704Y-110826150D01*
X112896393Y-110758828D01*
X112896400Y-110758817D01*
X112896872Y-110758000D01*
X116958341Y-110758000D01*
X116978936Y-110993403D01*
X116978938Y-110993413D01*
X117040094Y-111221655D01*
X117040096Y-111221659D01*
X117040097Y-111221663D01*
X117123046Y-111399547D01*
X117139965Y-111435830D01*
X117139967Y-111435834D01*
X117226136Y-111558895D01*
X117275505Y-111629401D01*
X117442599Y-111796495D01*
X117606387Y-111911181D01*
X117628594Y-111926730D01*
X117672219Y-111981307D01*
X117679413Y-112050805D01*
X117647890Y-112113160D01*
X117628595Y-112129880D01*
X117442922Y-112259890D01*
X117442920Y-112259891D01*
X117275891Y-112426920D01*
X117275886Y-112426926D01*
X117140400Y-112620420D01*
X117140399Y-112620422D01*
X117040570Y-112834507D01*
X117040567Y-112834513D01*
X116983364Y-113047999D01*
X116983364Y-113048000D01*
X117880314Y-113048000D01*
X117854507Y-113088156D01*
X117814000Y-113226111D01*
X117814000Y-113369889D01*
X117854507Y-113507844D01*
X117880314Y-113548000D01*
X116983364Y-113548000D01*
X117040567Y-113761486D01*
X117040570Y-113761492D01*
X117140399Y-113975578D01*
X117275894Y-114169082D01*
X117442917Y-114336105D01*
X117636421Y-114471600D01*
X117850507Y-114571429D01*
X117850516Y-114571433D01*
X118064000Y-114628634D01*
X118064000Y-113733501D01*
X118171685Y-113782680D01*
X118278237Y-113798000D01*
X118349763Y-113798000D01*
X118456315Y-113782680D01*
X118564000Y-113733501D01*
X118564000Y-114628633D01*
X118777483Y-114571433D01*
X118777492Y-114571429D01*
X118991578Y-114471600D01*
X119185082Y-114336105D01*
X119352105Y-114169082D01*
X119487600Y-113975578D01*
X119587429Y-113761492D01*
X119587432Y-113761486D01*
X119644636Y-113548000D01*
X118747686Y-113548000D01*
X118773493Y-113507844D01*
X118814000Y-113369889D01*
X118814000Y-113226111D01*
X118773493Y-113088156D01*
X118747686Y-113048000D01*
X119644636Y-113048000D01*
X119644635Y-113047999D01*
X119587432Y-112834513D01*
X119587429Y-112834507D01*
X119487600Y-112620422D01*
X119487599Y-112620420D01*
X119352113Y-112426926D01*
X119352108Y-112426920D01*
X119185078Y-112259890D01*
X118999405Y-112129879D01*
X118955780Y-112075302D01*
X118948588Y-112005804D01*
X118980110Y-111943449D01*
X118999406Y-111926730D01*
X119012434Y-111917608D01*
X119185401Y-111796495D01*
X119352495Y-111629401D01*
X119488035Y-111435830D01*
X119587903Y-111221663D01*
X119649063Y-110993408D01*
X119669659Y-110758000D01*
X119669329Y-110754233D01*
X119665350Y-110708744D01*
X119649063Y-110522592D01*
X119587903Y-110294337D01*
X119488035Y-110080171D01*
X119446573Y-110020956D01*
X119352494Y-109886597D01*
X119185402Y-109719506D01*
X119185396Y-109719501D01*
X118999842Y-109589575D01*
X118956217Y-109534998D01*
X118949023Y-109465500D01*
X118980546Y-109403145D01*
X118999842Y-109386425D01*
X119174104Y-109264405D01*
X119185401Y-109256495D01*
X119352495Y-109089401D01*
X119488035Y-108895830D01*
X119587903Y-108681663D01*
X119649063Y-108453408D01*
X119669659Y-108218000D01*
X119649063Y-107982592D01*
X119589187Y-107759130D01*
X119587905Y-107754344D01*
X119587904Y-107754343D01*
X119587903Y-107754337D01*
X119488035Y-107540171D01*
X119425534Y-107450909D01*
X119352494Y-107346597D01*
X119185402Y-107179506D01*
X119185396Y-107179501D01*
X118999842Y-107049575D01*
X118956217Y-106994998D01*
X118949023Y-106925500D01*
X118980546Y-106863145D01*
X118999842Y-106846425D01*
X119022026Y-106830891D01*
X119185401Y-106716495D01*
X119352495Y-106549401D01*
X119488035Y-106355830D01*
X119587903Y-106141663D01*
X119649063Y-105913408D01*
X119669659Y-105678000D01*
X119649063Y-105442592D01*
X119587903Y-105214337D01*
X119488035Y-105000171D01*
X119479772Y-104988369D01*
X119352494Y-104806597D01*
X119185402Y-104639506D01*
X119185396Y-104639501D01*
X118999842Y-104509575D01*
X118956217Y-104454998D01*
X118949023Y-104385500D01*
X118980546Y-104323145D01*
X118999842Y-104306425D01*
X119075938Y-104253142D01*
X119185401Y-104176495D01*
X119352495Y-104009401D01*
X119488035Y-103815830D01*
X119587903Y-103601663D01*
X119649063Y-103373408D01*
X119669659Y-103138000D01*
X119669453Y-103135651D01*
X119659660Y-103023715D01*
X119649063Y-102902592D01*
X119587903Y-102674337D01*
X119488035Y-102460171D01*
X119454098Y-102411704D01*
X119352496Y-102266600D01*
X119317526Y-102231630D01*
X119230567Y-102144671D01*
X119197084Y-102083351D01*
X119202068Y-102013659D01*
X119243939Y-101957725D01*
X119274915Y-101940810D01*
X119406331Y-101891796D01*
X119521546Y-101805546D01*
X119607796Y-101690331D01*
X119658091Y-101555483D01*
X119664500Y-101495873D01*
X119664499Y-99700128D01*
X119658091Y-99640517D01*
X119619729Y-99537664D01*
X119607797Y-99505671D01*
X119607793Y-99505664D01*
X119521547Y-99390455D01*
X119521544Y-99390452D01*
X119406335Y-99304206D01*
X119406328Y-99304202D01*
X119271482Y-99253908D01*
X119271483Y-99253908D01*
X119211883Y-99247501D01*
X119211881Y-99247500D01*
X119211873Y-99247500D01*
X119211864Y-99247500D01*
X117416129Y-99247500D01*
X117416123Y-99247501D01*
X117356516Y-99253908D01*
X117221671Y-99304202D01*
X117221664Y-99304206D01*
X117106455Y-99390452D01*
X117106452Y-99390455D01*
X117020206Y-99505664D01*
X117020202Y-99505671D01*
X116969908Y-99640517D01*
X116963913Y-99696284D01*
X116963501Y-99700123D01*
X116963500Y-99700135D01*
X116963500Y-101495870D01*
X116963501Y-101495876D01*
X116969908Y-101555483D01*
X117020202Y-101690328D01*
X117020206Y-101690335D01*
X117106452Y-101805544D01*
X117106455Y-101805547D01*
X117221664Y-101891793D01*
X117221671Y-101891797D01*
X117353081Y-101940810D01*
X117409015Y-101982681D01*
X117433432Y-102048145D01*
X117418580Y-102116418D01*
X117397430Y-102144673D01*
X117275503Y-102266600D01*
X117139965Y-102460169D01*
X117139964Y-102460171D01*
X117040098Y-102674335D01*
X117040094Y-102674344D01*
X116978938Y-102902586D01*
X116978936Y-102902596D01*
X116958341Y-103137999D01*
X116958341Y-103138000D01*
X116978936Y-103373403D01*
X116978938Y-103373413D01*
X117040094Y-103601655D01*
X117040096Y-103601659D01*
X117040097Y-103601663D01*
X117135755Y-103806801D01*
X117139965Y-103815830D01*
X117139967Y-103815834D01*
X117275501Y-104009395D01*
X117275506Y-104009402D01*
X117442597Y-104176493D01*
X117442603Y-104176498D01*
X117628158Y-104306425D01*
X117671783Y-104361002D01*
X117678977Y-104430500D01*
X117647454Y-104492855D01*
X117628158Y-104509575D01*
X117442597Y-104639505D01*
X117275505Y-104806597D01*
X117139965Y-105000169D01*
X117139964Y-105000171D01*
X117040098Y-105214335D01*
X117040094Y-105214344D01*
X116978938Y-105442586D01*
X116978936Y-105442596D01*
X116958341Y-105677999D01*
X116958341Y-105678000D01*
X116978936Y-105913403D01*
X116978938Y-105913413D01*
X117040094Y-106141655D01*
X117040096Y-106141659D01*
X117040097Y-106141663D01*
X117047222Y-106156942D01*
X117139965Y-106355830D01*
X117139967Y-106355834D01*
X117275501Y-106549395D01*
X117275506Y-106549402D01*
X117442597Y-106716493D01*
X117442603Y-106716498D01*
X117628158Y-106846425D01*
X117671783Y-106901002D01*
X117678977Y-106970500D01*
X117647454Y-107032855D01*
X117628158Y-107049575D01*
X117442597Y-107179505D01*
X117275505Y-107346597D01*
X117139965Y-107540169D01*
X117139964Y-107540171D01*
X117088440Y-107650665D01*
X117042423Y-107749350D01*
X117040098Y-107754335D01*
X117040094Y-107754344D01*
X116978938Y-107982586D01*
X116978936Y-107982596D01*
X116958341Y-108217999D01*
X116958341Y-108218000D01*
X116978936Y-108453403D01*
X116978938Y-108453413D01*
X117040094Y-108681655D01*
X117040096Y-108681659D01*
X117040097Y-108681663D01*
X117139965Y-108895830D01*
X117139967Y-108895834D01*
X117275501Y-109089395D01*
X117275506Y-109089402D01*
X117442597Y-109256493D01*
X117442603Y-109256498D01*
X117628158Y-109386425D01*
X117671783Y-109441002D01*
X117678977Y-109510500D01*
X117647454Y-109572855D01*
X117628158Y-109589575D01*
X117442597Y-109719505D01*
X117275505Y-109886597D01*
X117139965Y-110080169D01*
X117139964Y-110080171D01*
X117040098Y-110294335D01*
X117040094Y-110294344D01*
X116978938Y-110522586D01*
X116978936Y-110522596D01*
X116958341Y-110757999D01*
X116958341Y-110758000D01*
X112896872Y-110758000D01*
X113031290Y-110525181D01*
X113129851Y-110274052D01*
X113129857Y-110274033D01*
X113189886Y-110011028D01*
X113189886Y-110011026D01*
X113210047Y-109742004D01*
X113210047Y-109741995D01*
X113189886Y-109472973D01*
X113189886Y-109472971D01*
X113129857Y-109209966D01*
X113129851Y-109209947D01*
X113031290Y-108958818D01*
X113031291Y-108958818D01*
X112896397Y-108725177D01*
X112842704Y-108657847D01*
X112007546Y-109493004D01*
X111997812Y-109463044D01*
X111909814Y-109324381D01*
X111790097Y-109211960D01*
X111655489Y-109137958D01*
X112490150Y-108303296D01*
X112307517Y-108178779D01*
X112307516Y-108178778D01*
X112064460Y-108061730D01*
X112064462Y-108061730D01*
X111806662Y-107982209D01*
X111806656Y-107982207D01*
X111539898Y-107942000D01*
X111270101Y-107942000D01*
X111003343Y-107982207D01*
X111003337Y-107982209D01*
X110745538Y-108061730D01*
X110502485Y-108178778D01*
X110502476Y-108178783D01*
X110319848Y-108303296D01*
X111157465Y-109140913D01*
X111089371Y-109167874D01*
X110956508Y-109264405D01*
X110851825Y-109390945D01*
X110803368Y-109493920D01*
X109967295Y-108657848D01*
X109913600Y-108725180D01*
X109778709Y-108958818D01*
X109680148Y-109209947D01*
X109680142Y-109209966D01*
X109620113Y-109472971D01*
X109620113Y-109472973D01*
X109599953Y-109741995D01*
X109599953Y-109742004D01*
X108205500Y-109742004D01*
X108205499Y-108394128D01*
X108199091Y-108334517D01*
X108187446Y-108303296D01*
X108148797Y-108199671D01*
X108148793Y-108199664D01*
X108062547Y-108084455D01*
X108062544Y-108084452D01*
X107947335Y-107998206D01*
X107947328Y-107998202D01*
X107812482Y-107947908D01*
X107812483Y-107947908D01*
X107752883Y-107941501D01*
X107752881Y-107941500D01*
X107752873Y-107941500D01*
X107752864Y-107941500D01*
X105057129Y-107941500D01*
X105057123Y-107941501D01*
X104997516Y-107947908D01*
X104862671Y-107998202D01*
X104862664Y-107998206D01*
X104747455Y-108084452D01*
X104747452Y-108084455D01*
X104661206Y-108199664D01*
X104661202Y-108199671D01*
X104610908Y-108334517D01*
X104604501Y-108394116D01*
X104604501Y-108394123D01*
X104604500Y-108394135D01*
X104604500Y-111089870D01*
X98307278Y-111089870D01*
X98148597Y-110945214D01*
X98108811Y-110920579D01*
X97965674Y-110831953D01*
X97765056Y-110754233D01*
X97553573Y-110714700D01*
X97338427Y-110714700D01*
X97126944Y-110754233D01*
X97000075Y-110803382D01*
X96926328Y-110831952D01*
X96926327Y-110831952D01*
X96743402Y-110945214D01*
X96584414Y-111090150D01*
X96584407Y-111090158D01*
X96454760Y-111261839D01*
X96454751Y-111261853D01*
X96358860Y-111454427D01*
X96358855Y-111454440D01*
X96315006Y-111608554D01*
X96277727Y-111667647D01*
X96214417Y-111697204D01*
X96145177Y-111687842D01*
X96091991Y-111642532D01*
X96076473Y-111608553D01*
X96032674Y-111454615D01*
X95936821Y-111262116D01*
X95936816Y-111262108D01*
X95807218Y-111090492D01*
X95648293Y-110945614D01*
X95648291Y-110945612D01*
X95465454Y-110832404D01*
X95465448Y-110832401D01*
X95264918Y-110754716D01*
X95264908Y-110754713D01*
X95196000Y-110741831D01*
X95196000Y-112211263D01*
X95187854Y-112203117D01*
X95073150Y-112144673D01*
X94977985Y-112129600D01*
X94914015Y-112129600D01*
X94818850Y-112144673D01*
X94704146Y-112203117D01*
X94696000Y-112211263D01*
X94696000Y-110741831D01*
X94627091Y-110754713D01*
X94627081Y-110754716D01*
X94426551Y-110832401D01*
X94426545Y-110832404D01*
X94243708Y-110945612D01*
X94243706Y-110945614D01*
X94084781Y-111090492D01*
X93955183Y-111262108D01*
X93955178Y-111262116D01*
X93859324Y-111454617D01*
X93859321Y-111454623D01*
X93815525Y-111608553D01*
X93778246Y-111667647D01*
X93714936Y-111697204D01*
X93645697Y-111687842D01*
X93592510Y-111642532D01*
X93576995Y-111608557D01*
X93533144Y-111454438D01*
X93523880Y-111435834D01*
X93437248Y-111261853D01*
X93437247Y-111261852D01*
X93437245Y-111261847D01*
X93307591Y-111090156D01*
X93307587Y-111090152D01*
X93307585Y-111090150D01*
X93148597Y-110945214D01*
X93108811Y-110920579D01*
X92965674Y-110831953D01*
X92765056Y-110754233D01*
X92553573Y-110714700D01*
X92338427Y-110714700D01*
X92126944Y-110754233D01*
X92000075Y-110803382D01*
X91926328Y-110831952D01*
X91926327Y-110831952D01*
X91743402Y-110945214D01*
X91584414Y-111090150D01*
X91584407Y-111090158D01*
X91454760Y-111261839D01*
X91454751Y-111261853D01*
X91358860Y-111454427D01*
X91358855Y-111454440D01*
X91299977Y-111661371D01*
X91285100Y-111821935D01*
X91285100Y-113250064D01*
X84904435Y-113250064D01*
X84921456Y-113195441D01*
X84981436Y-112868142D01*
X85001527Y-112536000D01*
X84981436Y-112203858D01*
X84921456Y-111876559D01*
X84848531Y-111642532D01*
X84822469Y-111558895D01*
X84822467Y-111558890D01*
X84822463Y-111558877D01*
X84685898Y-111255443D01*
X84513754Y-110970682D01*
X84513751Y-110970678D01*
X84513748Y-110970673D01*
X84308539Y-110708744D01*
X84073255Y-110473460D01*
X83811326Y-110268251D01*
X83730839Y-110219595D01*
X83526557Y-110096102D01*
X83223123Y-109959537D01*
X83223116Y-109959534D01*
X83223104Y-109959530D01*
X82905449Y-109860546D01*
X82905445Y-109860545D01*
X82905441Y-109860544D01*
X82578142Y-109800564D01*
X82578141Y-109800563D01*
X82578136Y-109800563D01*
X82329108Y-109785500D01*
X82329106Y-109785500D01*
X82162894Y-109785500D01*
X82162892Y-109785500D01*
X81913863Y-109800563D01*
X81913858Y-109800564D01*
X81586559Y-109860544D01*
X81586556Y-109860544D01*
X81586550Y-109860546D01*
X81268895Y-109959530D01*
X81268879Y-109959536D01*
X81268877Y-109959537D01*
X81154474Y-110011026D01*
X80965447Y-110096100D01*
X80965445Y-110096101D01*
X80680673Y-110268251D01*
X80418744Y-110473460D01*
X80183460Y-110708744D01*
X79978251Y-110970673D01*
X79806101Y-111255445D01*
X79806100Y-111255447D01*
X79793099Y-111284335D01*
X79677134Y-111541999D01*
X79669536Y-111558880D01*
X79669530Y-111558895D01*
X79570546Y-111876550D01*
X79570544Y-111876556D01*
X79570544Y-111876559D01*
X79547152Y-112004204D01*
X79510563Y-112203863D01*
X79490473Y-112536000D01*
X78437831Y-112536000D01*
X78441024Y-103392000D01*
X102422540Y-103392000D01*
X102442326Y-103580256D01*
X102442327Y-103580259D01*
X102500818Y-103760277D01*
X102500821Y-103760284D01*
X102595467Y-103924216D01*
X102700307Y-104040652D01*
X102722129Y-104064888D01*
X102875265Y-104176148D01*
X102875270Y-104176151D01*
X103048192Y-104253142D01*
X103048197Y-104253144D01*
X103233354Y-104292500D01*
X103233355Y-104292500D01*
X103422644Y-104292500D01*
X103422646Y-104292500D01*
X103607803Y-104253144D01*
X103780730Y-104176151D01*
X103933871Y-104064888D01*
X103936788Y-104061647D01*
X103939600Y-104058526D01*
X103999087Y-104021879D01*
X104031748Y-104017500D01*
X114457257Y-104017500D01*
X114472877Y-104019224D01*
X114472904Y-104018939D01*
X114480660Y-104019671D01*
X114480667Y-104019673D01*
X114549814Y-104017500D01*
X114579350Y-104017500D01*
X114586228Y-104016630D01*
X114592041Y-104016172D01*
X114638627Y-104014709D01*
X114657869Y-104009117D01*
X114676912Y-104005174D01*
X114696792Y-104002664D01*
X114740122Y-103985507D01*
X114745646Y-103983617D01*
X114749396Y-103982527D01*
X114790390Y-103970618D01*
X114807629Y-103960422D01*
X114825103Y-103951862D01*
X114843727Y-103944488D01*
X114843727Y-103944487D01*
X114843732Y-103944486D01*
X114881449Y-103917082D01*
X114886305Y-103913892D01*
X114926420Y-103890170D01*
X114940589Y-103875999D01*
X114955379Y-103863368D01*
X114971587Y-103851594D01*
X115001296Y-103815680D01*
X115005204Y-103811384D01*
X115009789Y-103806799D01*
X115071117Y-103773328D01*
X115097451Y-103770500D01*
X115156644Y-103770500D01*
X115156646Y-103770500D01*
X115341803Y-103731144D01*
X115514730Y-103654151D01*
X115667871Y-103542888D01*
X115794533Y-103402216D01*
X115889179Y-103238284D01*
X115947674Y-103058256D01*
X115967460Y-102870000D01*
X115947674Y-102681744D01*
X115889179Y-102501716D01*
X115794533Y-102337784D01*
X115667871Y-102197112D01*
X115667870Y-102197111D01*
X115514734Y-102085851D01*
X115514729Y-102085848D01*
X115341807Y-102008857D01*
X115341802Y-102008855D01*
X115196001Y-101977865D01*
X115156646Y-101969500D01*
X114967354Y-101969500D01*
X114934897Y-101976398D01*
X114782197Y-102008855D01*
X114782192Y-102008857D01*
X114609270Y-102085848D01*
X114609265Y-102085851D01*
X114456129Y-102197111D01*
X114329466Y-102337785D01*
X114234821Y-102501715D01*
X114234818Y-102501721D01*
X114176627Y-102680818D01*
X114137190Y-102738494D01*
X114072831Y-102765692D01*
X114058696Y-102766500D01*
X104031748Y-102766500D01*
X103964709Y-102746815D01*
X103939600Y-102725474D01*
X103933873Y-102719114D01*
X103933869Y-102719110D01*
X103780734Y-102607851D01*
X103780729Y-102607848D01*
X103607807Y-102530857D01*
X103607802Y-102530855D01*
X103462001Y-102499865D01*
X103422646Y-102491500D01*
X103233354Y-102491500D01*
X103200897Y-102498398D01*
X103048197Y-102530855D01*
X103048192Y-102530857D01*
X102875270Y-102607848D01*
X102875265Y-102607851D01*
X102722129Y-102719111D01*
X102595466Y-102859785D01*
X102500821Y-103023715D01*
X102500818Y-103023722D01*
X102442327Y-103203740D01*
X102442326Y-103203744D01*
X102422540Y-103392000D01*
X78441024Y-103392000D01*
X78442532Y-99074000D01*
X81906341Y-99074000D01*
X81926936Y-99309403D01*
X81926938Y-99309413D01*
X81988094Y-99537655D01*
X81988096Y-99537659D01*
X81988097Y-99537663D01*
X82063856Y-99700128D01*
X82087965Y-99751830D01*
X82087967Y-99751834D01*
X82140324Y-99826607D01*
X82223501Y-99945396D01*
X82223506Y-99945402D01*
X82345818Y-100067714D01*
X82379303Y-100129037D01*
X82374319Y-100198729D01*
X82332447Y-100254662D01*
X82301471Y-100271577D01*
X82169912Y-100320646D01*
X82169906Y-100320649D01*
X82054812Y-100406809D01*
X82054809Y-100406812D01*
X81968649Y-100521906D01*
X81968645Y-100521913D01*
X81918403Y-100656620D01*
X81918401Y-100656627D01*
X81912000Y-100716155D01*
X81912000Y-101364000D01*
X82828314Y-101364000D01*
X82802507Y-101404156D01*
X82762000Y-101542111D01*
X82762000Y-101685889D01*
X82802507Y-101823844D01*
X82828314Y-101864000D01*
X81912000Y-101864000D01*
X81912000Y-102511844D01*
X81918401Y-102571372D01*
X81918403Y-102571379D01*
X81968645Y-102706086D01*
X81968649Y-102706093D01*
X82054809Y-102821187D01*
X82054812Y-102821190D01*
X82169906Y-102907350D01*
X82169913Y-102907354D01*
X82304620Y-102957596D01*
X82304627Y-102957598D01*
X82364155Y-102963999D01*
X82364172Y-102964000D01*
X83012000Y-102964000D01*
X83012000Y-102049501D01*
X83119685Y-102098680D01*
X83226237Y-102114000D01*
X83297763Y-102114000D01*
X83404315Y-102098680D01*
X83512000Y-102049501D01*
X83512000Y-102964000D01*
X84159828Y-102964000D01*
X84159844Y-102963999D01*
X84219372Y-102957598D01*
X84219379Y-102957596D01*
X84354086Y-102907354D01*
X84354093Y-102907350D01*
X84469187Y-102821190D01*
X84469190Y-102821187D01*
X84555350Y-102706093D01*
X84555354Y-102706086D01*
X84605596Y-102571379D01*
X84605598Y-102571372D01*
X84611999Y-102511844D01*
X84612000Y-102511827D01*
X84612000Y-101864000D01*
X83695686Y-101864000D01*
X83721493Y-101823844D01*
X83762000Y-101685889D01*
X83762000Y-101542111D01*
X83721493Y-101404156D01*
X83695686Y-101364000D01*
X84612000Y-101364000D01*
X84612000Y-100716172D01*
X84611999Y-100716155D01*
X84605598Y-100656627D01*
X84605596Y-100656620D01*
X84555354Y-100521913D01*
X84555350Y-100521906D01*
X84469190Y-100406812D01*
X84469187Y-100406809D01*
X84354093Y-100320649D01*
X84354088Y-100320646D01*
X84222528Y-100271577D01*
X84166595Y-100229705D01*
X84142178Y-100164241D01*
X84157030Y-100095968D01*
X84178175Y-100067720D01*
X84300495Y-99945401D01*
X84436035Y-99751830D01*
X84535903Y-99537663D01*
X84597063Y-99309408D01*
X84617659Y-99074000D01*
X84597063Y-98838592D01*
X84535903Y-98610337D01*
X84436035Y-98396171D01*
X84315259Y-98223683D01*
X84300494Y-98202597D01*
X84155896Y-98058000D01*
X88960540Y-98058000D01*
X88980326Y-98246256D01*
X88980327Y-98246259D01*
X89038818Y-98426277D01*
X89038821Y-98426284D01*
X89133467Y-98590216D01*
X89237934Y-98706238D01*
X89260129Y-98730888D01*
X89413265Y-98842148D01*
X89413270Y-98842151D01*
X89586192Y-98919142D01*
X89586197Y-98919144D01*
X89771354Y-98958500D01*
X89771355Y-98958500D01*
X89960644Y-98958500D01*
X89960646Y-98958500D01*
X90145803Y-98919144D01*
X90318730Y-98842151D01*
X90382549Y-98795784D01*
X90401271Y-98782182D01*
X90467077Y-98758702D01*
X90474156Y-98758500D01*
X108130952Y-98758500D01*
X108134697Y-98758613D01*
X108142042Y-98759057D01*
X108196606Y-98762358D01*
X108234314Y-98755447D01*
X108257621Y-98751177D01*
X108261325Y-98750613D01*
X108279170Y-98748446D01*
X108322872Y-98743140D01*
X108332335Y-98739550D01*
X108353961Y-98733522D01*
X108354893Y-98733351D01*
X108363932Y-98731695D01*
X108420512Y-98706229D01*
X108423942Y-98704809D01*
X108481930Y-98682818D01*
X108490266Y-98677062D01*
X108509821Y-98666034D01*
X108519057Y-98661878D01*
X108567896Y-98623613D01*
X108570876Y-98621421D01*
X108621929Y-98586183D01*
X108663065Y-98539748D01*
X108665599Y-98537056D01*
X108978976Y-98223680D01*
X109040295Y-98190198D01*
X109040304Y-98190195D01*
X109195803Y-98157144D01*
X109195807Y-98157142D01*
X109195808Y-98157142D01*
X109254058Y-98131206D01*
X109368730Y-98080151D01*
X109521871Y-97968888D01*
X109648533Y-97828216D01*
X109743179Y-97664284D01*
X109801674Y-97484256D01*
X109821460Y-97296000D01*
X109801674Y-97107744D01*
X109743179Y-96927716D01*
X109648533Y-96763784D01*
X109521871Y-96623112D01*
X109521870Y-96623111D01*
X109368734Y-96511851D01*
X109368729Y-96511848D01*
X109195807Y-96434857D01*
X109195802Y-96434855D01*
X109048980Y-96403648D01*
X109010646Y-96395500D01*
X108821354Y-96395500D01*
X108788897Y-96402398D01*
X108636197Y-96434855D01*
X108636192Y-96434857D01*
X108463270Y-96511848D01*
X108463265Y-96511851D01*
X108310129Y-96623111D01*
X108183466Y-96763785D01*
X108088821Y-96927715D01*
X108088818Y-96927722D01*
X108030327Y-97107739D01*
X108030325Y-97107749D01*
X108025134Y-97157129D01*
X107998548Y-97221743D01*
X107989496Y-97231844D01*
X107900162Y-97321180D01*
X107838839Y-97354666D01*
X107812480Y-97357500D01*
X90474156Y-97357500D01*
X90407117Y-97337815D01*
X90401271Y-97333818D01*
X90318734Y-97273851D01*
X90318729Y-97273848D01*
X90145807Y-97196857D01*
X90145802Y-97196855D01*
X90000001Y-97165865D01*
X89960646Y-97157500D01*
X89771354Y-97157500D01*
X89738897Y-97164398D01*
X89586197Y-97196855D01*
X89586192Y-97196857D01*
X89413270Y-97273848D01*
X89413265Y-97273851D01*
X89260129Y-97385111D01*
X89133466Y-97525785D01*
X89038821Y-97689715D01*
X89038818Y-97689722D01*
X89002955Y-97800098D01*
X88980326Y-97869744D01*
X88960540Y-98058000D01*
X84155896Y-98058000D01*
X84133402Y-98035506D01*
X84133395Y-98035501D01*
X83939834Y-97899967D01*
X83939830Y-97899965D01*
X83875012Y-97869740D01*
X83725663Y-97800097D01*
X83725659Y-97800096D01*
X83725655Y-97800094D01*
X83497413Y-97738938D01*
X83497403Y-97738936D01*
X83262001Y-97718341D01*
X83261999Y-97718341D01*
X83026596Y-97738936D01*
X83026586Y-97738938D01*
X82798344Y-97800094D01*
X82798335Y-97800098D01*
X82584171Y-97899964D01*
X82584169Y-97899965D01*
X82390597Y-98035505D01*
X82223505Y-98202597D01*
X82087965Y-98396169D01*
X82087964Y-98396171D01*
X81988098Y-98610335D01*
X81988094Y-98610344D01*
X81926938Y-98838586D01*
X81926936Y-98838596D01*
X81906341Y-99073999D01*
X81906341Y-99074000D01*
X78442532Y-99074000D01*
X78443500Y-96302901D01*
X78443500Y-94756685D01*
X79588740Y-94756685D01*
X79598755Y-94941406D01*
X79598755Y-94941411D01*
X79648244Y-95119656D01*
X79648247Y-95119662D01*
X79734898Y-95283102D01*
X79797540Y-95356850D01*
X79854663Y-95424100D01*
X80001936Y-95536054D01*
X80169833Y-95613732D01*
X80169834Y-95613732D01*
X80169836Y-95613733D01*
X80224648Y-95625797D01*
X80350503Y-95653500D01*
X80350506Y-95653500D01*
X80489107Y-95653500D01*
X80489113Y-95653500D01*
X80626910Y-95638514D01*
X80802221Y-95579444D01*
X80960736Y-95484070D01*
X81095041Y-95356849D01*
X81198858Y-95203730D01*
X81267331Y-95031875D01*
X81297260Y-94849317D01*
X81292238Y-94756685D01*
X82088740Y-94756685D01*
X82098755Y-94941406D01*
X82098755Y-94941411D01*
X82148244Y-95119656D01*
X82148247Y-95119662D01*
X82234898Y-95283102D01*
X82297540Y-95356850D01*
X82354663Y-95424100D01*
X82501936Y-95536054D01*
X82669833Y-95613732D01*
X82669834Y-95613732D01*
X82669836Y-95613733D01*
X82724648Y-95625797D01*
X82850503Y-95653500D01*
X82850506Y-95653500D01*
X82989107Y-95653500D01*
X82989113Y-95653500D01*
X83126910Y-95638514D01*
X83302221Y-95579444D01*
X83460736Y-95484070D01*
X83595041Y-95356849D01*
X83698858Y-95203730D01*
X83767331Y-95031875D01*
X83797260Y-94849317D01*
X83787245Y-94664593D01*
X83753310Y-94542368D01*
X83737755Y-94486343D01*
X83737752Y-94486337D01*
X83651101Y-94322897D01*
X83531337Y-94181900D01*
X83452449Y-94121931D01*
X83384064Y-94069946D01*
X83216167Y-93992268D01*
X83216163Y-93992266D01*
X83035497Y-93952500D01*
X82896887Y-93952500D01*
X82896883Y-93952500D01*
X82759088Y-93967486D01*
X82583776Y-94026557D01*
X82583774Y-94026558D01*
X82425262Y-94121931D01*
X82425261Y-94121932D01*
X82290959Y-94249149D01*
X82187138Y-94402276D01*
X82118669Y-94574122D01*
X82118669Y-94574125D01*
X82088764Y-94756541D01*
X82088740Y-94756685D01*
X81292238Y-94756685D01*
X81287245Y-94664593D01*
X81253310Y-94542368D01*
X81237755Y-94486343D01*
X81237752Y-94486337D01*
X81151101Y-94322897D01*
X81031337Y-94181900D01*
X80952449Y-94121931D01*
X80884064Y-94069946D01*
X80716167Y-93992268D01*
X80716163Y-93992266D01*
X80535497Y-93952500D01*
X80396887Y-93952500D01*
X80396883Y-93952500D01*
X80259088Y-93967486D01*
X80083776Y-94026557D01*
X80083774Y-94026558D01*
X79925262Y-94121931D01*
X79925261Y-94121932D01*
X79790959Y-94249149D01*
X79687138Y-94402276D01*
X79618669Y-94574122D01*
X79618669Y-94574125D01*
X79588764Y-94756541D01*
X79588740Y-94756685D01*
X78443500Y-94756685D01*
X78443500Y-92303001D01*
X86187532Y-92303001D01*
X86207364Y-92529686D01*
X86207366Y-92529697D01*
X86266258Y-92749488D01*
X86266261Y-92749497D01*
X86362431Y-92955732D01*
X86362432Y-92955734D01*
X86492954Y-93142141D01*
X86653858Y-93303045D01*
X86653861Y-93303047D01*
X86840266Y-93433568D01*
X87046504Y-93529739D01*
X87046509Y-93529740D01*
X87046514Y-93529742D01*
X87052082Y-93531234D01*
X87111745Y-93567595D01*
X87142277Y-93630441D01*
X87133986Y-93699817D01*
X87089503Y-93753697D01*
X87054933Y-93769986D01*
X87032128Y-93776682D01*
X86845313Y-93872991D01*
X86680116Y-94002905D01*
X86680112Y-94002909D01*
X86542478Y-94161746D01*
X86437398Y-94343750D01*
X86368656Y-94542365D01*
X86368656Y-94542367D01*
X86341408Y-94731889D01*
X86338746Y-94750401D01*
X86348745Y-94960327D01*
X86398296Y-95164578D01*
X86398298Y-95164582D01*
X86485598Y-95355743D01*
X86485601Y-95355748D01*
X86485602Y-95355750D01*
X86485604Y-95355753D01*
X86548627Y-95444256D01*
X86607515Y-95526953D01*
X86607520Y-95526959D01*
X86759620Y-95671985D01*
X86854578Y-95733011D01*
X86936428Y-95785613D01*
X87131543Y-95863725D01*
X87234729Y-95883612D01*
X87337914Y-95903500D01*
X87337915Y-95903500D01*
X88495419Y-95903500D01*
X88495425Y-95903500D01*
X88652218Y-95888528D01*
X88853875Y-95829316D01*
X89040682Y-95733011D01*
X89205886Y-95603092D01*
X89343519Y-95444256D01*
X89366922Y-95403722D01*
X89448601Y-95262249D01*
X89448600Y-95262249D01*
X89448604Y-95262244D01*
X89517344Y-95063633D01*
X89547254Y-94855602D01*
X89537254Y-94645670D01*
X89487704Y-94441424D01*
X89460875Y-94382676D01*
X89400401Y-94250256D01*
X89400398Y-94250251D01*
X89400397Y-94250250D01*
X89400396Y-94250247D01*
X89278486Y-94079048D01*
X89278484Y-94079046D01*
X89278479Y-94079040D01*
X89126379Y-93934014D01*
X88949574Y-93820388D01*
X88949572Y-93820387D01*
X88816394Y-93767071D01*
X88761475Y-93723881D01*
X88738622Y-93657854D01*
X88755095Y-93589954D01*
X88805662Y-93541738D01*
X88830393Y-93532178D01*
X88839496Y-93529739D01*
X89045734Y-93433568D01*
X89232139Y-93303047D01*
X89393047Y-93142139D01*
X89523568Y-92955734D01*
X89619739Y-92749496D01*
X89678635Y-92529692D01*
X89698468Y-92303000D01*
X89678635Y-92076308D01*
X89633916Y-91909415D01*
X89619741Y-91856511D01*
X89619738Y-91856502D01*
X89549743Y-91706398D01*
X89523568Y-91650266D01*
X89393047Y-91463861D01*
X89393045Y-91463858D01*
X89232141Y-91302954D01*
X89045734Y-91172432D01*
X89045732Y-91172431D01*
X88839497Y-91076261D01*
X88839488Y-91076258D01*
X88619697Y-91017366D01*
X88619687Y-91017364D01*
X88449784Y-91002500D01*
X87436216Y-91002500D01*
X87266312Y-91017364D01*
X87266302Y-91017366D01*
X87046511Y-91076258D01*
X87046502Y-91076261D01*
X86840267Y-91172431D01*
X86840265Y-91172432D01*
X86653858Y-91302954D01*
X86492954Y-91463858D01*
X86362432Y-91650265D01*
X86362431Y-91650267D01*
X86266261Y-91856502D01*
X86266258Y-91856511D01*
X86207366Y-92076302D01*
X86207364Y-92076313D01*
X86187532Y-92302998D01*
X86187532Y-92303001D01*
X78443500Y-92303001D01*
X78443500Y-92127500D01*
X78463185Y-92060461D01*
X78515989Y-92014706D01*
X78567500Y-92003500D01*
X79495725Y-92003500D01*
X79495727Y-92003500D01*
X79597587Y-91976207D01*
X79688913Y-91923480D01*
X79763480Y-91848913D01*
X79816207Y-91757587D01*
X79843500Y-91655727D01*
X79843500Y-91603000D01*
X79843500Y-91602500D01*
X79843500Y-90053000D01*
X81843000Y-90053000D01*
X81843000Y-90355398D01*
X81857965Y-90512122D01*
X81857966Y-90512126D01*
X81917149Y-90713686D01*
X82013413Y-90900414D01*
X82143268Y-91065537D01*
X82143271Y-91065540D01*
X82302030Y-91203105D01*
X82302041Y-91203114D01*
X82483960Y-91308144D01*
X82483967Y-91308147D01*
X82682487Y-91376856D01*
X82693000Y-91378367D01*
X82693000Y-90325532D01*
X82743000Y-90325532D01*
X82758173Y-90392008D01*
X82815095Y-90463387D01*
X82897351Y-90503000D01*
X82988649Y-90503000D01*
X83070905Y-90463387D01*
X83127827Y-90392008D01*
X83143000Y-90325532D01*
X83143000Y-90053000D01*
X83193000Y-90053000D01*
X83193000Y-91374257D01*
X83304409Y-91347229D01*
X83495507Y-91259959D01*
X83666619Y-91138110D01*
X83666625Y-91138104D01*
X83811592Y-90986067D01*
X83925166Y-90809342D01*
X84003244Y-90614314D01*
X84043000Y-90408037D01*
X84043000Y-90053000D01*
X83193000Y-90053000D01*
X83143000Y-90053000D01*
X83143000Y-89756685D01*
X87088740Y-89756685D01*
X87098755Y-89941406D01*
X87098755Y-89941411D01*
X87148244Y-90119656D01*
X87148247Y-90119662D01*
X87234898Y-90283102D01*
X87327404Y-90392008D01*
X87354663Y-90424100D01*
X87501936Y-90536054D01*
X87669833Y-90613732D01*
X87669834Y-90613732D01*
X87669836Y-90613733D01*
X87724648Y-90625797D01*
X87850503Y-90653500D01*
X87850506Y-90653500D01*
X87989107Y-90653500D01*
X87989113Y-90653500D01*
X88126910Y-90638514D01*
X88302221Y-90579444D01*
X88460736Y-90484070D01*
X88595041Y-90356849D01*
X88698858Y-90203730D01*
X88767331Y-90031875D01*
X88797260Y-89849317D01*
X88787245Y-89664593D01*
X88775663Y-89622878D01*
X88737755Y-89486343D01*
X88737752Y-89486337D01*
X88651101Y-89322897D01*
X88531337Y-89181900D01*
X88384064Y-89069946D01*
X88216167Y-88992268D01*
X88216163Y-88992266D01*
X88035497Y-88952500D01*
X87896887Y-88952500D01*
X87896883Y-88952500D01*
X87759088Y-88967486D01*
X87583776Y-89026557D01*
X87583774Y-89026558D01*
X87425262Y-89121931D01*
X87425261Y-89121932D01*
X87290959Y-89249149D01*
X87187138Y-89402276D01*
X87118669Y-89574122D01*
X87088740Y-89756685D01*
X83143000Y-89756685D01*
X83143000Y-89280468D01*
X83127827Y-89213992D01*
X83070905Y-89142613D01*
X82988649Y-89103000D01*
X82897351Y-89103000D01*
X82815095Y-89142613D01*
X82758173Y-89213992D01*
X82743000Y-89280468D01*
X82743000Y-90325532D01*
X82693000Y-90325532D01*
X82693000Y-90053000D01*
X81843000Y-90053000D01*
X79843500Y-90053000D01*
X79843500Y-89553000D01*
X81843000Y-89553000D01*
X82693000Y-89553000D01*
X82693000Y-88231740D01*
X82692999Y-88231740D01*
X82581594Y-88258768D01*
X82581582Y-88258772D01*
X82390497Y-88346037D01*
X82390496Y-88346038D01*
X82219380Y-88467889D01*
X82219374Y-88467895D01*
X82074407Y-88619932D01*
X81960833Y-88796657D01*
X81882755Y-88991685D01*
X81843000Y-89197962D01*
X81843000Y-89553000D01*
X79843500Y-89553000D01*
X79843500Y-88227632D01*
X83193000Y-88227632D01*
X83193000Y-89553000D01*
X84043000Y-89553000D01*
X84043000Y-89250601D01*
X84028034Y-89093877D01*
X84028033Y-89093873D01*
X83968850Y-88892313D01*
X83872586Y-88705585D01*
X83742731Y-88540462D01*
X83742728Y-88540459D01*
X83583969Y-88402894D01*
X83583958Y-88402885D01*
X83402039Y-88297855D01*
X83402032Y-88297852D01*
X83203516Y-88229144D01*
X83193000Y-88227632D01*
X79843500Y-88227632D01*
X79843500Y-88002901D01*
X79843500Y-87950273D01*
X79816207Y-87848413D01*
X79763480Y-87757087D01*
X79688913Y-87682520D01*
X79597587Y-87629793D01*
X79495727Y-87602500D01*
X79495726Y-87602500D01*
X78567500Y-87602500D01*
X78500461Y-87582815D01*
X78454706Y-87530011D01*
X78443500Y-87478500D01*
X78443500Y-87303001D01*
X86287532Y-87303001D01*
X86307364Y-87529686D01*
X86307366Y-87529697D01*
X86366258Y-87749488D01*
X86366261Y-87749497D01*
X86462431Y-87955732D01*
X86462432Y-87955734D01*
X86592954Y-88142141D01*
X86753858Y-88303045D01*
X86753861Y-88303047D01*
X86940266Y-88433568D01*
X87146504Y-88529739D01*
X87366308Y-88588635D01*
X87536216Y-88603500D01*
X88349784Y-88603500D01*
X88519692Y-88588635D01*
X88739496Y-88529739D01*
X88945734Y-88433568D01*
X89132139Y-88303047D01*
X89293047Y-88142139D01*
X89423568Y-87955734D01*
X89497122Y-87797998D01*
X97392540Y-87797998D01*
X97412326Y-87986254D01*
X97412327Y-87986257D01*
X97470818Y-88166275D01*
X97470821Y-88166282D01*
X97565467Y-88330214D01*
X97630909Y-88402894D01*
X97692129Y-88470886D01*
X97845265Y-88582146D01*
X97845270Y-88582149D01*
X98018192Y-88659140D01*
X98018197Y-88659142D01*
X98203354Y-88698498D01*
X98203355Y-88698498D01*
X98392644Y-88698498D01*
X98392646Y-88698498D01*
X98577803Y-88659142D01*
X98750730Y-88582149D01*
X98903871Y-88470886D01*
X99030533Y-88330214D01*
X99125179Y-88166282D01*
X99183674Y-87986254D01*
X99203460Y-87797998D01*
X99183674Y-87609742D01*
X99125179Y-87429714D01*
X99034649Y-87272912D01*
X99018177Y-87205013D01*
X99041030Y-87138986D01*
X99054350Y-87123238D01*
X100057588Y-86120000D01*
X113598540Y-86120000D01*
X113618326Y-86308256D01*
X113618327Y-86308259D01*
X113676818Y-86488277D01*
X113676821Y-86488284D01*
X113771467Y-86652216D01*
X113832063Y-86719514D01*
X113898129Y-86792888D01*
X114051265Y-86904148D01*
X114051270Y-86904151D01*
X114224192Y-86981142D01*
X114224197Y-86981144D01*
X114409354Y-87020500D01*
X114468548Y-87020500D01*
X114535587Y-87040185D01*
X114556229Y-87056819D01*
X120954181Y-93454771D01*
X120987666Y-93516094D01*
X120990500Y-93542452D01*
X120990500Y-95073312D01*
X120970815Y-95140351D01*
X120958650Y-95156284D01*
X120883466Y-95239784D01*
X120788821Y-95403715D01*
X120788818Y-95403722D01*
X120731723Y-95579444D01*
X120730326Y-95583744D01*
X120710540Y-95772000D01*
X120730326Y-95960256D01*
X120730327Y-95960259D01*
X120788818Y-96140277D01*
X120788821Y-96140284D01*
X120883467Y-96304216D01*
X120926772Y-96352310D01*
X120958650Y-96387715D01*
X120988880Y-96450706D01*
X120990500Y-96470687D01*
X120990500Y-107627255D01*
X120988775Y-107642872D01*
X120989061Y-107642899D01*
X120988326Y-107650665D01*
X120990500Y-107719814D01*
X120990500Y-107749343D01*
X120990501Y-107749360D01*
X120991368Y-107756231D01*
X120991826Y-107762050D01*
X120993290Y-107808624D01*
X120993291Y-107808627D01*
X120998880Y-107827867D01*
X121002824Y-107846911D01*
X121005336Y-107866791D01*
X121022490Y-107910119D01*
X121024382Y-107915647D01*
X121037381Y-107960388D01*
X121047580Y-107977634D01*
X121056136Y-107995100D01*
X121063514Y-108013732D01*
X121090898Y-108051423D01*
X121094106Y-108056307D01*
X121117827Y-108096416D01*
X121117833Y-108096424D01*
X121131990Y-108110580D01*
X121144628Y-108125376D01*
X121156405Y-108141586D01*
X121156406Y-108141587D01*
X121192309Y-108171288D01*
X121196620Y-108175210D01*
X124709251Y-111687842D01*
X125863761Y-112842352D01*
X125897246Y-112903675D01*
X125895855Y-112962124D01*
X125868937Y-113062589D01*
X125868937Y-113062590D01*
X125848341Y-113297999D01*
X125848341Y-113298000D01*
X125868936Y-113533403D01*
X125868938Y-113533413D01*
X125930094Y-113761655D01*
X125930096Y-113761659D01*
X125930097Y-113761663D01*
X125955695Y-113816557D01*
X126029965Y-113975830D01*
X126029967Y-113975834D01*
X126117833Y-114101318D01*
X126165505Y-114169401D01*
X126332599Y-114336495D01*
X126429384Y-114404265D01*
X126526165Y-114472032D01*
X126526167Y-114472033D01*
X126526170Y-114472035D01*
X126740337Y-114571903D01*
X126968592Y-114633063D01*
X127145034Y-114648500D01*
X127203999Y-114653659D01*
X127204000Y-114653659D01*
X127204001Y-114653659D01*
X127262966Y-114648500D01*
X127439408Y-114633063D01*
X127667663Y-114571903D01*
X127881830Y-114472035D01*
X128075401Y-114336495D01*
X128242495Y-114169401D01*
X128372425Y-113983842D01*
X128427002Y-113940217D01*
X128496500Y-113933023D01*
X128558855Y-113964546D01*
X128575575Y-113983842D01*
X128705500Y-114169395D01*
X128705505Y-114169401D01*
X128872599Y-114336495D01*
X128969384Y-114404265D01*
X129066165Y-114472032D01*
X129066167Y-114472033D01*
X129066170Y-114472035D01*
X129280337Y-114571903D01*
X129508592Y-114633063D01*
X129685034Y-114648500D01*
X129743999Y-114653659D01*
X129744000Y-114653659D01*
X129744001Y-114653659D01*
X129802966Y-114648500D01*
X129979408Y-114633063D01*
X130207663Y-114571903D01*
X130421830Y-114472035D01*
X130615401Y-114336495D01*
X130782495Y-114169401D01*
X130912425Y-113983842D01*
X130967002Y-113940217D01*
X131036500Y-113933023D01*
X131098855Y-113964546D01*
X131115575Y-113983842D01*
X131245500Y-114169395D01*
X131245505Y-114169401D01*
X131412599Y-114336495D01*
X131509384Y-114404265D01*
X131606165Y-114472032D01*
X131606167Y-114472033D01*
X131606170Y-114472035D01*
X131820337Y-114571903D01*
X132048592Y-114633063D01*
X132225034Y-114648500D01*
X132283999Y-114653659D01*
X132284000Y-114653659D01*
X132284001Y-114653659D01*
X132342966Y-114648500D01*
X132519408Y-114633063D01*
X132747663Y-114571903D01*
X132961830Y-114472035D01*
X133155401Y-114336495D01*
X133322495Y-114169401D01*
X133452425Y-113983842D01*
X133507002Y-113940217D01*
X133576500Y-113933023D01*
X133638855Y-113964546D01*
X133655575Y-113983842D01*
X133785500Y-114169395D01*
X133785505Y-114169401D01*
X133952599Y-114336495D01*
X134049384Y-114404265D01*
X134146165Y-114472032D01*
X134146167Y-114472033D01*
X134146170Y-114472035D01*
X134360337Y-114571903D01*
X134588592Y-114633063D01*
X134765034Y-114648500D01*
X134823999Y-114653659D01*
X134824000Y-114653659D01*
X134824001Y-114653659D01*
X134882966Y-114648500D01*
X135059408Y-114633063D01*
X135287663Y-114571903D01*
X135501830Y-114472035D01*
X135695401Y-114336495D01*
X135817329Y-114214566D01*
X135878648Y-114181084D01*
X135948340Y-114186068D01*
X136004274Y-114227939D01*
X136021189Y-114258917D01*
X136070202Y-114390328D01*
X136070206Y-114390335D01*
X136156452Y-114505544D01*
X136156455Y-114505547D01*
X136271664Y-114591793D01*
X136271671Y-114591797D01*
X136406517Y-114642091D01*
X136406516Y-114642091D01*
X136413444Y-114642835D01*
X136466127Y-114648500D01*
X138261872Y-114648499D01*
X138321483Y-114642091D01*
X138456331Y-114591796D01*
X138571546Y-114505546D01*
X138657796Y-114390331D01*
X138708091Y-114255483D01*
X138714500Y-114195873D01*
X138714499Y-112400128D01*
X138708091Y-112340517D01*
X138678019Y-112259891D01*
X138657797Y-112205671D01*
X138657793Y-112205664D01*
X138571547Y-112090455D01*
X138571544Y-112090452D01*
X138456335Y-112004206D01*
X138456328Y-112004202D01*
X138321482Y-111953908D01*
X138321483Y-111953908D01*
X138261883Y-111947501D01*
X138261881Y-111947500D01*
X138261873Y-111947500D01*
X138261865Y-111947500D01*
X136949452Y-111947500D01*
X136882413Y-111927815D01*
X136861771Y-111911181D01*
X130272272Y-105321681D01*
X130238787Y-105260358D01*
X130243771Y-105190666D01*
X130285643Y-105134733D01*
X130351107Y-105110316D01*
X130359953Y-105110000D01*
X130428293Y-105110000D01*
X130673493Y-105069083D01*
X130908603Y-104988369D01*
X130908614Y-104988364D01*
X131127228Y-104870057D01*
X131127231Y-104870055D01*
X131174056Y-104833609D01*
X130475568Y-104135121D01*
X130592458Y-104084349D01*
X130709739Y-103988934D01*
X130796928Y-103865415D01*
X130827354Y-103779802D01*
X131527434Y-104479882D01*
X131627731Y-104326369D01*
X131727587Y-104098717D01*
X131788612Y-103857738D01*
X131788614Y-103857729D01*
X131809141Y-103610005D01*
X135298859Y-103610005D01*
X135319385Y-103857729D01*
X135319387Y-103857738D01*
X135380412Y-104098717D01*
X135480266Y-104326364D01*
X135580564Y-104479882D01*
X136278070Y-103782376D01*
X136280884Y-103795915D01*
X136350442Y-103930156D01*
X136453638Y-104040652D01*
X136582819Y-104119209D01*
X136634002Y-104133549D01*
X135933942Y-104833609D01*
X135980768Y-104870055D01*
X135980770Y-104870056D01*
X136199385Y-104988364D01*
X136199396Y-104988369D01*
X136434506Y-105069083D01*
X136679707Y-105110000D01*
X136928293Y-105110000D01*
X137173493Y-105069083D01*
X137408603Y-104988369D01*
X137408614Y-104988364D01*
X137627228Y-104870057D01*
X137627231Y-104870055D01*
X137674056Y-104833609D01*
X136975568Y-104135121D01*
X137092458Y-104084349D01*
X137209739Y-103988934D01*
X137296928Y-103865415D01*
X137327354Y-103779802D01*
X138027434Y-104479882D01*
X138127731Y-104326369D01*
X138227587Y-104098717D01*
X138288612Y-103857738D01*
X138288614Y-103857729D01*
X138309141Y-103610005D01*
X138309141Y-103609994D01*
X138288614Y-103362270D01*
X138288612Y-103362261D01*
X138227587Y-103121282D01*
X138127731Y-102893630D01*
X138027434Y-102740116D01*
X137329929Y-103437622D01*
X137327116Y-103424085D01*
X137257558Y-103289844D01*
X137154362Y-103179348D01*
X137025181Y-103100791D01*
X136973997Y-103086450D01*
X137674057Y-102386390D01*
X137674056Y-102386389D01*
X137627229Y-102349943D01*
X137408614Y-102231635D01*
X137408603Y-102231630D01*
X137173493Y-102150916D01*
X136928293Y-102110000D01*
X136679707Y-102110000D01*
X136434506Y-102150916D01*
X136199396Y-102231630D01*
X136199390Y-102231632D01*
X135980761Y-102349949D01*
X135933942Y-102386388D01*
X135933942Y-102386390D01*
X136632431Y-103084878D01*
X136515542Y-103135651D01*
X136398261Y-103231066D01*
X136311072Y-103354585D01*
X136280645Y-103440197D01*
X135580564Y-102740116D01*
X135480267Y-102893632D01*
X135380412Y-103121282D01*
X135319387Y-103362261D01*
X135319385Y-103362270D01*
X135298859Y-103609994D01*
X135298859Y-103610005D01*
X131809141Y-103610005D01*
X131809141Y-103609994D01*
X131788614Y-103362270D01*
X131788612Y-103362261D01*
X131727587Y-103121282D01*
X131627731Y-102893630D01*
X131527434Y-102740116D01*
X130829929Y-103437622D01*
X130827116Y-103424085D01*
X130757558Y-103289844D01*
X130654362Y-103179348D01*
X130525181Y-103100791D01*
X130473996Y-103086449D01*
X131174057Y-102386389D01*
X131127229Y-102349943D01*
X130908614Y-102231635D01*
X130908603Y-102231630D01*
X130673493Y-102150916D01*
X130428293Y-102110000D01*
X130179707Y-102110000D01*
X129934506Y-102150916D01*
X129699396Y-102231630D01*
X129699385Y-102231635D01*
X129480771Y-102349942D01*
X129480769Y-102349943D01*
X129354662Y-102448097D01*
X129289668Y-102473739D01*
X129221128Y-102460172D01*
X129170803Y-102411704D01*
X129154500Y-102350243D01*
X129154500Y-100370390D01*
X129174185Y-100303351D01*
X129226989Y-100257596D01*
X129296147Y-100247652D01*
X129354660Y-100272535D01*
X129480491Y-100370474D01*
X129699190Y-100488828D01*
X129934386Y-100569571D01*
X130179665Y-100610500D01*
X130428335Y-100610500D01*
X130673614Y-100569571D01*
X130908810Y-100488828D01*
X131127509Y-100370474D01*
X131323744Y-100217738D01*
X131492164Y-100034785D01*
X131628173Y-99826607D01*
X131728063Y-99598881D01*
X131789108Y-99357821D01*
X131793551Y-99304202D01*
X131809643Y-99110005D01*
X135298357Y-99110005D01*
X135318890Y-99357812D01*
X135318892Y-99357824D01*
X135379936Y-99598881D01*
X135479826Y-99826606D01*
X135615833Y-100034782D01*
X135615836Y-100034785D01*
X135784256Y-100217738D01*
X135980491Y-100370474D01*
X136199190Y-100488828D01*
X136434386Y-100569571D01*
X136679665Y-100610500D01*
X136928335Y-100610500D01*
X137173614Y-100569571D01*
X137408810Y-100488828D01*
X137627509Y-100370474D01*
X137823744Y-100217738D01*
X137992164Y-100034785D01*
X138128173Y-99826607D01*
X138228063Y-99598881D01*
X138289108Y-99357821D01*
X138293551Y-99304202D01*
X138309643Y-99110005D01*
X138309643Y-99109994D01*
X138289109Y-98862187D01*
X138289107Y-98862175D01*
X138228063Y-98621118D01*
X138128173Y-98393393D01*
X137992166Y-98185217D01*
X137953499Y-98143214D01*
X137823744Y-98002262D01*
X137627509Y-97849526D01*
X137627507Y-97849525D01*
X137627506Y-97849524D01*
X137408811Y-97731172D01*
X137408802Y-97731169D01*
X137173616Y-97650429D01*
X136928335Y-97609500D01*
X136679665Y-97609500D01*
X136434383Y-97650429D01*
X136199197Y-97731169D01*
X136199188Y-97731172D01*
X135980493Y-97849524D01*
X135784257Y-98002261D01*
X135615833Y-98185217D01*
X135479826Y-98393393D01*
X135379936Y-98621118D01*
X135318892Y-98862175D01*
X135318890Y-98862187D01*
X135298357Y-99109994D01*
X135298357Y-99110005D01*
X131809643Y-99110005D01*
X131809643Y-99109994D01*
X131789109Y-98862187D01*
X131789107Y-98862175D01*
X131728063Y-98621118D01*
X131628173Y-98393393D01*
X131492166Y-98185217D01*
X131453499Y-98143214D01*
X131323744Y-98002262D01*
X131127509Y-97849526D01*
X131127507Y-97849525D01*
X131127506Y-97849524D01*
X130908811Y-97731172D01*
X130908802Y-97731169D01*
X130673616Y-97650429D01*
X130428335Y-97609500D01*
X130179665Y-97609500D01*
X129934383Y-97650429D01*
X129699197Y-97731169D01*
X129699188Y-97731172D01*
X129480493Y-97849524D01*
X129354662Y-97947463D01*
X129289668Y-97973105D01*
X129221128Y-97959538D01*
X129170803Y-97911070D01*
X129154500Y-97849609D01*
X129154500Y-90811782D01*
X129174185Y-90744743D01*
X129186343Y-90728817D01*
X129201880Y-90711563D01*
X129296526Y-90547631D01*
X129355021Y-90367603D01*
X129374807Y-90179347D01*
X129355021Y-89991091D01*
X129296526Y-89811063D01*
X129201880Y-89647131D01*
X129075218Y-89506459D01*
X129047528Y-89486341D01*
X128922081Y-89395198D01*
X128922076Y-89395195D01*
X128749154Y-89318204D01*
X128749149Y-89318202D01*
X128603348Y-89287212D01*
X128563993Y-89278847D01*
X128374701Y-89278847D01*
X128367075Y-89280468D01*
X128189544Y-89318202D01*
X128189539Y-89318204D01*
X128016617Y-89395195D01*
X128016612Y-89395198D01*
X127863479Y-89506456D01*
X127863476Y-89506458D01*
X127863476Y-89506459D01*
X127852578Y-89518563D01*
X127791650Y-89586230D01*
X127732163Y-89622878D01*
X127662306Y-89621547D01*
X127604258Y-89582660D01*
X127576448Y-89518563D01*
X127575500Y-89503257D01*
X127575500Y-82138742D01*
X127577224Y-82123122D01*
X127576939Y-82123096D01*
X127577671Y-82115340D01*
X127577673Y-82115333D01*
X127575500Y-82046185D01*
X127575500Y-82016650D01*
X127574631Y-82009772D01*
X127574172Y-82003943D01*
X127572709Y-81957372D01*
X127567122Y-81938144D01*
X127563174Y-81919084D01*
X127560663Y-81899204D01*
X127543512Y-81855887D01*
X127541619Y-81850358D01*
X127528618Y-81805609D01*
X127528616Y-81805606D01*
X127518423Y-81788371D01*
X127509861Y-81770894D01*
X127502487Y-81752270D01*
X127502486Y-81752268D01*
X127475079Y-81714545D01*
X127471888Y-81709686D01*
X127468750Y-81704380D01*
X127450364Y-81673290D01*
X127448172Y-81669583D01*
X127448165Y-81669574D01*
X127434006Y-81655415D01*
X127421368Y-81640619D01*
X127413271Y-81629474D01*
X127409594Y-81624413D01*
X127408021Y-81623112D01*
X127373688Y-81594709D01*
X127369376Y-81590786D01*
X124840960Y-79062369D01*
X124807475Y-79001046D01*
X124805323Y-78987668D01*
X124787674Y-78819744D01*
X124729179Y-78639716D01*
X124634533Y-78475784D01*
X124507871Y-78335112D01*
X124507870Y-78335111D01*
X124354734Y-78223851D01*
X124354729Y-78223848D01*
X124181807Y-78146857D01*
X124181802Y-78146855D01*
X124036001Y-78115865D01*
X123996646Y-78107500D01*
X123807354Y-78107500D01*
X123774897Y-78114398D01*
X123622197Y-78146855D01*
X123622192Y-78146857D01*
X123449270Y-78223848D01*
X123449265Y-78223851D01*
X123296129Y-78335111D01*
X123169466Y-78475785D01*
X123074821Y-78639715D01*
X123074818Y-78639722D01*
X123016327Y-78819740D01*
X123016326Y-78819744D01*
X122996540Y-79008000D01*
X123016326Y-79196256D01*
X123016327Y-79196259D01*
X123056079Y-79318604D01*
X123058074Y-79388445D01*
X123021994Y-79448278D01*
X122988585Y-79470201D01*
X122945920Y-79489196D01*
X122792782Y-79600458D01*
X122666119Y-79741132D01*
X122571474Y-79905062D01*
X122571471Y-79905069D01*
X122523622Y-80052334D01*
X122512979Y-80085091D01*
X122493193Y-80273347D01*
X122512979Y-80461603D01*
X122512980Y-80461606D01*
X122571471Y-80641624D01*
X122571474Y-80641631D01*
X122666120Y-80805563D01*
X122704497Y-80848185D01*
X122741303Y-80889062D01*
X122771533Y-80952053D01*
X122773153Y-80972034D01*
X122773153Y-106869908D01*
X122771428Y-106885525D01*
X122771714Y-106885552D01*
X122770979Y-106893318D01*
X122773153Y-106962467D01*
X122773153Y-106991996D01*
X122773154Y-106992013D01*
X122774021Y-106998884D01*
X122774479Y-107004703D01*
X122775943Y-107051277D01*
X122775944Y-107051280D01*
X122781533Y-107070520D01*
X122785477Y-107089564D01*
X122787989Y-107109444D01*
X122805143Y-107152772D01*
X122807035Y-107158300D01*
X122820034Y-107203041D01*
X122830233Y-107220287D01*
X122838791Y-107237756D01*
X122846167Y-107256385D01*
X122873551Y-107294076D01*
X122876759Y-107298960D01*
X122900480Y-107339069D01*
X122900486Y-107339077D01*
X122914643Y-107353233D01*
X122927281Y-107368029D01*
X122939058Y-107384239D01*
X122939059Y-107384240D01*
X122974962Y-107413941D01*
X122979273Y-107417863D01*
X125145375Y-109583965D01*
X127292070Y-111730660D01*
X127325555Y-111791983D01*
X127320571Y-111861675D01*
X127278699Y-111917608D01*
X127213235Y-111942025D01*
X127204389Y-111942341D01*
X127203999Y-111942341D01*
X126968590Y-111962937D01*
X126968589Y-111962937D01*
X126868124Y-111989855D01*
X126798274Y-111988191D01*
X126748352Y-111957761D01*
X122277819Y-107487228D01*
X122244334Y-107425905D01*
X122241500Y-107399547D01*
X122241500Y-96470687D01*
X122261185Y-96403648D01*
X122273350Y-96387715D01*
X122291891Y-96367122D01*
X122348533Y-96304216D01*
X122443179Y-96140284D01*
X122501674Y-95960256D01*
X122521460Y-95772000D01*
X122501674Y-95583744D01*
X122443179Y-95403716D01*
X122348533Y-95239784D01*
X122316070Y-95203730D01*
X122273350Y-95156284D01*
X122243120Y-95093292D01*
X122241500Y-95073312D01*
X122241500Y-93314742D01*
X122243224Y-93299122D01*
X122242939Y-93299096D01*
X122243671Y-93291340D01*
X122243673Y-93291333D01*
X122241500Y-93222185D01*
X122241500Y-93192650D01*
X122240631Y-93185772D01*
X122240172Y-93179943D01*
X122238709Y-93133372D01*
X122233122Y-93114144D01*
X122229174Y-93095084D01*
X122226663Y-93075204D01*
X122209512Y-93031887D01*
X122207619Y-93026358D01*
X122194618Y-92981609D01*
X122194616Y-92981606D01*
X122184423Y-92964371D01*
X122175861Y-92946894D01*
X122168487Y-92928270D01*
X122168486Y-92928268D01*
X122141079Y-92890545D01*
X122137888Y-92885686D01*
X122114172Y-92845583D01*
X122114165Y-92845574D01*
X122100006Y-92831415D01*
X122087368Y-92816619D01*
X122075594Y-92800413D01*
X122039688Y-92770709D01*
X122035376Y-92766786D01*
X115442960Y-86174369D01*
X115409475Y-86113046D01*
X115407323Y-86099668D01*
X115389674Y-85931744D01*
X115331179Y-85751716D01*
X115236533Y-85587784D01*
X115109871Y-85447112D01*
X115078198Y-85424100D01*
X114956734Y-85335851D01*
X114956729Y-85335848D01*
X114783807Y-85258857D01*
X114783802Y-85258855D01*
X114638001Y-85227865D01*
X114598646Y-85219500D01*
X114409354Y-85219500D01*
X114376897Y-85226398D01*
X114224197Y-85258855D01*
X114224192Y-85258857D01*
X114051270Y-85335848D01*
X114051265Y-85335851D01*
X113898129Y-85447111D01*
X113771466Y-85587785D01*
X113676821Y-85751715D01*
X113676818Y-85751722D01*
X113628035Y-85901863D01*
X113618326Y-85931744D01*
X113598540Y-86120000D01*
X100057588Y-86120000D01*
X103219771Y-82957819D01*
X103281094Y-82924334D01*
X103307452Y-82921500D01*
X120658252Y-82921500D01*
X120725291Y-82941185D01*
X120750400Y-82962526D01*
X120756126Y-82968885D01*
X120756130Y-82968889D01*
X120909265Y-83080148D01*
X120909270Y-83080151D01*
X121082192Y-83157142D01*
X121082197Y-83157144D01*
X121267354Y-83196500D01*
X121267355Y-83196500D01*
X121456644Y-83196500D01*
X121456646Y-83196500D01*
X121641803Y-83157144D01*
X121814730Y-83080151D01*
X121967871Y-82968888D01*
X122094533Y-82828216D01*
X122189179Y-82664284D01*
X122247674Y-82484256D01*
X122267460Y-82296000D01*
X122247674Y-82107744D01*
X122189179Y-81927716D01*
X122094533Y-81763784D01*
X121967871Y-81623112D01*
X121967870Y-81623111D01*
X121814734Y-81511851D01*
X121814729Y-81511848D01*
X121641807Y-81434857D01*
X121641802Y-81434855D01*
X121496001Y-81403865D01*
X121456646Y-81395500D01*
X121267354Y-81395500D01*
X121234897Y-81402398D01*
X121082197Y-81434855D01*
X121082192Y-81434857D01*
X120909270Y-81511848D01*
X120909265Y-81511851D01*
X120756130Y-81623110D01*
X120756126Y-81623114D01*
X120750400Y-81629474D01*
X120690913Y-81666121D01*
X120658252Y-81670500D01*
X103079743Y-81670500D01*
X103064122Y-81668775D01*
X103064095Y-81669061D01*
X103056333Y-81668326D01*
X102987172Y-81670500D01*
X102957649Y-81670500D01*
X102950778Y-81671367D01*
X102944959Y-81671825D01*
X102898374Y-81673289D01*
X102898368Y-81673290D01*
X102879126Y-81678880D01*
X102860087Y-81682823D01*
X102840217Y-81685334D01*
X102840203Y-81685337D01*
X102796883Y-81702488D01*
X102791358Y-81704380D01*
X102746613Y-81717380D01*
X102746610Y-81717381D01*
X102729366Y-81727579D01*
X102711905Y-81736133D01*
X102693274Y-81743510D01*
X102693262Y-81743517D01*
X102655570Y-81770902D01*
X102650687Y-81774109D01*
X102610580Y-81797829D01*
X102596414Y-81811995D01*
X102581624Y-81824627D01*
X102565414Y-81836404D01*
X102565411Y-81836407D01*
X102535710Y-81872309D01*
X102531777Y-81876631D01*
X97914208Y-86494199D01*
X97901951Y-86504020D01*
X97902134Y-86504241D01*
X97896123Y-86509213D01*
X97848772Y-86559636D01*
X97827889Y-86580519D01*
X97827877Y-86580532D01*
X97823621Y-86586017D01*
X97819837Y-86590447D01*
X97787937Y-86624418D01*
X97787936Y-86624420D01*
X97778284Y-86641976D01*
X97767610Y-86658226D01*
X97755329Y-86674061D01*
X97755324Y-86674068D01*
X97736815Y-86716838D01*
X97734245Y-86722084D01*
X97711803Y-86762906D01*
X97706822Y-86782307D01*
X97700521Y-86800710D01*
X97692562Y-86819102D01*
X97692561Y-86819105D01*
X97685271Y-86865127D01*
X97684087Y-86870846D01*
X97672501Y-86915972D01*
X97672500Y-86915982D01*
X97672500Y-86936016D01*
X97670973Y-86955415D01*
X97667840Y-86975194D01*
X97667840Y-86975195D01*
X97672225Y-87021583D01*
X97672500Y-87027421D01*
X97672500Y-87099310D01*
X97652815Y-87166349D01*
X97640650Y-87182282D01*
X97565466Y-87265782D01*
X97470821Y-87429713D01*
X97470818Y-87429720D01*
X97414484Y-87603099D01*
X97412326Y-87609742D01*
X97392540Y-87797998D01*
X89497122Y-87797998D01*
X89519739Y-87749496D01*
X89578635Y-87529692D01*
X89598468Y-87303000D01*
X89578635Y-87076308D01*
X89519739Y-86856504D01*
X89423568Y-86650266D01*
X89293047Y-86463861D01*
X89293045Y-86463858D01*
X89132141Y-86302954D01*
X88945734Y-86172432D01*
X88945732Y-86172431D01*
X88756430Y-86084157D01*
X88703991Y-86037984D01*
X88684839Y-85970791D01*
X88705055Y-85903909D01*
X88758221Y-85858575D01*
X88773893Y-85852800D01*
X88853875Y-85829316D01*
X89040682Y-85733011D01*
X89205886Y-85603092D01*
X89343519Y-85444256D01*
X89448604Y-85262244D01*
X89517344Y-85063633D01*
X89547254Y-84855602D01*
X89537254Y-84645670D01*
X89487704Y-84441424D01*
X89469823Y-84402270D01*
X89400401Y-84250256D01*
X89400398Y-84250251D01*
X89400397Y-84250250D01*
X89400396Y-84250247D01*
X89278486Y-84079048D01*
X89278484Y-84079046D01*
X89278479Y-84079040D01*
X89126379Y-83934014D01*
X88949574Y-83820388D01*
X88754455Y-83742274D01*
X88548086Y-83702500D01*
X88548085Y-83702500D01*
X87390575Y-83702500D01*
X87233782Y-83717472D01*
X87233778Y-83717473D01*
X87032127Y-83776683D01*
X86845313Y-83872991D01*
X86680116Y-84002905D01*
X86680112Y-84002909D01*
X86542478Y-84161746D01*
X86437398Y-84343750D01*
X86368656Y-84542365D01*
X86368656Y-84542367D01*
X86351084Y-84664588D01*
X86338746Y-84750401D01*
X86348745Y-84960327D01*
X86398296Y-85164578D01*
X86398298Y-85164582D01*
X86485598Y-85355743D01*
X86485601Y-85355748D01*
X86485602Y-85355750D01*
X86485604Y-85355753D01*
X86576976Y-85484067D01*
X86607515Y-85526953D01*
X86607520Y-85526959D01*
X86759620Y-85671985D01*
X86854578Y-85733011D01*
X86936428Y-85785613D01*
X87118930Y-85858675D01*
X87173848Y-85901863D01*
X87196701Y-85967890D01*
X87180228Y-86035790D01*
X87129662Y-86084006D01*
X87125246Y-86086173D01*
X86940267Y-86172431D01*
X86940265Y-86172432D01*
X86753858Y-86302954D01*
X86592954Y-86463858D01*
X86462432Y-86650265D01*
X86462431Y-86650267D01*
X86366261Y-86856502D01*
X86366258Y-86856511D01*
X86307366Y-87076302D01*
X86307364Y-87076313D01*
X86287532Y-87302998D01*
X86287532Y-87303001D01*
X78443500Y-87303001D01*
X78443500Y-84756685D01*
X79588740Y-84756685D01*
X79598755Y-84941406D01*
X79598755Y-84941411D01*
X79648244Y-85119656D01*
X79648247Y-85119662D01*
X79734898Y-85283102D01*
X79797540Y-85356850D01*
X79854663Y-85424100D01*
X80001936Y-85536054D01*
X80169833Y-85613732D01*
X80169834Y-85613732D01*
X80169836Y-85613733D01*
X80224648Y-85625797D01*
X80350503Y-85653500D01*
X80350506Y-85653500D01*
X80489107Y-85653500D01*
X80489113Y-85653500D01*
X80626910Y-85638514D01*
X80802221Y-85579444D01*
X80960736Y-85484070D01*
X81095041Y-85356849D01*
X81198858Y-85203730D01*
X81267331Y-85031875D01*
X81297260Y-84849317D01*
X81292238Y-84756685D01*
X82088740Y-84756685D01*
X82098755Y-84941406D01*
X82098755Y-84941411D01*
X82148244Y-85119656D01*
X82148247Y-85119662D01*
X82234898Y-85283102D01*
X82297540Y-85356850D01*
X82354663Y-85424100D01*
X82501936Y-85536054D01*
X82669833Y-85613732D01*
X82669834Y-85613732D01*
X82669836Y-85613733D01*
X82724648Y-85625797D01*
X82850503Y-85653500D01*
X82850506Y-85653500D01*
X82989107Y-85653500D01*
X82989113Y-85653500D01*
X83126910Y-85638514D01*
X83302221Y-85579444D01*
X83460736Y-85484070D01*
X83595041Y-85356849D01*
X83698858Y-85203730D01*
X83767331Y-85031875D01*
X83797260Y-84849317D01*
X83787245Y-84664593D01*
X83753310Y-84542368D01*
X83737755Y-84486343D01*
X83737752Y-84486337D01*
X83651101Y-84322897D01*
X83531337Y-84181900D01*
X83452449Y-84121931D01*
X83384064Y-84069946D01*
X83216167Y-83992268D01*
X83216163Y-83992266D01*
X83035497Y-83952500D01*
X82896887Y-83952500D01*
X82896883Y-83952500D01*
X82759088Y-83967486D01*
X82583776Y-84026557D01*
X82583774Y-84026558D01*
X82425262Y-84121931D01*
X82425261Y-84121932D01*
X82290959Y-84249149D01*
X82187138Y-84402276D01*
X82118669Y-84574122D01*
X82118669Y-84574125D01*
X82089771Y-84750398D01*
X82088740Y-84756685D01*
X81292238Y-84756685D01*
X81287245Y-84664593D01*
X81253310Y-84542368D01*
X81237755Y-84486343D01*
X81237752Y-84486337D01*
X81151101Y-84322897D01*
X81031337Y-84181900D01*
X80952449Y-84121931D01*
X80884064Y-84069946D01*
X80716167Y-83992268D01*
X80716163Y-83992266D01*
X80535497Y-83952500D01*
X80396887Y-83952500D01*
X80396883Y-83952500D01*
X80259088Y-83967486D01*
X80083776Y-84026557D01*
X80083774Y-84026558D01*
X79925262Y-84121931D01*
X79925261Y-84121932D01*
X79790959Y-84249149D01*
X79687138Y-84402276D01*
X79618669Y-84574122D01*
X79618669Y-84574125D01*
X79589771Y-84750398D01*
X79588740Y-84756685D01*
X78443500Y-84756685D01*
X78443500Y-83278284D01*
X78443493Y-83278249D01*
X78443445Y-83080151D01*
X78441865Y-76487370D01*
X86197500Y-76487370D01*
X86197501Y-76487376D01*
X86203908Y-76546983D01*
X86254202Y-76681828D01*
X86254206Y-76681835D01*
X86340452Y-76797044D01*
X86340455Y-76797047D01*
X86455664Y-76883293D01*
X86455671Y-76883297D01*
X86500618Y-76900061D01*
X86590517Y-76933591D01*
X86650127Y-76940000D01*
X86923501Y-76939999D01*
X86990539Y-76959683D01*
X87036294Y-77012487D01*
X87047500Y-77063999D01*
X87047500Y-77769373D01*
X87045973Y-77788772D01*
X87043781Y-77802611D01*
X87047415Y-77871956D01*
X87047500Y-77875201D01*
X87047500Y-77897189D01*
X87049797Y-77919059D01*
X87050051Y-77922290D01*
X87053686Y-77991643D01*
X87053688Y-77991653D01*
X87057315Y-78005189D01*
X87060860Y-78024314D01*
X87062325Y-78038249D01*
X87062326Y-78038256D01*
X87062328Y-78038262D01*
X87083784Y-78104298D01*
X87084705Y-78107409D01*
X87102679Y-78174486D01*
X87102684Y-78174498D01*
X87109043Y-78186978D01*
X87116488Y-78204949D01*
X87120821Y-78218284D01*
X87124034Y-78223849D01*
X87155537Y-78278414D01*
X87157085Y-78281266D01*
X87172945Y-78312391D01*
X87188617Y-78343149D01*
X87188619Y-78343151D01*
X87188620Y-78343153D01*
X87197438Y-78354043D01*
X87208454Y-78370070D01*
X87215465Y-78382213D01*
X87215470Y-78382220D01*
X87261939Y-78433831D01*
X87264043Y-78436295D01*
X87277882Y-78453382D01*
X87293423Y-78468922D01*
X87295657Y-78471277D01*
X87342128Y-78522887D01*
X87353468Y-78531126D01*
X87368265Y-78543764D01*
X89332236Y-80507736D01*
X89344871Y-80522529D01*
X89353110Y-80533869D01*
X89353112Y-80533871D01*
X89404730Y-80580348D01*
X89407068Y-80582568D01*
X89422620Y-80598120D01*
X89439716Y-80611964D01*
X89442168Y-80614058D01*
X89464887Y-80634514D01*
X89493784Y-80660533D01*
X89501633Y-80665065D01*
X89505920Y-80667540D01*
X89521952Y-80678557D01*
X89532851Y-80687383D01*
X89594714Y-80718903D01*
X89597569Y-80720453D01*
X89657707Y-80755174D01*
X89657712Y-80755177D01*
X89657713Y-80755177D01*
X89657716Y-80755179D01*
X89671050Y-80759511D01*
X89689022Y-80766956D01*
X89701512Y-80773320D01*
X89701514Y-80773320D01*
X89701515Y-80773321D01*
X89719928Y-80778254D01*
X89768601Y-80791296D01*
X89771682Y-80792209D01*
X89837744Y-80813674D01*
X89851688Y-80815139D01*
X89870814Y-80818685D01*
X89880441Y-80821264D01*
X89884355Y-80822313D01*
X89953720Y-80825947D01*
X89956935Y-80826200D01*
X89978808Y-80828500D01*
X90000798Y-80828500D01*
X90004041Y-80828584D01*
X90073388Y-80832219D01*
X90087228Y-80830027D01*
X90106627Y-80828500D01*
X99692831Y-80828500D01*
X99759870Y-80848185D01*
X99790683Y-80876336D01*
X99846262Y-80947744D01*
X100005744Y-81094557D01*
X100029217Y-81116166D01*
X100237393Y-81252173D01*
X100465118Y-81352063D01*
X100636647Y-81395500D01*
X100706179Y-81413108D01*
X100706181Y-81413108D01*
X100706186Y-81413109D01*
X100839376Y-81424145D01*
X100891933Y-81428500D01*
X100891935Y-81428500D01*
X102716065Y-81428500D01*
X102716067Y-81428500D01*
X102777284Y-81423427D01*
X102901813Y-81413109D01*
X102901816Y-81413108D01*
X102901821Y-81413108D01*
X103142881Y-81352063D01*
X103370607Y-81252173D01*
X103578785Y-81116164D01*
X103761738Y-80947744D01*
X103914474Y-80751509D01*
X104032828Y-80532810D01*
X104113571Y-80297614D01*
X104154500Y-80052335D01*
X104154500Y-79803665D01*
X104113571Y-79558386D01*
X104032828Y-79323190D01*
X103914474Y-79104491D01*
X103761738Y-78908256D01*
X103578785Y-78739836D01*
X103578782Y-78739833D01*
X103370606Y-78603826D01*
X103142881Y-78503936D01*
X102901824Y-78442892D01*
X102901812Y-78442890D01*
X102818260Y-78435967D01*
X102753075Y-78410814D01*
X102711837Y-78354411D01*
X102704500Y-78312391D01*
X102704500Y-74157979D01*
X102724185Y-74090940D01*
X102776989Y-74045185D01*
X102778651Y-74044440D01*
X102920607Y-73982173D01*
X103128785Y-73846164D01*
X103311738Y-73677744D01*
X103464474Y-73481509D01*
X103582828Y-73262810D01*
X103663571Y-73027614D01*
X103704500Y-72782335D01*
X103704500Y-72533665D01*
X103663571Y-72288386D01*
X103582828Y-72053190D01*
X103464474Y-71834491D01*
X103311738Y-71638256D01*
X103137768Y-71478105D01*
X103128782Y-71469833D01*
X102920606Y-71333826D01*
X102692881Y-71233936D01*
X102451824Y-71172892D01*
X102451813Y-71172890D01*
X102286548Y-71159197D01*
X102266067Y-71157500D01*
X101341933Y-71157500D01*
X101322521Y-71159108D01*
X101156186Y-71172890D01*
X101156175Y-71172892D01*
X100915118Y-71233936D01*
X100687393Y-71333826D01*
X100479217Y-71469833D01*
X100296261Y-71638257D01*
X100143524Y-71834493D01*
X100025172Y-72053188D01*
X100025169Y-72053197D01*
X99944429Y-72288383D01*
X99903500Y-72533665D01*
X99903500Y-72782334D01*
X99944429Y-73027616D01*
X100025169Y-73262802D01*
X100025172Y-73262811D01*
X100143524Y-73481506D01*
X100143526Y-73481509D01*
X100296262Y-73677744D01*
X100399892Y-73773142D01*
X100479217Y-73846166D01*
X100639898Y-73951143D01*
X100687393Y-73982173D01*
X100829310Y-74044423D01*
X100882796Y-74089379D01*
X100903486Y-74156115D01*
X100903500Y-74157979D01*
X100903500Y-78312391D01*
X100883815Y-78379430D01*
X100831011Y-78425185D01*
X100789740Y-78435967D01*
X100706187Y-78442890D01*
X100706175Y-78442892D01*
X100465118Y-78503936D01*
X100237393Y-78603826D01*
X100029217Y-78739833D01*
X99846261Y-78908257D01*
X99790685Y-78979662D01*
X99733974Y-79020475D01*
X99692831Y-79027500D01*
X90450362Y-79027500D01*
X90383323Y-79007815D01*
X90362681Y-78991181D01*
X88884819Y-77513319D01*
X88851334Y-77451996D01*
X88848500Y-77425638D01*
X88848500Y-77063999D01*
X88868185Y-76996960D01*
X88920989Y-76951205D01*
X88972500Y-76939999D01*
X89245871Y-76939999D01*
X89245872Y-76939999D01*
X89305483Y-76933591D01*
X89440331Y-76883296D01*
X89555546Y-76797046D01*
X89641796Y-76681831D01*
X89692091Y-76546983D01*
X89698500Y-76487373D01*
X89698499Y-73891628D01*
X89692091Y-73832017D01*
X89685267Y-73813722D01*
X89641797Y-73697171D01*
X89641793Y-73697164D01*
X89555547Y-73581955D01*
X89555544Y-73581952D01*
X89440335Y-73495706D01*
X89440328Y-73495702D01*
X89305482Y-73445408D01*
X89305483Y-73445408D01*
X89245883Y-73439001D01*
X89245881Y-73439000D01*
X89245873Y-73439000D01*
X89245864Y-73439000D01*
X86650129Y-73439000D01*
X86650123Y-73439001D01*
X86590516Y-73445408D01*
X86455671Y-73495702D01*
X86455664Y-73495706D01*
X86340455Y-73581952D01*
X86340452Y-73581955D01*
X86254206Y-73697164D01*
X86254202Y-73697171D01*
X86203908Y-73832017D01*
X86197501Y-73891616D01*
X86197501Y-73891623D01*
X86197500Y-73891635D01*
X86197500Y-76487370D01*
X78441865Y-76487370D01*
X78441411Y-74595054D01*
X78441074Y-73189504D01*
X80192592Y-73189504D01*
X80212196Y-73451120D01*
X80212197Y-73451125D01*
X80270576Y-73706902D01*
X80270578Y-73706911D01*
X80270580Y-73706916D01*
X80366432Y-73951143D01*
X80497614Y-74178357D01*
X80603792Y-74311500D01*
X80661198Y-74383485D01*
X80840959Y-74550277D01*
X80853521Y-74561933D01*
X81070296Y-74709728D01*
X81070301Y-74709730D01*
X81070302Y-74709731D01*
X81070303Y-74709732D01*
X81164130Y-74754916D01*
X81306673Y-74823561D01*
X81306674Y-74823561D01*
X81306677Y-74823563D01*
X81557385Y-74900896D01*
X81816818Y-74940000D01*
X82079182Y-74940000D01*
X82338615Y-74900896D01*
X82589323Y-74823563D01*
X82816833Y-74714000D01*
X82825696Y-74709732D01*
X82825696Y-74709731D01*
X82825704Y-74709728D01*
X83042479Y-74561933D01*
X83234805Y-74383481D01*
X83398386Y-74178357D01*
X83529568Y-73951143D01*
X83625420Y-73706916D01*
X83683802Y-73451130D01*
X83684320Y-73444216D01*
X83703408Y-73189504D01*
X92192592Y-73189504D01*
X92212196Y-73451120D01*
X92212197Y-73451125D01*
X92270576Y-73706902D01*
X92270578Y-73706911D01*
X92270580Y-73706916D01*
X92366432Y-73951143D01*
X92497614Y-74178357D01*
X92603792Y-74311500D01*
X92661198Y-74383485D01*
X92840959Y-74550277D01*
X92853521Y-74561933D01*
X93070296Y-74709728D01*
X93070301Y-74709730D01*
X93070302Y-74709731D01*
X93070303Y-74709732D01*
X93164130Y-74754916D01*
X93306673Y-74823561D01*
X93306674Y-74823561D01*
X93306677Y-74823563D01*
X93557385Y-74900896D01*
X93816818Y-74940000D01*
X94079182Y-74940000D01*
X94338615Y-74900896D01*
X94589323Y-74823563D01*
X94816833Y-74714000D01*
X94825696Y-74709732D01*
X94825696Y-74709731D01*
X94825704Y-74709728D01*
X95042479Y-74561933D01*
X95234805Y-74383481D01*
X95398386Y-74178357D01*
X95529568Y-73951143D01*
X95625420Y-73706916D01*
X95683802Y-73451130D01*
X95684320Y-73444216D01*
X95703408Y-73189504D01*
X95703408Y-73189495D01*
X95683803Y-72927879D01*
X95683802Y-72927874D01*
X95683802Y-72927870D01*
X95625420Y-72672084D01*
X95529568Y-72427857D01*
X95398386Y-72200643D01*
X95234805Y-71995519D01*
X95234804Y-71995518D01*
X95234801Y-71995514D01*
X95042479Y-71817067D01*
X94825704Y-71669272D01*
X94825700Y-71669270D01*
X94825697Y-71669268D01*
X94825696Y-71669267D01*
X94589325Y-71555438D01*
X94589327Y-71555438D01*
X94338623Y-71478106D01*
X94338619Y-71478105D01*
X94338615Y-71478104D01*
X94213823Y-71459294D01*
X94079187Y-71439000D01*
X94079182Y-71439000D01*
X93816818Y-71439000D01*
X93816812Y-71439000D01*
X93655247Y-71463353D01*
X93557385Y-71478104D01*
X93557382Y-71478105D01*
X93557376Y-71478106D01*
X93306673Y-71555438D01*
X93070303Y-71669267D01*
X93070302Y-71669268D01*
X92853520Y-71817067D01*
X92661198Y-71995514D01*
X92497614Y-72200643D01*
X92366432Y-72427856D01*
X92270582Y-72672078D01*
X92270576Y-72672097D01*
X92212197Y-72927874D01*
X92212196Y-72927879D01*
X92192592Y-73189495D01*
X92192592Y-73189504D01*
X83703408Y-73189504D01*
X83703408Y-73189495D01*
X83683803Y-72927879D01*
X83683802Y-72927874D01*
X83683802Y-72927870D01*
X83625420Y-72672084D01*
X83529568Y-72427857D01*
X83398386Y-72200643D01*
X83234805Y-71995519D01*
X83234804Y-71995518D01*
X83234801Y-71995514D01*
X83042479Y-71817067D01*
X82825704Y-71669272D01*
X82825700Y-71669270D01*
X82825697Y-71669268D01*
X82825696Y-71669267D01*
X82589325Y-71555438D01*
X82589327Y-71555438D01*
X82338623Y-71478106D01*
X82338619Y-71478105D01*
X82338615Y-71478104D01*
X82213823Y-71459294D01*
X82079187Y-71439000D01*
X82079182Y-71439000D01*
X81816818Y-71439000D01*
X81816812Y-71439000D01*
X81655247Y-71463353D01*
X81557385Y-71478104D01*
X81557382Y-71478105D01*
X81557376Y-71478106D01*
X81306673Y-71555438D01*
X81070303Y-71669267D01*
X81070302Y-71669268D01*
X80853520Y-71817067D01*
X80661198Y-71995514D01*
X80497614Y-72200643D01*
X80366432Y-72427856D01*
X80270582Y-72672078D01*
X80270576Y-72672097D01*
X80212197Y-72927874D01*
X80212196Y-72927879D01*
X80192592Y-73189495D01*
X80192592Y-73189504D01*
X78441074Y-73189504D01*
X78438148Y-60989504D01*
X80192592Y-60989504D01*
X80212196Y-61251120D01*
X80212197Y-61251125D01*
X80270576Y-61506902D01*
X80270578Y-61506911D01*
X80270580Y-61506916D01*
X80366432Y-61751143D01*
X80497614Y-61978357D01*
X80629736Y-62144033D01*
X80661198Y-62183485D01*
X80842753Y-62351941D01*
X80853521Y-62361933D01*
X81070296Y-62509728D01*
X81070301Y-62509730D01*
X81070302Y-62509731D01*
X81070303Y-62509732D01*
X81195843Y-62570188D01*
X81306673Y-62623561D01*
X81306674Y-62623561D01*
X81306677Y-62623563D01*
X81557385Y-62700896D01*
X81816818Y-62740000D01*
X82079182Y-62740000D01*
X82338615Y-62700896D01*
X82589323Y-62623563D01*
X82794832Y-62524595D01*
X82825696Y-62509732D01*
X82825696Y-62509731D01*
X82825704Y-62509728D01*
X83042479Y-62361933D01*
X83234805Y-62183481D01*
X83398386Y-61978357D01*
X83529568Y-61751143D01*
X83625420Y-61506916D01*
X83683802Y-61251130D01*
X83703041Y-60994396D01*
X83703408Y-60989504D01*
X92192592Y-60989504D01*
X92212196Y-61251120D01*
X92212197Y-61251125D01*
X92270576Y-61506902D01*
X92270578Y-61506911D01*
X92270580Y-61506916D01*
X92366432Y-61751143D01*
X92497614Y-61978357D01*
X92629736Y-62144033D01*
X92661198Y-62183485D01*
X92842753Y-62351941D01*
X92853521Y-62361933D01*
X93070296Y-62509728D01*
X93070301Y-62509730D01*
X93070302Y-62509731D01*
X93070303Y-62509732D01*
X93195843Y-62570188D01*
X93306673Y-62623561D01*
X93306674Y-62623561D01*
X93306677Y-62623563D01*
X93557385Y-62700896D01*
X93816818Y-62740000D01*
X94079182Y-62740000D01*
X94338615Y-62700896D01*
X94589323Y-62623563D01*
X94794832Y-62524595D01*
X94825696Y-62509732D01*
X94825696Y-62509731D01*
X94825704Y-62509728D01*
X95042479Y-62361933D01*
X95234805Y-62183481D01*
X95398386Y-61978357D01*
X95529568Y-61751143D01*
X95625420Y-61506916D01*
X95683802Y-61251130D01*
X95703041Y-60994396D01*
X95703408Y-60989504D01*
X95703408Y-60989495D01*
X95683803Y-60727879D01*
X95683802Y-60727874D01*
X95683802Y-60727870D01*
X95625420Y-60472084D01*
X95529568Y-60227857D01*
X95398386Y-60000643D01*
X95234805Y-59795519D01*
X95234804Y-59795518D01*
X95234801Y-59795514D01*
X95042479Y-59617067D01*
X95020148Y-59601842D01*
X94825704Y-59469272D01*
X94825700Y-59469270D01*
X94825697Y-59469268D01*
X94825696Y-59469267D01*
X94589325Y-59355438D01*
X94589327Y-59355438D01*
X94338623Y-59278106D01*
X94338619Y-59278105D01*
X94338615Y-59278104D01*
X94213823Y-59259294D01*
X94079187Y-59239000D01*
X94079182Y-59239000D01*
X93816818Y-59239000D01*
X93816812Y-59239000D01*
X93655247Y-59263353D01*
X93557385Y-59278104D01*
X93557382Y-59278105D01*
X93557376Y-59278106D01*
X93306673Y-59355438D01*
X93070303Y-59469267D01*
X93070302Y-59469268D01*
X92853520Y-59617067D01*
X92661198Y-59795514D01*
X92497614Y-60000643D01*
X92366432Y-60227856D01*
X92270582Y-60472078D01*
X92270576Y-60472097D01*
X92212197Y-60727874D01*
X92212196Y-60727879D01*
X92192592Y-60989495D01*
X92192592Y-60989504D01*
X83703408Y-60989504D01*
X83703408Y-60989495D01*
X83683803Y-60727879D01*
X83683802Y-60727874D01*
X83683802Y-60727870D01*
X83625420Y-60472084D01*
X83529568Y-60227857D01*
X83398386Y-60000643D01*
X83234805Y-59795519D01*
X83234804Y-59795518D01*
X83234801Y-59795514D01*
X83042479Y-59617067D01*
X83020148Y-59601842D01*
X82825704Y-59469272D01*
X82825700Y-59469270D01*
X82825697Y-59469268D01*
X82825696Y-59469267D01*
X82589325Y-59355438D01*
X82589327Y-59355438D01*
X82338623Y-59278106D01*
X82338619Y-59278105D01*
X82338615Y-59278104D01*
X82213823Y-59259294D01*
X82079187Y-59239000D01*
X82079182Y-59239000D01*
X81816818Y-59239000D01*
X81816812Y-59239000D01*
X81655247Y-59263353D01*
X81557385Y-59278104D01*
X81557382Y-59278105D01*
X81557376Y-59278106D01*
X81306673Y-59355438D01*
X81070303Y-59469267D01*
X81070302Y-59469268D01*
X80853520Y-59617067D01*
X80661198Y-59795514D01*
X80497614Y-60000643D01*
X80366432Y-60227856D01*
X80270582Y-60472078D01*
X80270576Y-60472097D01*
X80212197Y-60727874D01*
X80212196Y-60727879D01*
X80192592Y-60989495D01*
X80192592Y-60989504D01*
X78438148Y-60989504D01*
X78436892Y-55749966D01*
X99453500Y-55749966D01*
X99453501Y-56866032D01*
X99453501Y-56866033D01*
X99464113Y-56985415D01*
X99520089Y-57181045D01*
X99520090Y-57181048D01*
X99520091Y-57181049D01*
X99614302Y-57361407D01*
X99614304Y-57361409D01*
X99742890Y-57519109D01*
X99836803Y-57595684D01*
X99900593Y-57647698D01*
X100080951Y-57741909D01*
X100276582Y-57797886D01*
X100395963Y-57808500D01*
X100395964Y-57808499D01*
X100395965Y-57808500D01*
X100395966Y-57808500D01*
X100395975Y-57808499D01*
X100779500Y-57808499D01*
X100846539Y-57828183D01*
X100892294Y-57880987D01*
X100903500Y-57932499D01*
X100903500Y-61958920D01*
X100883815Y-62025959D01*
X100831011Y-62071714D01*
X100790481Y-62082433D01*
X100726584Y-62088113D01*
X100530954Y-62144089D01*
X100455535Y-62183485D01*
X100350593Y-62238302D01*
X100350591Y-62238303D01*
X100350590Y-62238304D01*
X100192890Y-62366890D01*
X100064304Y-62524590D01*
X99970089Y-62704954D01*
X99925332Y-62861376D01*
X99915765Y-62894814D01*
X99914114Y-62900583D01*
X99914113Y-62900586D01*
X99909856Y-62948469D01*
X99903829Y-63016269D01*
X99903500Y-63019965D01*
X99903500Y-63019966D01*
X99903501Y-64136032D01*
X99903501Y-64136033D01*
X99914113Y-64255415D01*
X99970089Y-64451045D01*
X99970090Y-64451048D01*
X99970091Y-64451049D01*
X100064302Y-64631407D01*
X100064304Y-64631409D01*
X100192890Y-64789109D01*
X100272048Y-64853653D01*
X100350593Y-64917698D01*
X100530951Y-65011909D01*
X100726582Y-65067886D01*
X100845963Y-65078500D01*
X100845964Y-65078499D01*
X100845965Y-65078500D01*
X100845966Y-65078500D01*
X101667137Y-65078499D01*
X102762036Y-65078499D01*
X102881418Y-65067886D01*
X103077049Y-65011909D01*
X103257407Y-64917698D01*
X103415109Y-64789109D01*
X103543698Y-64631407D01*
X103574791Y-64571883D01*
X103588788Y-64545088D01*
X103637275Y-64494781D01*
X103698696Y-64478500D01*
X104999639Y-64478500D01*
X105066678Y-64498185D01*
X105087320Y-64514819D01*
X108741181Y-68168680D01*
X108774666Y-68230003D01*
X108777500Y-68256361D01*
X108777500Y-74589500D01*
X108757815Y-74656539D01*
X108705011Y-74702294D01*
X108653501Y-74713500D01*
X108548453Y-74713500D01*
X108548446Y-74713501D01*
X108488839Y-74719908D01*
X108353994Y-74770202D01*
X108353987Y-74770206D01*
X108238778Y-74856452D01*
X108238775Y-74856455D01*
X108152529Y-74971664D01*
X108152525Y-74971671D01*
X108102231Y-75106517D01*
X108095824Y-75166116D01*
X108095824Y-75166123D01*
X108095823Y-75166135D01*
X108095823Y-77261870D01*
X108095824Y-77261876D01*
X108102231Y-77321483D01*
X108152525Y-77456328D01*
X108152529Y-77456335D01*
X108238775Y-77571544D01*
X108238778Y-77571547D01*
X108353987Y-77657793D01*
X108353994Y-77657797D01*
X108488840Y-77708091D01*
X108488839Y-77708091D01*
X108495767Y-77708835D01*
X108548450Y-77714500D01*
X110644195Y-77714499D01*
X110703806Y-77708091D01*
X110838654Y-77657796D01*
X110953869Y-77571546D01*
X111040119Y-77456331D01*
X111090414Y-77321483D01*
X111096823Y-77261873D01*
X111096823Y-76214005D01*
X113091182Y-76214005D01*
X113111708Y-76461729D01*
X113111710Y-76461738D01*
X113172735Y-76702717D01*
X113272589Y-76930364D01*
X113372887Y-77083882D01*
X114113246Y-76343523D01*
X114136830Y-76423844D01*
X114214562Y-76544798D01*
X114323223Y-76638952D01*
X114454008Y-76698680D01*
X114463789Y-76700086D01*
X113726265Y-77437609D01*
X113773091Y-77474055D01*
X113773093Y-77474056D01*
X113991708Y-77592364D01*
X113991719Y-77592369D01*
X114226829Y-77673083D01*
X114472030Y-77714000D01*
X114720616Y-77714000D01*
X114965816Y-77673083D01*
X115200926Y-77592369D01*
X115200937Y-77592364D01*
X115419551Y-77474057D01*
X115419554Y-77474055D01*
X115466379Y-77437609D01*
X114728856Y-76700086D01*
X114738638Y-76698680D01*
X114869423Y-76638952D01*
X114978084Y-76544798D01*
X115055816Y-76423844D01*
X115079399Y-76343524D01*
X115819757Y-77083882D01*
X115920054Y-76930369D01*
X116019910Y-76702717D01*
X116080935Y-76461738D01*
X116080937Y-76461729D01*
X116101464Y-76214005D01*
X116101464Y-76213994D01*
X116080937Y-75966270D01*
X116080935Y-75966261D01*
X116019910Y-75725282D01*
X115920054Y-75497630D01*
X115819757Y-75344116D01*
X115079399Y-76084475D01*
X115055816Y-76004156D01*
X114978084Y-75883202D01*
X114869423Y-75789048D01*
X114738638Y-75729320D01*
X114728857Y-75727913D01*
X115466380Y-74990390D01*
X115466379Y-74990389D01*
X115419552Y-74953943D01*
X115200937Y-74835635D01*
X115200926Y-74835630D01*
X114965816Y-74754916D01*
X114720616Y-74714000D01*
X114472030Y-74714000D01*
X114226829Y-74754916D01*
X113991719Y-74835630D01*
X113991713Y-74835632D01*
X113773084Y-74953949D01*
X113726265Y-74990388D01*
X113726265Y-74990390D01*
X114463789Y-75727913D01*
X114454008Y-75729320D01*
X114323223Y-75789048D01*
X114214562Y-75883202D01*
X114136830Y-76004156D01*
X114113246Y-76084475D01*
X113372887Y-75344116D01*
X113272590Y-75497632D01*
X113172735Y-75725282D01*
X113111710Y-75966261D01*
X113111708Y-75966270D01*
X113091182Y-76213994D01*
X113091182Y-76214005D01*
X111096823Y-76214005D01*
X111096822Y-75166128D01*
X111090414Y-75106517D01*
X111081456Y-75082500D01*
X111040120Y-74971671D01*
X111040116Y-74971664D01*
X110953870Y-74856455D01*
X110953867Y-74856452D01*
X110838658Y-74770206D01*
X110838651Y-74770202D01*
X110703806Y-74719908D01*
X110689243Y-74718343D01*
X110624693Y-74691605D01*
X110584845Y-74634212D01*
X110578500Y-74595054D01*
X110578500Y-74182000D01*
X126806540Y-74182000D01*
X126826326Y-74370256D01*
X126826327Y-74370259D01*
X126884818Y-74550277D01*
X126884821Y-74550284D01*
X126979467Y-74714216D01*
X127106129Y-74854888D01*
X127259265Y-74966148D01*
X127259270Y-74966151D01*
X127432192Y-75043142D01*
X127432197Y-75043144D01*
X127617354Y-75082500D01*
X127617355Y-75082500D01*
X127806644Y-75082500D01*
X127806646Y-75082500D01*
X127991803Y-75043144D01*
X128164730Y-74966151D01*
X128317871Y-74854888D01*
X128444533Y-74714216D01*
X128539179Y-74550284D01*
X128597674Y-74370256D01*
X128617460Y-74182000D01*
X128597674Y-73993744D01*
X128539179Y-73813716D01*
X128444533Y-73649784D01*
X128369350Y-73566284D01*
X128339120Y-73503292D01*
X128337500Y-73483312D01*
X128337500Y-72912000D01*
X134426540Y-72912000D01*
X134446326Y-73100256D01*
X134446327Y-73100259D01*
X134504818Y-73280277D01*
X134504821Y-73280284D01*
X134599467Y-73444216D01*
X134677529Y-73530912D01*
X134726129Y-73584888D01*
X134879265Y-73696148D01*
X134879270Y-73696151D01*
X135052192Y-73773142D01*
X135052197Y-73773144D01*
X135237354Y-73812500D01*
X135237355Y-73812500D01*
X135426644Y-73812500D01*
X135426646Y-73812500D01*
X135611803Y-73773144D01*
X135784730Y-73696151D01*
X135937871Y-73584888D01*
X136064533Y-73444216D01*
X136159179Y-73280284D01*
X136217674Y-73100256D01*
X136237460Y-72912000D01*
X136217674Y-72723744D01*
X136159179Y-72543716D01*
X136064533Y-72379784D01*
X135989350Y-72296284D01*
X135959120Y-72233292D01*
X135957500Y-72213312D01*
X135957500Y-71070687D01*
X135977185Y-71003648D01*
X135989350Y-70987715D01*
X136007891Y-70967122D01*
X136064533Y-70904216D01*
X136159179Y-70740284D01*
X136217674Y-70560256D01*
X136237460Y-70372000D01*
X136217674Y-70183744D01*
X136159179Y-70003716D01*
X136064533Y-69839784D01*
X135937871Y-69699112D01*
X135937870Y-69699111D01*
X135784734Y-69587851D01*
X135784729Y-69587848D01*
X135611807Y-69510857D01*
X135611802Y-69510855D01*
X135466001Y-69479865D01*
X135426646Y-69471500D01*
X135237354Y-69471500D01*
X135204897Y-69478398D01*
X135052197Y-69510855D01*
X135052192Y-69510857D01*
X134879270Y-69587848D01*
X134879265Y-69587851D01*
X134726129Y-69699111D01*
X134599466Y-69839785D01*
X134504821Y-70003715D01*
X134504818Y-70003722D01*
X134460169Y-70141139D01*
X134446326Y-70183744D01*
X134426540Y-70372000D01*
X134446326Y-70560256D01*
X134446327Y-70560259D01*
X134504818Y-70740277D01*
X134504821Y-70740284D01*
X134599467Y-70904216D01*
X134642772Y-70952310D01*
X134674650Y-70987715D01*
X134704880Y-71050706D01*
X134706500Y-71070687D01*
X134706500Y-72213312D01*
X134686815Y-72280351D01*
X134674650Y-72296284D01*
X134599466Y-72379784D01*
X134504821Y-72543715D01*
X134504818Y-72543722D01*
X134463113Y-72672078D01*
X134446326Y-72723744D01*
X134426540Y-72912000D01*
X128337500Y-72912000D01*
X128337500Y-69666458D01*
X128357185Y-69599419D01*
X128373819Y-69578777D01*
X129691778Y-68260819D01*
X129753101Y-68227334D01*
X129779459Y-68224500D01*
X129838650Y-68224500D01*
X129838652Y-68224500D01*
X130023809Y-68185144D01*
X130196736Y-68108151D01*
X130349877Y-67996888D01*
X130476539Y-67856216D01*
X130571185Y-67692284D01*
X130629680Y-67512256D01*
X130649466Y-67324000D01*
X130629680Y-67135744D01*
X130571185Y-66955716D01*
X130476539Y-66791784D01*
X130349877Y-66651112D01*
X130349876Y-66651111D01*
X130196740Y-66539851D01*
X130196735Y-66539848D01*
X130023813Y-66462857D01*
X130023808Y-66462855D01*
X129878007Y-66431865D01*
X129838652Y-66423500D01*
X129649360Y-66423500D01*
X129616903Y-66430398D01*
X129464203Y-66462855D01*
X129464198Y-66462857D01*
X129291276Y-66539848D01*
X129291271Y-66539851D01*
X129138135Y-66651111D01*
X129011472Y-66791785D01*
X128916827Y-66955715D01*
X128916824Y-66955722D01*
X128858333Y-67135740D01*
X128858332Y-67135744D01*
X128841091Y-67299783D01*
X128840685Y-67303649D01*
X128814100Y-67368263D01*
X128805045Y-67378368D01*
X127328208Y-68855205D01*
X127315951Y-68865026D01*
X127316134Y-68865247D01*
X127310123Y-68870219D01*
X127262772Y-68920642D01*
X127241889Y-68941525D01*
X127241877Y-68941538D01*
X127237621Y-68947023D01*
X127233837Y-68951453D01*
X127201937Y-68985424D01*
X127201936Y-68985426D01*
X127192284Y-69002982D01*
X127181610Y-69019232D01*
X127169329Y-69035067D01*
X127169324Y-69035074D01*
X127150815Y-69077844D01*
X127148245Y-69083090D01*
X127125803Y-69123912D01*
X127120822Y-69143313D01*
X127114521Y-69161716D01*
X127106562Y-69180108D01*
X127106561Y-69180111D01*
X127099271Y-69226133D01*
X127098087Y-69231852D01*
X127086501Y-69276978D01*
X127086500Y-69276988D01*
X127086500Y-69297022D01*
X127084973Y-69316421D01*
X127081840Y-69336200D01*
X127081840Y-69336201D01*
X127086225Y-69382589D01*
X127086500Y-69388427D01*
X127086500Y-73483312D01*
X127066815Y-73550351D01*
X127054650Y-73566284D01*
X126979466Y-73649784D01*
X126884821Y-73813715D01*
X126884818Y-73813722D01*
X126826327Y-73993740D01*
X126826326Y-73993744D01*
X126806540Y-74182000D01*
X110578500Y-74182000D01*
X110578500Y-67912626D01*
X110580027Y-67893225D01*
X110582219Y-67879388D01*
X110578585Y-67810047D01*
X110578500Y-67806802D01*
X110578500Y-67784813D01*
X110578500Y-67784808D01*
X110576199Y-67762921D01*
X110575946Y-67759711D01*
X110572312Y-67690354D01*
X110572311Y-67690348D01*
X110568687Y-67676825D01*
X110565139Y-67657684D01*
X110563674Y-67643748D01*
X110563674Y-67643747D01*
X110563674Y-67643744D01*
X110542214Y-67577699D01*
X110541291Y-67574585D01*
X110523320Y-67507512D01*
X110516954Y-67495019D01*
X110509508Y-67477042D01*
X110505178Y-67463714D01*
X110505175Y-67463707D01*
X110481670Y-67422998D01*
X110470443Y-67403552D01*
X110468920Y-67400747D01*
X110437383Y-67338851D01*
X110437382Y-67338849D01*
X110428560Y-67327955D01*
X110417538Y-67311918D01*
X110410532Y-67299783D01*
X110410531Y-67299781D01*
X110364060Y-67248170D01*
X110361952Y-67245702D01*
X110348118Y-67228619D01*
X110332577Y-67213078D01*
X110330341Y-67210722D01*
X110283872Y-67159113D01*
X110283871Y-67159112D01*
X110272525Y-67150869D01*
X110257734Y-67138235D01*
X106117764Y-62998265D01*
X106105126Y-62983468D01*
X106104921Y-62983186D01*
X106096888Y-62972129D01*
X106095160Y-62970573D01*
X106045277Y-62925657D01*
X106042922Y-62923423D01*
X106027382Y-62907882D01*
X106010295Y-62894043D01*
X106007831Y-62891939D01*
X105956220Y-62845470D01*
X105956213Y-62845465D01*
X105944070Y-62838454D01*
X105928043Y-62827438D01*
X105917153Y-62818620D01*
X105917151Y-62818619D01*
X105917149Y-62818617D01*
X105885037Y-62802255D01*
X105855266Y-62787085D01*
X105852414Y-62785537D01*
X105792282Y-62750820D01*
X105778949Y-62746488D01*
X105760978Y-62739043D01*
X105748498Y-62732684D01*
X105748486Y-62732679D01*
X105681409Y-62714705D01*
X105678309Y-62713787D01*
X105612256Y-62692326D01*
X105612251Y-62692325D01*
X105612249Y-62692325D01*
X105598314Y-62690860D01*
X105579189Y-62687315D01*
X105565653Y-62683688D01*
X105565643Y-62683686D01*
X105496290Y-62680051D01*
X105493059Y-62679797D01*
X105478537Y-62678271D01*
X105471192Y-62677500D01*
X105471189Y-62677500D01*
X105449203Y-62677500D01*
X105445959Y-62677415D01*
X105376612Y-62673781D01*
X105376611Y-62673781D01*
X105362772Y-62675973D01*
X105343373Y-62677500D01*
X103698696Y-62677500D01*
X103631657Y-62657815D01*
X103588788Y-62610912D01*
X103543699Y-62524595D01*
X103543698Y-62524593D01*
X103472864Y-62437723D01*
X103415109Y-62366890D01*
X103257409Y-62238304D01*
X103257410Y-62238304D01*
X103257407Y-62238302D01*
X103077049Y-62144091D01*
X103077048Y-62144090D01*
X103077045Y-62144089D01*
X102959829Y-62110550D01*
X102881418Y-62088114D01*
X102881415Y-62088113D01*
X102881413Y-62088113D01*
X102832621Y-62083775D01*
X102817518Y-62082432D01*
X102752486Y-62056889D01*
X102711587Y-62000240D01*
X102704500Y-61958920D01*
X102704500Y-60211004D01*
X107641953Y-60211004D01*
X107662113Y-60480026D01*
X107662113Y-60480028D01*
X107722142Y-60743033D01*
X107722148Y-60743052D01*
X107820709Y-60994181D01*
X107820708Y-60994181D01*
X107955602Y-61227822D01*
X108009294Y-61295151D01*
X108844452Y-60459992D01*
X108854188Y-60489956D01*
X108942186Y-60628619D01*
X109061903Y-60741040D01*
X109196510Y-60815041D01*
X108361848Y-61649702D01*
X108544483Y-61774220D01*
X108544485Y-61774221D01*
X108787539Y-61891269D01*
X108787537Y-61891269D01*
X109045337Y-61970790D01*
X109045343Y-61970792D01*
X109312101Y-62010999D01*
X109312110Y-62011000D01*
X109581890Y-62011000D01*
X109581898Y-62010999D01*
X109848656Y-61970792D01*
X109848662Y-61970790D01*
X110106461Y-61891269D01*
X110349521Y-61774218D01*
X110532150Y-61649702D01*
X109694534Y-60812086D01*
X109762629Y-60785126D01*
X109895492Y-60688595D01*
X110000175Y-60562055D01*
X110048631Y-60459079D01*
X110884703Y-61295151D01*
X110884704Y-61295150D01*
X110938393Y-61227828D01*
X110938400Y-61227817D01*
X111073290Y-60994181D01*
X111171851Y-60743052D01*
X111171857Y-60743033D01*
X111231886Y-60480028D01*
X111231886Y-60480026D01*
X111252047Y-60211004D01*
X112641451Y-60211004D01*
X112661616Y-60480101D01*
X112721664Y-60743188D01*
X112721666Y-60743195D01*
X112818334Y-60989500D01*
X112820257Y-60994398D01*
X112955185Y-61228102D01*
X113008655Y-61295151D01*
X113123442Y-61439089D01*
X113310183Y-61612358D01*
X113321259Y-61622635D01*
X113544226Y-61774651D01*
X113544231Y-61774653D01*
X113544232Y-61774654D01*
X113544233Y-61774655D01*
X113679311Y-61839705D01*
X113751301Y-61874373D01*
X113803161Y-61921195D01*
X113821500Y-61986093D01*
X113821500Y-62802255D01*
X113819775Y-62817872D01*
X113820061Y-62817899D01*
X113819326Y-62825665D01*
X113821500Y-62894814D01*
X113821500Y-62924343D01*
X113821501Y-62924360D01*
X113822368Y-62931231D01*
X113822826Y-62937050D01*
X113824290Y-62983624D01*
X113824291Y-62983627D01*
X113829880Y-63002867D01*
X113833824Y-63021911D01*
X113836336Y-63041792D01*
X113848570Y-63072693D01*
X113853490Y-63085119D01*
X113855382Y-63090647D01*
X113868381Y-63135388D01*
X113878580Y-63152634D01*
X113887138Y-63170103D01*
X113894514Y-63188732D01*
X113921898Y-63226423D01*
X113925106Y-63231307D01*
X113948827Y-63271416D01*
X113948833Y-63271424D01*
X113962990Y-63285580D01*
X113975627Y-63300375D01*
X113987406Y-63316587D01*
X114009829Y-63335137D01*
X114023309Y-63346288D01*
X114027620Y-63350210D01*
X118862551Y-68185142D01*
X120473038Y-69795629D01*
X120506523Y-69856952D01*
X120508678Y-69870348D01*
X120510942Y-69891886D01*
X120526326Y-70038256D01*
X120526327Y-70038258D01*
X120526327Y-70038259D01*
X120584818Y-70218277D01*
X120584821Y-70218284D01*
X120679467Y-70382216D01*
X120806129Y-70522888D01*
X120959265Y-70634148D01*
X120959270Y-70634151D01*
X121132192Y-70711142D01*
X121132197Y-70711144D01*
X121317354Y-70750500D01*
X121317355Y-70750500D01*
X121506644Y-70750500D01*
X121506646Y-70750500D01*
X121691803Y-70711144D01*
X121864730Y-70634151D01*
X122017871Y-70522888D01*
X122144533Y-70382216D01*
X122239179Y-70218284D01*
X122297674Y-70038256D01*
X122300466Y-70011684D01*
X122327047Y-69947073D01*
X122384344Y-69907087D01*
X122454163Y-69904425D01*
X122511467Y-69936966D01*
X122535422Y-69960921D01*
X122537643Y-69963260D01*
X122573953Y-70003587D01*
X122581248Y-70011689D01*
X122584129Y-70014888D01*
X122603363Y-70028862D01*
X122640314Y-70055708D01*
X122642861Y-70057662D01*
X122677030Y-70085332D01*
X122696844Y-70101378D01*
X122696853Y-70101384D01*
X122709339Y-70107746D01*
X122725929Y-70117912D01*
X122736073Y-70125281D01*
X122737270Y-70126151D01*
X122791756Y-70150410D01*
X122800700Y-70154392D01*
X122803621Y-70155785D01*
X122865512Y-70187320D01*
X122879049Y-70190947D01*
X122897394Y-70197444D01*
X122910191Y-70203142D01*
X122910193Y-70203142D01*
X122910197Y-70203144D01*
X122978149Y-70217587D01*
X122981254Y-70218332D01*
X123048354Y-70236312D01*
X123062348Y-70237045D01*
X123081637Y-70239584D01*
X123095354Y-70242500D01*
X123164803Y-70242500D01*
X123168046Y-70242584D01*
X123237388Y-70246219D01*
X123251228Y-70244027D01*
X123270627Y-70242500D01*
X123284644Y-70242500D01*
X123284646Y-70242500D01*
X123352594Y-70228056D01*
X123355754Y-70227470D01*
X123424350Y-70216607D01*
X123437426Y-70211587D01*
X123456084Y-70206060D01*
X123457953Y-70205662D01*
X123469803Y-70203144D01*
X123533255Y-70174891D01*
X123536216Y-70173664D01*
X123601070Y-70148771D01*
X123612827Y-70141135D01*
X123629924Y-70131852D01*
X123642730Y-70126151D01*
X123698941Y-70085310D01*
X123701563Y-70083508D01*
X123759825Y-70045674D01*
X123769731Y-70035766D01*
X123784529Y-70023127D01*
X123795871Y-70014888D01*
X123842357Y-69963258D01*
X123844539Y-69960958D01*
X123893674Y-69911825D01*
X123901308Y-69900068D01*
X123913153Y-69884631D01*
X123922533Y-69874216D01*
X123957267Y-69814052D01*
X123958953Y-69811304D01*
X123969132Y-69795629D01*
X123996771Y-69753070D01*
X124001790Y-69739992D01*
X124010169Y-69722422D01*
X124017179Y-69710284D01*
X124038643Y-69644220D01*
X124039718Y-69641186D01*
X124055751Y-69599419D01*
X124064607Y-69576350D01*
X124066800Y-69562500D01*
X124071341Y-69543590D01*
X124075674Y-69530256D01*
X124082936Y-69461158D01*
X124083353Y-69457989D01*
X124094219Y-69389388D01*
X124093862Y-69382589D01*
X124093485Y-69375392D01*
X124093995Y-69355933D01*
X124095460Y-69342000D01*
X124088199Y-69272917D01*
X124087947Y-69269716D01*
X124084312Y-69200354D01*
X124080685Y-69186818D01*
X124077139Y-69167684D01*
X124075675Y-69153750D01*
X124075674Y-69153747D01*
X124075674Y-69153744D01*
X124054214Y-69087699D01*
X124053291Y-69084585D01*
X124035320Y-69017512D01*
X124028954Y-69005019D01*
X124021508Y-68987042D01*
X124020982Y-68985424D01*
X124017179Y-68973716D01*
X124017178Y-68973714D01*
X124017175Y-68973707D01*
X123986536Y-68920642D01*
X123982443Y-68913552D01*
X123980920Y-68910747D01*
X123949383Y-68848851D01*
X123949382Y-68848849D01*
X123940560Y-68837955D01*
X123929538Y-68821918D01*
X123922533Y-68809784D01*
X123922531Y-68809782D01*
X123922531Y-68809781D01*
X123876060Y-68758170D01*
X123873952Y-68755702D01*
X123860118Y-68738619D01*
X123844577Y-68723078D01*
X123842341Y-68720722D01*
X123795872Y-68669113D01*
X123795871Y-68669112D01*
X123784525Y-68660869D01*
X123769734Y-68648235D01*
X123089170Y-67967671D01*
X123055685Y-67906348D01*
X123052851Y-67879990D01*
X123052851Y-64800149D01*
X123072536Y-64733110D01*
X123125340Y-64687355D01*
X123176851Y-64676149D01*
X139232047Y-64676149D01*
X139299086Y-64695834D01*
X139304918Y-64699820D01*
X139350738Y-64733110D01*
X139354314Y-64735708D01*
X139356861Y-64737662D01*
X139388765Y-64763498D01*
X139410844Y-64781378D01*
X139410853Y-64781384D01*
X139423339Y-64787746D01*
X139439929Y-64797912D01*
X139450073Y-64805281D01*
X139451270Y-64806151D01*
X139502078Y-64828772D01*
X139514700Y-64834392D01*
X139517621Y-64835785D01*
X139579512Y-64867320D01*
X139593049Y-64870947D01*
X139611394Y-64877444D01*
X139624191Y-64883142D01*
X139624197Y-64883144D01*
X139692120Y-64897581D01*
X139695269Y-64898337D01*
X139762355Y-64916313D01*
X139776352Y-64917046D01*
X139795640Y-64919585D01*
X139809354Y-64922500D01*
X139878798Y-64922500D01*
X139882041Y-64922584D01*
X139951388Y-64926219D01*
X139965228Y-64924027D01*
X139984627Y-64922500D01*
X139998644Y-64922500D01*
X139998646Y-64922500D01*
X140066594Y-64908056D01*
X140069754Y-64907470D01*
X140138350Y-64896607D01*
X140151426Y-64891587D01*
X140170084Y-64886060D01*
X140172708Y-64885501D01*
X140183803Y-64883144D01*
X140247254Y-64854891D01*
X140250247Y-64853653D01*
X140256732Y-64851163D01*
X140315070Y-64828771D01*
X140326830Y-64821133D01*
X140343929Y-64811850D01*
X140356730Y-64806151D01*
X140412904Y-64765338D01*
X140415555Y-64763514D01*
X140473825Y-64725675D01*
X140483737Y-64715761D01*
X140498533Y-64703124D01*
X140509871Y-64694888D01*
X140556348Y-64643268D01*
X140558549Y-64640949D01*
X140607675Y-64591825D01*
X140615307Y-64580070D01*
X140627154Y-64564632D01*
X140636533Y-64554216D01*
X140671264Y-64494057D01*
X140672941Y-64491321D01*
X140710771Y-64433070D01*
X140715790Y-64419992D01*
X140724169Y-64402422D01*
X140731179Y-64390284D01*
X140752643Y-64324220D01*
X140753718Y-64321186D01*
X140778607Y-64256350D01*
X140780800Y-64242500D01*
X140785341Y-64223590D01*
X140789674Y-64210256D01*
X140796936Y-64141158D01*
X140797353Y-64137989D01*
X140808219Y-64069388D01*
X140807485Y-64055390D01*
X140807995Y-64035932D01*
X140809460Y-64022000D01*
X140802200Y-63952931D01*
X140801947Y-63949722D01*
X140798313Y-63880355D01*
X140794685Y-63866814D01*
X140791139Y-63847688D01*
X140789674Y-63833744D01*
X140768209Y-63767682D01*
X140767296Y-63764601D01*
X140749320Y-63697512D01*
X140742956Y-63685022D01*
X140735511Y-63667050D01*
X140731179Y-63653716D01*
X140731177Y-63653712D01*
X140731175Y-63653707D01*
X140707670Y-63612998D01*
X140696443Y-63593552D01*
X140694920Y-63590747D01*
X140663383Y-63528851D01*
X140663382Y-63528849D01*
X140654560Y-63517955D01*
X140643538Y-63501918D01*
X140636533Y-63489784D01*
X140636531Y-63489782D01*
X140636531Y-63489781D01*
X140590060Y-63438170D01*
X140587952Y-63435702D01*
X140574118Y-63418619D01*
X140558577Y-63403078D01*
X140556341Y-63400722D01*
X140509872Y-63349113D01*
X140509871Y-63349112D01*
X140498525Y-63340869D01*
X140483734Y-63328235D01*
X140351413Y-63195914D01*
X140338775Y-63181117D01*
X140330536Y-63169777D01*
X140278926Y-63123306D01*
X140276571Y-63121072D01*
X140261031Y-63105531D01*
X140243944Y-63091692D01*
X140241480Y-63089588D01*
X140189869Y-63043119D01*
X140189862Y-63043114D01*
X140177719Y-63036103D01*
X140161692Y-63025087D01*
X140150802Y-63016269D01*
X140150800Y-63016268D01*
X140150798Y-63016266D01*
X140131908Y-63006641D01*
X140088915Y-62984734D01*
X140086063Y-62983186D01*
X140025931Y-62948469D01*
X140012598Y-62944137D01*
X139994627Y-62936692D01*
X139982147Y-62930333D01*
X139982135Y-62930328D01*
X139915058Y-62912354D01*
X139911958Y-62911436D01*
X139845905Y-62889975D01*
X139845900Y-62889974D01*
X139845898Y-62889974D01*
X139831963Y-62888509D01*
X139812838Y-62884964D01*
X139799302Y-62881337D01*
X139799292Y-62881335D01*
X139729939Y-62877700D01*
X139726708Y-62877446D01*
X139712186Y-62875920D01*
X139704841Y-62875149D01*
X139704838Y-62875149D01*
X139682852Y-62875149D01*
X139679608Y-62875064D01*
X139610261Y-62871430D01*
X139610260Y-62871430D01*
X139596421Y-62873622D01*
X139577022Y-62875149D01*
X122057702Y-62875149D01*
X122014470Y-62884337D01*
X122008061Y-62885352D01*
X121964094Y-62889974D01*
X121922056Y-62903634D01*
X121915785Y-62905314D01*
X121872546Y-62914505D01*
X121832166Y-62932483D01*
X121826106Y-62934809D01*
X121784070Y-62948468D01*
X121745781Y-62970573D01*
X121739998Y-62973520D01*
X121699618Y-62991499D01*
X121663863Y-63017475D01*
X121658420Y-63021010D01*
X121620139Y-63043112D01*
X121620136Y-63043114D01*
X121587286Y-63072693D01*
X121582240Y-63076779D01*
X121546476Y-63102764D01*
X121516901Y-63135609D01*
X121512311Y-63140199D01*
X121479466Y-63169774D01*
X121453481Y-63205538D01*
X121449395Y-63210584D01*
X121419816Y-63243434D01*
X121419814Y-63243437D01*
X121397712Y-63281718D01*
X121394177Y-63287161D01*
X121368201Y-63322916D01*
X121350222Y-63363296D01*
X121347275Y-63369079D01*
X121325170Y-63407368D01*
X121311511Y-63449404D01*
X121309185Y-63455464D01*
X121291207Y-63495844D01*
X121282016Y-63539083D01*
X121280336Y-63545354D01*
X121266676Y-63587392D01*
X121262054Y-63631359D01*
X121261039Y-63637768D01*
X121251851Y-63681000D01*
X121251851Y-63725202D01*
X121251511Y-63731686D01*
X121246891Y-63775648D01*
X121251511Y-63819609D01*
X121251851Y-63826094D01*
X121251851Y-68223724D01*
X121250324Y-68243123D01*
X121248132Y-68256962D01*
X121251766Y-68326307D01*
X121251851Y-68329552D01*
X121251851Y-68351540D01*
X121254148Y-68373410D01*
X121254402Y-68376641D01*
X121258037Y-68445994D01*
X121258039Y-68446004D01*
X121261666Y-68459540D01*
X121265211Y-68478665D01*
X121266676Y-68492600D01*
X121268029Y-68498965D01*
X121265228Y-68499560D01*
X121266444Y-68557224D01*
X121229917Y-68616785D01*
X121166987Y-68647143D01*
X121097634Y-68638659D01*
X121059076Y-68612485D01*
X115108819Y-62662228D01*
X115075334Y-62600905D01*
X115072500Y-62574547D01*
X115072500Y-61986093D01*
X115092185Y-61919054D01*
X115142697Y-61874373D01*
X115349775Y-61774651D01*
X115572741Y-61622635D01*
X115770561Y-61439085D01*
X115938815Y-61228102D01*
X116073743Y-60994398D01*
X116172334Y-60743195D01*
X116232383Y-60480103D01*
X116249466Y-60252138D01*
X116252549Y-60211004D01*
X117641451Y-60211004D01*
X117661616Y-60480101D01*
X117721664Y-60743188D01*
X117721666Y-60743195D01*
X117818334Y-60989500D01*
X117820257Y-60994398D01*
X117955185Y-61228102D01*
X118008655Y-61295151D01*
X118123442Y-61439089D01*
X118310183Y-61612358D01*
X118321259Y-61622635D01*
X118544226Y-61774651D01*
X118787359Y-61891738D01*
X119045228Y-61971280D01*
X119045229Y-61971280D01*
X119045232Y-61971281D01*
X119312063Y-62011499D01*
X119312068Y-62011499D01*
X119312071Y-62011500D01*
X119312072Y-62011500D01*
X119581928Y-62011500D01*
X119581929Y-62011500D01*
X119581936Y-62011499D01*
X119848767Y-61971281D01*
X119848768Y-61971280D01*
X119848772Y-61971280D01*
X120106641Y-61891738D01*
X120349775Y-61774651D01*
X120572741Y-61622635D01*
X120770561Y-61439085D01*
X120938815Y-61228102D01*
X121073743Y-60994398D01*
X121172334Y-60743195D01*
X121232383Y-60480103D01*
X121249466Y-60252138D01*
X121252549Y-60211004D01*
X121252549Y-60210995D01*
X121232389Y-59941973D01*
X121232383Y-59941897D01*
X121172334Y-59678805D01*
X121073743Y-59427602D01*
X120938815Y-59193898D01*
X120770561Y-58982915D01*
X120770560Y-58982914D01*
X120770557Y-58982910D01*
X120572741Y-58799365D01*
X120533038Y-58772296D01*
X120349775Y-58647349D01*
X120349769Y-58647346D01*
X120349768Y-58647345D01*
X120349767Y-58647344D01*
X120106643Y-58530263D01*
X120106645Y-58530263D01*
X119848773Y-58450720D01*
X119848767Y-58450718D01*
X119581936Y-58410500D01*
X119581929Y-58410500D01*
X119312071Y-58410500D01*
X119312063Y-58410500D01*
X119045232Y-58450718D01*
X119045226Y-58450720D01*
X118787358Y-58530262D01*
X118544230Y-58647346D01*
X118321258Y-58799365D01*
X118123442Y-58982910D01*
X117955185Y-59193898D01*
X117820258Y-59427599D01*
X117820256Y-59427603D01*
X117721666Y-59678804D01*
X117721664Y-59678811D01*
X117661616Y-59941898D01*
X117641451Y-60210995D01*
X117641451Y-60211004D01*
X116252549Y-60211004D01*
X116252549Y-60210995D01*
X116232389Y-59941973D01*
X116232383Y-59941897D01*
X116172334Y-59678805D01*
X116073743Y-59427602D01*
X115938815Y-59193898D01*
X115770561Y-58982915D01*
X115770560Y-58982914D01*
X115770557Y-58982910D01*
X115572741Y-58799365D01*
X115533038Y-58772296D01*
X115349775Y-58647349D01*
X115349769Y-58647346D01*
X115349768Y-58647345D01*
X115349767Y-58647344D01*
X115106643Y-58530263D01*
X115106645Y-58530263D01*
X114848773Y-58450720D01*
X114848767Y-58450718D01*
X114581936Y-58410500D01*
X114581929Y-58410500D01*
X114312071Y-58410500D01*
X114312063Y-58410500D01*
X114045232Y-58450718D01*
X114045226Y-58450720D01*
X113787358Y-58530262D01*
X113544230Y-58647346D01*
X113321258Y-58799365D01*
X113123442Y-58982910D01*
X112955185Y-59193898D01*
X112820258Y-59427599D01*
X112820256Y-59427603D01*
X112721666Y-59678804D01*
X112721664Y-59678811D01*
X112661616Y-59941898D01*
X112641451Y-60210995D01*
X112641451Y-60211004D01*
X111252047Y-60211004D01*
X111252047Y-60210995D01*
X111231886Y-59941973D01*
X111231886Y-59941971D01*
X111171857Y-59678966D01*
X111171851Y-59678947D01*
X111073290Y-59427818D01*
X111073291Y-59427818D01*
X110938397Y-59194177D01*
X110884704Y-59126847D01*
X110049546Y-59962004D01*
X110039812Y-59932044D01*
X109951814Y-59793381D01*
X109832097Y-59680960D01*
X109697489Y-59606958D01*
X110532150Y-58772296D01*
X110349517Y-58647779D01*
X110349516Y-58647778D01*
X110106460Y-58530730D01*
X110106462Y-58530730D01*
X109848662Y-58451209D01*
X109848656Y-58451207D01*
X109581898Y-58411000D01*
X109312101Y-58411000D01*
X109045343Y-58451207D01*
X109045337Y-58451209D01*
X108787538Y-58530730D01*
X108544485Y-58647778D01*
X108544476Y-58647783D01*
X108361848Y-58772296D01*
X109199465Y-59609913D01*
X109131371Y-59636874D01*
X108998508Y-59733405D01*
X108893825Y-59859945D01*
X108845368Y-59962921D01*
X108009295Y-59126848D01*
X107955600Y-59194180D01*
X107820709Y-59427818D01*
X107722148Y-59678947D01*
X107722142Y-59678966D01*
X107662113Y-59941971D01*
X107662113Y-59941973D01*
X107641953Y-60210995D01*
X107641953Y-60211004D01*
X102704500Y-60211004D01*
X102704500Y-57932499D01*
X102724185Y-57865460D01*
X102776989Y-57819705D01*
X102828500Y-57808499D01*
X103212033Y-57808499D01*
X103212036Y-57808499D01*
X103331418Y-57797886D01*
X103527049Y-57741909D01*
X103707407Y-57647698D01*
X103865109Y-57519109D01*
X103993698Y-57361407D01*
X104014043Y-57322457D01*
X104038788Y-57275088D01*
X104087275Y-57224781D01*
X104148696Y-57208500D01*
X120119639Y-57208500D01*
X120186678Y-57228185D01*
X120207320Y-57244819D01*
X122610181Y-59647681D01*
X122643666Y-59709004D01*
X122646500Y-59735362D01*
X122646500Y-61558870D01*
X122646501Y-61558876D01*
X122652908Y-61618483D01*
X122703202Y-61753328D01*
X122703206Y-61753335D01*
X122789452Y-61868544D01*
X122789455Y-61868547D01*
X122904664Y-61954793D01*
X122904671Y-61954797D01*
X123039517Y-62005091D01*
X123039516Y-62005091D01*
X123046444Y-62005835D01*
X123099127Y-62011500D01*
X125794872Y-62011499D01*
X125854483Y-62005091D01*
X125989331Y-61954796D01*
X126104546Y-61868546D01*
X126190796Y-61753331D01*
X126241091Y-61618483D01*
X126247500Y-61558873D01*
X126247499Y-58863128D01*
X126241091Y-58803517D01*
X126239542Y-58799365D01*
X126190797Y-58668671D01*
X126190793Y-58668664D01*
X126104547Y-58553455D01*
X126104544Y-58553452D01*
X125989335Y-58467206D01*
X125989328Y-58467202D01*
X125854482Y-58416908D01*
X125854483Y-58416908D01*
X125794883Y-58410501D01*
X125794881Y-58410500D01*
X125794873Y-58410500D01*
X125794865Y-58410500D01*
X123971362Y-58410500D01*
X123904323Y-58390815D01*
X123883681Y-58374181D01*
X123689500Y-58180000D01*
X136386473Y-58180000D01*
X136406563Y-58512136D01*
X136406563Y-58512141D01*
X136406564Y-58512142D01*
X136466544Y-58839441D01*
X136466545Y-58839445D01*
X136466546Y-58839449D01*
X136565530Y-59157104D01*
X136565534Y-59157116D01*
X136565537Y-59157123D01*
X136702102Y-59460557D01*
X136874246Y-59745318D01*
X136874251Y-59745326D01*
X137079460Y-60007255D01*
X137314744Y-60242539D01*
X137576673Y-60447748D01*
X137576678Y-60447751D01*
X137576682Y-60447754D01*
X137861443Y-60619898D01*
X138164877Y-60756463D01*
X138164890Y-60756467D01*
X138164895Y-60756469D01*
X138256860Y-60785126D01*
X138482559Y-60855456D01*
X138809858Y-60915436D01*
X138987740Y-60926196D01*
X139058892Y-60930500D01*
X139058894Y-60930500D01*
X139225108Y-60930500D01*
X139287365Y-60926734D01*
X139474142Y-60915436D01*
X139801441Y-60855456D01*
X140119123Y-60756463D01*
X140422557Y-60619898D01*
X140707318Y-60447754D01*
X140969252Y-60242542D01*
X141204542Y-60007252D01*
X141409754Y-59745318D01*
X141581898Y-59460557D01*
X141718463Y-59157123D01*
X141817456Y-58839441D01*
X141877436Y-58512142D01*
X141897527Y-58180000D01*
X141877436Y-57847858D01*
X141817456Y-57520559D01*
X141731533Y-57244819D01*
X141718469Y-57202895D01*
X141718467Y-57202890D01*
X141718463Y-57202877D01*
X141581898Y-56899443D01*
X141409754Y-56614682D01*
X141409751Y-56614678D01*
X141409748Y-56614673D01*
X141204539Y-56352744D01*
X140969255Y-56117460D01*
X140707326Y-55912251D01*
X140707318Y-55912246D01*
X140422557Y-55740102D01*
X140119123Y-55603537D01*
X140119116Y-55603534D01*
X140119104Y-55603530D01*
X139801449Y-55504546D01*
X139801445Y-55504545D01*
X139801441Y-55504544D01*
X139474142Y-55444564D01*
X139474141Y-55444563D01*
X139474136Y-55444563D01*
X139225108Y-55429500D01*
X139225106Y-55429500D01*
X139058894Y-55429500D01*
X139058892Y-55429500D01*
X138809863Y-55444563D01*
X138746786Y-55456122D01*
X138482559Y-55504544D01*
X138482556Y-55504544D01*
X138482550Y-55504546D01*
X138164895Y-55603530D01*
X138164879Y-55603536D01*
X138164877Y-55603537D01*
X137971656Y-55690498D01*
X137861447Y-55740100D01*
X137861445Y-55740101D01*
X137576673Y-55912251D01*
X137314744Y-56117460D01*
X137079460Y-56352744D01*
X136874251Y-56614673D01*
X136702101Y-56899445D01*
X136702100Y-56899447D01*
X136565536Y-57202880D01*
X136565530Y-57202895D01*
X136466546Y-57520550D01*
X136466544Y-57520556D01*
X136466544Y-57520559D01*
X136443245Y-57647698D01*
X136406563Y-57847863D01*
X136386473Y-58180000D01*
X123689500Y-58180000D01*
X121237764Y-55728265D01*
X121225126Y-55713468D01*
X121216887Y-55702128D01*
X121165277Y-55655657D01*
X121162922Y-55653423D01*
X121147382Y-55637882D01*
X121130295Y-55624043D01*
X121127831Y-55621939D01*
X121076220Y-55575470D01*
X121076213Y-55575465D01*
X121064070Y-55568454D01*
X121048043Y-55557438D01*
X121037153Y-55548620D01*
X121037151Y-55548619D01*
X121037149Y-55548617D01*
X121018259Y-55538992D01*
X120975266Y-55517085D01*
X120972414Y-55515537D01*
X120912282Y-55480820D01*
X120898949Y-55476488D01*
X120880978Y-55469043D01*
X120868498Y-55462684D01*
X120868486Y-55462679D01*
X120801409Y-55444705D01*
X120798309Y-55443787D01*
X120732256Y-55422326D01*
X120732251Y-55422325D01*
X120732249Y-55422325D01*
X120718314Y-55420860D01*
X120699189Y-55417315D01*
X120685653Y-55413688D01*
X120685643Y-55413686D01*
X120616290Y-55410051D01*
X120613059Y-55409797D01*
X120598537Y-55408271D01*
X120591192Y-55407500D01*
X120591189Y-55407500D01*
X120569203Y-55407500D01*
X120565959Y-55407415D01*
X120496612Y-55403781D01*
X120496611Y-55403781D01*
X120482772Y-55405973D01*
X120463373Y-55407500D01*
X104148696Y-55407500D01*
X104081657Y-55387815D01*
X104038788Y-55340912D01*
X103993699Y-55254595D01*
X103993698Y-55254593D01*
X103922864Y-55167723D01*
X103865109Y-55096890D01*
X103707409Y-54968304D01*
X103707410Y-54968304D01*
X103707407Y-54968302D01*
X103527049Y-54874091D01*
X103527048Y-54874090D01*
X103527045Y-54874089D01*
X103409829Y-54840550D01*
X103331418Y-54818114D01*
X103331415Y-54818113D01*
X103331413Y-54818113D01*
X103240983Y-54810073D01*
X103212037Y-54807500D01*
X103212035Y-54807500D01*
X103212034Y-54807500D01*
X102005148Y-54807500D01*
X100395964Y-54807501D01*
X100366727Y-54810100D01*
X100276584Y-54818113D01*
X100080954Y-54874089D01*
X99990772Y-54921196D01*
X99900593Y-54968302D01*
X99900591Y-54968303D01*
X99900590Y-54968304D01*
X99742890Y-55096890D01*
X99614304Y-55254590D01*
X99520089Y-55434954D01*
X99464114Y-55630583D01*
X99464113Y-55630586D01*
X99453500Y-55749965D01*
X99453500Y-55749966D01*
X78436892Y-55749966D01*
X78436530Y-54240530D01*
X78456198Y-54173486D01*
X78508991Y-54127718D01*
X78560530Y-54116500D01*
X143081500Y-54116500D01*
X143148539Y-54136185D01*
G37*
%TD.AperFunction*%
%TD*%
D31*
X106680000Y-89281000D03*
X105410000Y-89281000D03*
X104267000Y-89916000D03*
X102997000Y-89916000D03*
X139904000Y-64022000D03*
X123190000Y-69342000D03*
X122152351Y-63775649D03*
X108535000Y-89676000D03*
X96470000Y-92724000D03*
X104902000Y-83566000D03*
X122505000Y-72399000D03*
X125983996Y-104648000D03*
X95962000Y-103392000D03*
X110186000Y-84342000D03*
X103074000Y-91200000D03*
X96470000Y-85612000D03*
X120912365Y-71137671D03*
X101431607Y-92715393D03*
X108560000Y-86628000D03*
X112472000Y-100598000D03*
X118822000Y-71002000D03*
X89739000Y-100598000D03*
X133692327Y-64806000D03*
X104344000Y-91200000D03*
X132284000Y-60466000D03*
X117298000Y-72399000D03*
X108916000Y-97296000D03*
X89866000Y-98058000D03*
X126188000Y-99328000D03*
X125744000Y-95073998D03*
X98298000Y-87797998D03*
X121362000Y-82296000D03*
X121412000Y-69850000D03*
X128469347Y-90179347D03*
X123902000Y-79008000D03*
X124664000Y-81294000D03*
X123398653Y-80273347D03*
X114504000Y-86120000D03*
X121616000Y-95772000D03*
X135332000Y-70372000D03*
X135332000Y-72912000D03*
X129744006Y-67324000D03*
X127712000Y-74182000D03*
X103328000Y-103392000D03*
X115062000Y-102870000D03*
X118314000Y-100598000D03*
X118314000Y-103138000D03*
X118314000Y-105678000D03*
X118314000Y-108218000D03*
X118314000Y-110758000D03*
X118314000Y-113298000D03*
X83262000Y-101614000D03*
X83262000Y-99074000D03*
X139142000Y-58180000D03*
X130304000Y-99110000D03*
X136804000Y-99110000D03*
X130304000Y-103610000D03*
X136804000Y-103610000D03*
X94946000Y-112536000D03*
X92446000Y-112536000D03*
X97446000Y-112536000D03*
X137364000Y-113298000D03*
X134824000Y-113298000D03*
X132284000Y-113298000D03*
X129744000Y-113298000D03*
X127204000Y-113298000D03*
X82943000Y-84803000D03*
X80443000Y-84803000D03*
X87943000Y-89803000D03*
X82943000Y-94803000D03*
X80443000Y-94803000D03*
D32*
X82943000Y-89803000D03*
D33*
X87943000Y-84803000D03*
D34*
X87943000Y-87303000D03*
D33*
X87943000Y-94803000D03*
D34*
X87943000Y-92303000D03*
D31*
X82246000Y-112536000D03*
X124447000Y-60211000D03*
X119447000Y-60211000D03*
X114447000Y-60211000D03*
X109447000Y-60211000D03*
X87948000Y-75189500D03*
X93948000Y-73189500D03*
X93948000Y-60989500D03*
X81948000Y-60989500D03*
X81948000Y-73189500D03*
X106405000Y-109742000D03*
X111405000Y-109742000D03*
D35*
X101804000Y-56308000D03*
D36*
X101804000Y-63578000D03*
X101804000Y-72658000D03*
D35*
X101804000Y-79928000D03*
D31*
X109596323Y-76214000D03*
X114596323Y-76214000D03*
M02*
