%TF.GenerationSoftware,KiCad,Pcbnew,7.0.8-7.0.8~ubuntu20.04.1*%
%TF.CreationDate,2023-11-01T16:13:29+05:30*%
%TF.ProjectId,WLED_V0.1_panelized,574c4544-5f56-4302-9e31-5f70616e656c,rev?*%
%TF.SameCoordinates,Original*%
%TF.FileFunction,Legend,Top*%
%TF.FilePolarity,Positive*%
%FSLAX46Y46*%
G04 Gerber Fmt 4.6, Leading zero omitted, Abs format (unit mm)*
G04 Created by KiCad (PCBNEW 7.0.8-7.0.8~ubuntu20.04.1) date 2023-11-01 16:13:29*
%MOMM*%
%LPD*%
G01*
G04 APERTURE LIST*
%ADD10C,0.150000*%
%ADD11C,0.120000*%
%ADD12C,0.127000*%
%ADD13C,0.200000*%
%ADD14C,0.350000*%
%ADD15O,0.400000X1.400000*%
%ADD16O,1.400000X0.400000*%
%ADD17O,1.500000X0.800000*%
%ADD18O,2.710000X1.020000*%
%ADD19O,1.870000X1.020000*%
G04 APERTURE END LIST*
D10*
X119757819Y-68497220D02*
X118757819Y-68497220D01*
X118757819Y-67830554D02*
X118757819Y-67640078D01*
X118757819Y-67640078D02*
X118805438Y-67544840D01*
X118805438Y-67544840D02*
X118900676Y-67449602D01*
X118900676Y-67449602D02*
X119091152Y-67401983D01*
X119091152Y-67401983D02*
X119424485Y-67401983D01*
X119424485Y-67401983D02*
X119614961Y-67449602D01*
X119614961Y-67449602D02*
X119710200Y-67544840D01*
X119710200Y-67544840D02*
X119757819Y-67640078D01*
X119757819Y-67640078D02*
X119757819Y-67830554D01*
X119757819Y-67830554D02*
X119710200Y-67925792D01*
X119710200Y-67925792D02*
X119614961Y-68021030D01*
X119614961Y-68021030D02*
X119424485Y-68068649D01*
X119424485Y-68068649D02*
X119091152Y-68068649D01*
X119091152Y-68068649D02*
X118900676Y-68021030D01*
X118900676Y-68021030D02*
X118805438Y-67925792D01*
X118805438Y-67925792D02*
X118757819Y-67830554D01*
X119091152Y-66544840D02*
X119757819Y-66544840D01*
X118710200Y-66782935D02*
X119424485Y-67021030D01*
X119424485Y-67021030D02*
X119424485Y-66401983D01*
X104181779Y-103374866D02*
X104943684Y-103374866D01*
X104562731Y-103755819D02*
X104562731Y-102993914D01*
X105896064Y-102755819D02*
X105419874Y-102755819D01*
X105419874Y-102755819D02*
X105372255Y-103232009D01*
X105372255Y-103232009D02*
X105419874Y-103184390D01*
X105419874Y-103184390D02*
X105515112Y-103136771D01*
X105515112Y-103136771D02*
X105753207Y-103136771D01*
X105753207Y-103136771D02*
X105848445Y-103184390D01*
X105848445Y-103184390D02*
X105896064Y-103232009D01*
X105896064Y-103232009D02*
X105943683Y-103327247D01*
X105943683Y-103327247D02*
X105943683Y-103565342D01*
X105943683Y-103565342D02*
X105896064Y-103660580D01*
X105896064Y-103660580D02*
X105848445Y-103708200D01*
X105848445Y-103708200D02*
X105753207Y-103755819D01*
X105753207Y-103755819D02*
X105515112Y-103755819D01*
X105515112Y-103755819D02*
X105419874Y-103708200D01*
X105419874Y-103708200D02*
X105372255Y-103660580D01*
X106229398Y-102755819D02*
X106562731Y-103755819D01*
X106562731Y-103755819D02*
X106896064Y-102755819D01*
X121002588Y-112963438D02*
X120907350Y-112915819D01*
X120907350Y-112915819D02*
X120764493Y-112915819D01*
X120764493Y-112915819D02*
X120621636Y-112963438D01*
X120621636Y-112963438D02*
X120526398Y-113058676D01*
X120526398Y-113058676D02*
X120478779Y-113153914D01*
X120478779Y-113153914D02*
X120431160Y-113344390D01*
X120431160Y-113344390D02*
X120431160Y-113487247D01*
X120431160Y-113487247D02*
X120478779Y-113677723D01*
X120478779Y-113677723D02*
X120526398Y-113772961D01*
X120526398Y-113772961D02*
X120621636Y-113868200D01*
X120621636Y-113868200D02*
X120764493Y-113915819D01*
X120764493Y-113915819D02*
X120859731Y-113915819D01*
X120859731Y-113915819D02*
X121002588Y-113868200D01*
X121002588Y-113868200D02*
X121050207Y-113820580D01*
X121050207Y-113820580D02*
X121050207Y-113487247D01*
X121050207Y-113487247D02*
X120859731Y-113487247D01*
X121478779Y-113915819D02*
X121478779Y-112915819D01*
X121478779Y-112915819D02*
X122050207Y-113915819D01*
X122050207Y-113915819D02*
X122050207Y-112915819D01*
X122526398Y-113915819D02*
X122526398Y-112915819D01*
X122526398Y-112915819D02*
X122764493Y-112915819D01*
X122764493Y-112915819D02*
X122907350Y-112963438D01*
X122907350Y-112963438D02*
X123002588Y-113058676D01*
X123002588Y-113058676D02*
X123050207Y-113153914D01*
X123050207Y-113153914D02*
X123097826Y-113344390D01*
X123097826Y-113344390D02*
X123097826Y-113487247D01*
X123097826Y-113487247D02*
X123050207Y-113677723D01*
X123050207Y-113677723D02*
X123002588Y-113772961D01*
X123002588Y-113772961D02*
X122907350Y-113868200D01*
X122907350Y-113868200D02*
X122764493Y-113915819D01*
X122764493Y-113915819D02*
X122526398Y-113915819D01*
X121050207Y-103526295D02*
X120716874Y-103145342D01*
X120478779Y-103526295D02*
X120478779Y-102726295D01*
X120478779Y-102726295D02*
X120859731Y-102726295D01*
X120859731Y-102726295D02*
X120954969Y-102764390D01*
X120954969Y-102764390D02*
X121002588Y-102802485D01*
X121002588Y-102802485D02*
X121050207Y-102878676D01*
X121050207Y-102878676D02*
X121050207Y-102992961D01*
X121050207Y-102992961D02*
X121002588Y-103069152D01*
X121002588Y-103069152D02*
X120954969Y-103107247D01*
X120954969Y-103107247D02*
X120859731Y-103145342D01*
X120859731Y-103145342D02*
X120478779Y-103145342D01*
X121383541Y-102726295D02*
X122050207Y-103526295D01*
X122050207Y-102726295D02*
X121383541Y-103526295D01*
X105492779Y-115312866D02*
X106254684Y-115312866D01*
X105873731Y-115693819D02*
X105873731Y-114931914D01*
X114677819Y-69259220D02*
X113677819Y-69259220D01*
X113677819Y-68592554D02*
X113677819Y-68402078D01*
X113677819Y-68402078D02*
X113725438Y-68306840D01*
X113725438Y-68306840D02*
X113820676Y-68211602D01*
X113820676Y-68211602D02*
X114011152Y-68163983D01*
X114011152Y-68163983D02*
X114344485Y-68163983D01*
X114344485Y-68163983D02*
X114534961Y-68211602D01*
X114534961Y-68211602D02*
X114630200Y-68306840D01*
X114630200Y-68306840D02*
X114677819Y-68402078D01*
X114677819Y-68402078D02*
X114677819Y-68592554D01*
X114677819Y-68592554D02*
X114630200Y-68687792D01*
X114630200Y-68687792D02*
X114534961Y-68783030D01*
X114534961Y-68783030D02*
X114344485Y-68830649D01*
X114344485Y-68830649D02*
X114011152Y-68830649D01*
X114011152Y-68830649D02*
X113820676Y-68783030D01*
X113820676Y-68783030D02*
X113725438Y-68687792D01*
X113725438Y-68687792D02*
X113677819Y-68592554D01*
X114677819Y-67211602D02*
X114677819Y-67783030D01*
X114677819Y-67497316D02*
X113677819Y-67497316D01*
X113677819Y-67497316D02*
X113820676Y-67592554D01*
X113820676Y-67592554D02*
X113915914Y-67687792D01*
X113915914Y-67687792D02*
X113963533Y-67783030D01*
X113677819Y-66354459D02*
X113677819Y-66544935D01*
X113677819Y-66544935D02*
X113725438Y-66640173D01*
X113725438Y-66640173D02*
X113773057Y-66687792D01*
X113773057Y-66687792D02*
X113915914Y-66783030D01*
X113915914Y-66783030D02*
X114106390Y-66830649D01*
X114106390Y-66830649D02*
X114487342Y-66830649D01*
X114487342Y-66830649D02*
X114582580Y-66783030D01*
X114582580Y-66783030D02*
X114630200Y-66735411D01*
X114630200Y-66735411D02*
X114677819Y-66640173D01*
X114677819Y-66640173D02*
X114677819Y-66449697D01*
X114677819Y-66449697D02*
X114630200Y-66354459D01*
X114630200Y-66354459D02*
X114582580Y-66306840D01*
X114582580Y-66306840D02*
X114487342Y-66259221D01*
X114487342Y-66259221D02*
X114249247Y-66259221D01*
X114249247Y-66259221D02*
X114154009Y-66306840D01*
X114154009Y-66306840D02*
X114106390Y-66354459D01*
X114106390Y-66354459D02*
X114058771Y-66449697D01*
X114058771Y-66449697D02*
X114058771Y-66640173D01*
X114058771Y-66640173D02*
X114106390Y-66735411D01*
X114106390Y-66735411D02*
X114154009Y-66783030D01*
X114154009Y-66783030D02*
X114249247Y-66830649D01*
X108645438Y-68481411D02*
X108597819Y-68576649D01*
X108597819Y-68576649D02*
X108597819Y-68719506D01*
X108597819Y-68719506D02*
X108645438Y-68862363D01*
X108645438Y-68862363D02*
X108740676Y-68957601D01*
X108740676Y-68957601D02*
X108835914Y-69005220D01*
X108835914Y-69005220D02*
X109026390Y-69052839D01*
X109026390Y-69052839D02*
X109169247Y-69052839D01*
X109169247Y-69052839D02*
X109359723Y-69005220D01*
X109359723Y-69005220D02*
X109454961Y-68957601D01*
X109454961Y-68957601D02*
X109550200Y-68862363D01*
X109550200Y-68862363D02*
X109597819Y-68719506D01*
X109597819Y-68719506D02*
X109597819Y-68624268D01*
X109597819Y-68624268D02*
X109550200Y-68481411D01*
X109550200Y-68481411D02*
X109502580Y-68433792D01*
X109502580Y-68433792D02*
X109169247Y-68433792D01*
X109169247Y-68433792D02*
X109169247Y-68624268D01*
X109597819Y-68005220D02*
X108597819Y-68005220D01*
X108597819Y-68005220D02*
X109597819Y-67433792D01*
X109597819Y-67433792D02*
X108597819Y-67433792D01*
X109597819Y-66957601D02*
X108597819Y-66957601D01*
X108597819Y-66957601D02*
X108597819Y-66719506D01*
X108597819Y-66719506D02*
X108645438Y-66576649D01*
X108645438Y-66576649D02*
X108740676Y-66481411D01*
X108740676Y-66481411D02*
X108835914Y-66433792D01*
X108835914Y-66433792D02*
X109026390Y-66386173D01*
X109026390Y-66386173D02*
X109169247Y-66386173D01*
X109169247Y-66386173D02*
X109359723Y-66433792D01*
X109359723Y-66433792D02*
X109454961Y-66481411D01*
X109454961Y-66481411D02*
X109550200Y-66576649D01*
X109550200Y-66576649D02*
X109597819Y-66719506D01*
X109597819Y-66719506D02*
X109597819Y-66957601D01*
X111334779Y-115312866D02*
X112096684Y-115312866D01*
X120335922Y-105041819D02*
X120907350Y-105041819D01*
X120621636Y-106041819D02*
X120621636Y-105041819D01*
X121145446Y-105041819D02*
X121812112Y-106041819D01*
X121812112Y-105041819D02*
X121145446Y-106041819D01*
X124710866Y-69005220D02*
X124710866Y-68243316D01*
X125091819Y-68624268D02*
X124329914Y-68624268D01*
X124091819Y-67290935D02*
X124091819Y-67767125D01*
X124091819Y-67767125D02*
X124568009Y-67814744D01*
X124568009Y-67814744D02*
X124520390Y-67767125D01*
X124520390Y-67767125D02*
X124472771Y-67671887D01*
X124472771Y-67671887D02*
X124472771Y-67433792D01*
X124472771Y-67433792D02*
X124520390Y-67338554D01*
X124520390Y-67338554D02*
X124568009Y-67290935D01*
X124568009Y-67290935D02*
X124663247Y-67243316D01*
X124663247Y-67243316D02*
X124901342Y-67243316D01*
X124901342Y-67243316D02*
X124996580Y-67290935D01*
X124996580Y-67290935D02*
X125044200Y-67338554D01*
X125044200Y-67338554D02*
X125091819Y-67433792D01*
X125091819Y-67433792D02*
X125091819Y-67671887D01*
X125091819Y-67671887D02*
X125044200Y-67767125D01*
X125044200Y-67767125D02*
X124996580Y-67814744D01*
X124091819Y-66957601D02*
X125091819Y-66624268D01*
X125091819Y-66624268D02*
X124091819Y-66290935D01*
X111096588Y-102549438D02*
X111001350Y-102501819D01*
X111001350Y-102501819D02*
X110858493Y-102501819D01*
X110858493Y-102501819D02*
X110715636Y-102549438D01*
X110715636Y-102549438D02*
X110620398Y-102644676D01*
X110620398Y-102644676D02*
X110572779Y-102739914D01*
X110572779Y-102739914D02*
X110525160Y-102930390D01*
X110525160Y-102930390D02*
X110525160Y-103073247D01*
X110525160Y-103073247D02*
X110572779Y-103263723D01*
X110572779Y-103263723D02*
X110620398Y-103358961D01*
X110620398Y-103358961D02*
X110715636Y-103454200D01*
X110715636Y-103454200D02*
X110858493Y-103501819D01*
X110858493Y-103501819D02*
X110953731Y-103501819D01*
X110953731Y-103501819D02*
X111096588Y-103454200D01*
X111096588Y-103454200D02*
X111144207Y-103406580D01*
X111144207Y-103406580D02*
X111144207Y-103073247D01*
X111144207Y-103073247D02*
X110953731Y-103073247D01*
X111572779Y-103501819D02*
X111572779Y-102501819D01*
X111572779Y-102501819D02*
X112144207Y-103501819D01*
X112144207Y-103501819D02*
X112144207Y-102501819D01*
X112620398Y-103501819D02*
X112620398Y-102501819D01*
X112620398Y-102501819D02*
X112858493Y-102501819D01*
X112858493Y-102501819D02*
X113001350Y-102549438D01*
X113001350Y-102549438D02*
X113096588Y-102644676D01*
X113096588Y-102644676D02*
X113144207Y-102739914D01*
X113144207Y-102739914D02*
X113191826Y-102930390D01*
X113191826Y-102930390D02*
X113191826Y-103073247D01*
X113191826Y-103073247D02*
X113144207Y-103263723D01*
X113144207Y-103263723D02*
X113096588Y-103358961D01*
X113096588Y-103358961D02*
X113001350Y-103454200D01*
X113001350Y-103454200D02*
X112858493Y-103501819D01*
X112858493Y-103501819D02*
X112620398Y-103501819D01*
D11*
%TO.C,J2*%
X116984000Y-99268000D02*
X118314000Y-99268000D01*
X116984000Y-100598000D02*
X116984000Y-99268000D01*
X116984000Y-101868000D02*
X116984000Y-114628000D01*
X116984000Y-101868000D02*
X119644000Y-101868000D01*
X116984000Y-114628000D02*
X119644000Y-114628000D01*
X119644000Y-101868000D02*
X119644000Y-114628000D01*
%TO.C,MK1*%
X84592000Y-102944000D02*
X83262000Y-102944000D01*
X84592000Y-101614000D02*
X84592000Y-102944000D01*
X84592000Y-100344000D02*
X84592000Y-97744000D01*
X84592000Y-100344000D02*
X81932000Y-100344000D01*
X84592000Y-97744000D02*
X81932000Y-97744000D01*
X81932000Y-100344000D02*
X81932000Y-97744000D01*
%TO.C,R5*%
X138764436Y-65065000D02*
X139218564Y-65065000D01*
X138764436Y-66535000D02*
X139218564Y-66535000D01*
%TO.C,R14*%
X98274936Y-102657000D02*
X98729064Y-102657000D01*
X98274936Y-104127000D02*
X98729064Y-104127000D01*
%TO.C,R4*%
X128042564Y-68045000D02*
X127588436Y-68045000D01*
X128042564Y-66575000D02*
X127588436Y-66575000D01*
%TO.C,C6*%
X125453000Y-102571252D02*
X125453000Y-102048748D01*
X126923000Y-102571252D02*
X126923000Y-102048748D01*
%TO.C,C10*%
X132440748Y-62397000D02*
X132963252Y-62397000D01*
X132440748Y-63867000D02*
X132963252Y-63867000D01*
%TO.C,R13*%
X98729064Y-101079000D02*
X98274936Y-101079000D01*
X98729064Y-99609000D02*
X98274936Y-99609000D01*
%TO.C,U2*%
X105222000Y-90076000D02*
X111232000Y-90076000D01*
X107472000Y-96896000D02*
X111232000Y-96896000D01*
X111232000Y-90076000D02*
X111232000Y-91336000D01*
X111232000Y-96896000D02*
X111232000Y-95636000D01*
%TO.C,R8*%
X107456436Y-83528500D02*
X107910564Y-83528500D01*
X107456436Y-84998500D02*
X107910564Y-84998500D01*
%TO.C,SW2*%
X130054000Y-100610000D02*
X130054000Y-102110000D01*
X131304000Y-104610000D02*
X135804000Y-104610000D01*
X135804000Y-98110000D02*
X131304000Y-98110000D01*
X137054000Y-102110000D02*
X137054000Y-100610000D01*
%TO.C,kibuzzard-6541D5EF*%
G36*
X134522369Y-107988100D02*
G01*
X134642225Y-108002387D01*
X134725569Y-108026200D01*
X134798792Y-108082159D01*
X134823200Y-108164312D01*
X134798792Y-108246466D01*
X134725569Y-108302425D01*
X134642225Y-108326237D01*
X134522369Y-108340525D01*
X134366000Y-108345287D01*
X134209631Y-108340525D01*
X134089775Y-108326237D01*
X134006431Y-108302425D01*
X133933208Y-108246466D01*
X133908800Y-108164312D01*
X133933208Y-108082159D01*
X134006431Y-108026200D01*
X134089775Y-108002387D01*
X134209631Y-107988100D01*
X134366000Y-107983337D01*
X134522369Y-107988100D01*
G37*
G36*
X135292042Y-106769958D02*
G01*
X135292042Y-107100687D01*
X135292042Y-110037563D01*
X135292042Y-110368292D01*
X135292042Y-110923917D01*
X133439958Y-110368292D01*
X133439958Y-110037563D01*
X133786562Y-110037563D01*
X133924675Y-110037563D01*
X133924675Y-109650212D01*
X133927850Y-109650212D01*
X134038777Y-109743329D01*
X134142956Y-109822655D01*
X134240389Y-109888189D01*
X134331075Y-109939931D01*
X134444317Y-109989761D01*
X134551208Y-110019659D01*
X134651750Y-110029625D01*
X134785695Y-110011567D01*
X134882731Y-109957394D01*
X134941667Y-109869089D01*
X134961313Y-109748637D01*
X134952140Y-109648096D01*
X134924624Y-109553904D01*
X134878762Y-109466063D01*
X134729537Y-109466063D01*
X134781572Y-109555492D01*
X134812793Y-109637512D01*
X134823200Y-109712125D01*
X134780337Y-109816106D01*
X134724775Y-109841705D01*
X134643812Y-109850237D01*
X134556824Y-109842397D01*
X134464587Y-109818876D01*
X134367102Y-109779675D01*
X134264368Y-109724793D01*
X134156385Y-109654230D01*
X134043154Y-109567986D01*
X133924675Y-109466063D01*
X133786562Y-109466063D01*
X133786562Y-110037563D01*
X133439958Y-110037563D01*
X133439958Y-108953300D01*
X133786562Y-108953300D01*
X133786562Y-109131100D01*
X134945437Y-109131100D01*
X134945437Y-108954887D01*
X134783512Y-108677075D01*
X134627937Y-108677075D01*
X134780337Y-108950125D01*
X134778750Y-108953300D01*
X133786562Y-108953300D01*
X133439958Y-108953300D01*
X133439958Y-108164312D01*
X133770687Y-108164312D01*
X133784181Y-108274644D01*
X133824662Y-108361162D01*
X133898084Y-108426845D01*
X134010400Y-108474669D01*
X134108472Y-108496276D01*
X134227006Y-108509241D01*
X134366000Y-108513563D01*
X134504994Y-108509241D01*
X134623528Y-108496276D01*
X134721600Y-108474669D01*
X134833916Y-108426845D01*
X134907337Y-108361162D01*
X134947819Y-108274644D01*
X134961313Y-108164312D01*
X134947819Y-108053981D01*
X134907337Y-107967462D01*
X134833916Y-107901780D01*
X134721600Y-107853956D01*
X134623528Y-107832349D01*
X134504994Y-107819384D01*
X134366000Y-107815062D01*
X134227006Y-107819384D01*
X134108472Y-107832349D01*
X134010400Y-107853956D01*
X133898084Y-107901780D01*
X133824662Y-107967462D01*
X133784181Y-108053981D01*
X133770687Y-108164312D01*
X133439958Y-108164312D01*
X133439958Y-107640437D01*
X133786562Y-107640437D01*
X133924675Y-107640437D01*
X133924675Y-107462637D01*
X134807325Y-107462637D01*
X134807325Y-107640437D01*
X134945437Y-107640437D01*
X134945437Y-107100687D01*
X134807325Y-107100687D01*
X134807325Y-107278487D01*
X133924675Y-107278487D01*
X133924675Y-107100687D01*
X133786562Y-107100687D01*
X133786562Y-107640437D01*
X133439958Y-107640437D01*
X133439958Y-107100687D01*
X133439958Y-106769958D01*
X133439958Y-106214333D01*
X135292042Y-106769958D01*
G37*
D12*
%TO.C,U3*%
X91946000Y-112536000D02*
X92446000Y-110536000D01*
X92446000Y-110536000D02*
X97446000Y-110536000D01*
X92446000Y-114536000D02*
X91946000Y-112536000D01*
X92946000Y-114536000D02*
X92446000Y-114536000D01*
X96946000Y-114536000D02*
X92946000Y-114536000D01*
X97446000Y-110536000D02*
X97946000Y-112536000D01*
X97446000Y-114536000D02*
X96946000Y-114536000D01*
X97946000Y-112536000D02*
X97446000Y-114536000D01*
X92946000Y-114536000D02*
G75*
G03*
X96946000Y-114536000I2000000J749998D01*
G01*
%TO.C,kibuzzard-6541D612*%
G36*
X137062369Y-108781850D02*
G01*
X137182225Y-108796137D01*
X137265569Y-108819950D01*
X137338792Y-108875909D01*
X137363200Y-108958062D01*
X137338792Y-109040216D01*
X137265569Y-109096175D01*
X137182225Y-109119987D01*
X137062369Y-109134275D01*
X136906000Y-109139037D01*
X136749631Y-109134275D01*
X136629775Y-109119987D01*
X136546431Y-109096175D01*
X136473208Y-109040216D01*
X136448800Y-108958062D01*
X136473208Y-108875909D01*
X136546431Y-108819950D01*
X136629775Y-108796137D01*
X136749631Y-108781850D01*
X136906000Y-108777087D01*
X137062369Y-108781850D01*
G37*
G36*
X137832042Y-107563708D02*
G01*
X137832042Y-107894437D01*
X137832042Y-110037563D01*
X137832042Y-110368292D01*
X137832042Y-110923917D01*
X135979958Y-110368292D01*
X135979958Y-110037563D01*
X136326562Y-110037563D01*
X136464675Y-110037563D01*
X136464675Y-109650212D01*
X136467850Y-109650212D01*
X136578777Y-109743329D01*
X136682956Y-109822655D01*
X136780389Y-109888189D01*
X136871075Y-109939931D01*
X136984317Y-109989761D01*
X137091208Y-110019659D01*
X137191750Y-110029625D01*
X137325695Y-110011567D01*
X137422731Y-109957394D01*
X137481667Y-109869089D01*
X137501313Y-109748637D01*
X137492140Y-109648096D01*
X137464624Y-109553904D01*
X137418762Y-109466062D01*
X137269537Y-109466062D01*
X137321572Y-109555492D01*
X137352793Y-109637513D01*
X137363200Y-109712125D01*
X137320337Y-109816106D01*
X137264775Y-109841705D01*
X137183812Y-109850237D01*
X137096824Y-109842397D01*
X137004587Y-109818876D01*
X136907102Y-109779675D01*
X136804368Y-109724793D01*
X136696385Y-109654230D01*
X136583154Y-109567986D01*
X136464675Y-109466062D01*
X136326562Y-109466062D01*
X136326562Y-110037563D01*
X135979958Y-110037563D01*
X135979958Y-108958062D01*
X136310687Y-108958062D01*
X136324181Y-109068394D01*
X136364662Y-109154912D01*
X136438084Y-109220595D01*
X136550400Y-109268419D01*
X136648472Y-109290026D01*
X136767006Y-109302991D01*
X136906000Y-109307313D01*
X137044994Y-109302991D01*
X137163528Y-109290026D01*
X137261600Y-109268419D01*
X137373916Y-109220595D01*
X137447337Y-109154912D01*
X137487819Y-109068394D01*
X137501313Y-108958062D01*
X137487819Y-108847731D01*
X137447337Y-108761212D01*
X137373916Y-108695530D01*
X137261600Y-108647706D01*
X137163528Y-108626099D01*
X137044994Y-108613134D01*
X136906000Y-108608812D01*
X136767006Y-108613134D01*
X136648472Y-108626099D01*
X136550400Y-108647706D01*
X136438084Y-108695530D01*
X136364662Y-108761212D01*
X136324181Y-108847731D01*
X136310687Y-108958062D01*
X135979958Y-108958062D01*
X135979958Y-108434187D01*
X136326562Y-108434187D01*
X136464675Y-108434187D01*
X136464675Y-108256387D01*
X137347325Y-108256387D01*
X137347325Y-108434187D01*
X137485437Y-108434187D01*
X137485437Y-107894437D01*
X137347325Y-107894437D01*
X137347325Y-108072237D01*
X136464675Y-108072237D01*
X136464675Y-107894437D01*
X136326562Y-107894437D01*
X136326562Y-108434187D01*
X135979958Y-108434187D01*
X135979958Y-107894437D01*
X135979958Y-107563708D01*
X135979958Y-107008083D01*
X137832042Y-107563708D01*
G37*
%TO.C,kibuzzard-6541E326*%
G36*
X139265290Y-62043381D02*
G01*
X139324027Y-62097885D01*
X139343606Y-62188725D01*
X139330906Y-62272267D01*
X139292806Y-62329219D01*
X139227719Y-62361961D01*
X139134056Y-62372875D01*
X139088019Y-62372875D01*
X139088019Y-62037913D01*
X139167394Y-62025213D01*
X139265290Y-62043381D01*
G37*
G36*
X137669191Y-62039302D02*
G01*
X137729119Y-62076806D01*
X137764838Y-62141298D01*
X137776744Y-62234763D01*
X137764044Y-62332394D01*
X137725944Y-62396688D01*
X137657681Y-62432406D01*
X137554494Y-62444313D01*
X137492581Y-62444313D01*
X137492581Y-62039500D01*
X137584656Y-62026800D01*
X137669191Y-62039302D01*
G37*
G36*
X139252325Y-62520909D02*
G01*
X139319794Y-62560200D01*
X139359084Y-62628066D01*
X139372181Y-62726888D01*
X139360077Y-62824320D01*
X139323763Y-62891194D01*
X139262842Y-62929889D01*
X139176919Y-62942788D01*
X139088019Y-62930088D01*
X139088019Y-62507813D01*
X139154694Y-62507813D01*
X139252325Y-62520909D01*
G37*
G36*
X139966716Y-61562417D02*
G01*
X140056610Y-61575752D01*
X140144764Y-61597833D01*
X140230329Y-61628449D01*
X140312481Y-61667304D01*
X140390429Y-61714025D01*
X140463423Y-61768160D01*
X140530758Y-61829190D01*
X140591788Y-61896525D01*
X140645923Y-61969519D01*
X140692644Y-62047467D01*
X140731499Y-62129619D01*
X140762115Y-62215184D01*
X140784196Y-62303338D01*
X140797530Y-62393232D01*
X140801990Y-62484000D01*
X140797530Y-62574768D01*
X140784196Y-62664662D01*
X140762115Y-62752816D01*
X140731499Y-62838381D01*
X140692644Y-62920533D01*
X140645923Y-62998481D01*
X140591788Y-63071475D01*
X140530758Y-63138810D01*
X140463423Y-63199840D01*
X140390429Y-63253975D01*
X140312481Y-63300696D01*
X140230329Y-63339551D01*
X140144764Y-63370167D01*
X140056610Y-63392248D01*
X139966716Y-63405583D01*
X139875948Y-63410042D01*
X139545219Y-63410042D01*
X139176919Y-63410042D01*
X138470481Y-63410042D01*
X137981531Y-63410042D01*
X137314781Y-63410042D01*
X136984052Y-63410042D01*
X136893284Y-63405583D01*
X136803390Y-63392248D01*
X136715236Y-63370167D01*
X136629671Y-63339551D01*
X136547519Y-63300696D01*
X136469571Y-63253976D01*
X136396577Y-63199840D01*
X136329242Y-63138810D01*
X136268212Y-63071475D01*
X136262251Y-63063438D01*
X137314781Y-63063438D01*
X137492581Y-63063438D01*
X137492581Y-62582425D01*
X137554494Y-62582425D01*
X137650538Y-62613381D01*
X137680898Y-62658030D01*
X137706894Y-62730063D01*
X137798969Y-63063438D01*
X137981531Y-63063438D01*
X137883106Y-62739588D01*
X137832306Y-62614969D01*
X137771981Y-62536388D01*
X137771981Y-62533213D01*
X137849769Y-62487770D01*
X137859793Y-62476063D01*
X138073606Y-62476063D01*
X138079807Y-62617449D01*
X138098411Y-62739984D01*
X138129417Y-62843668D01*
X138172825Y-62928500D01*
X138228636Y-62994480D01*
X138296848Y-63041609D01*
X138377464Y-63069887D01*
X138470481Y-63079313D01*
X138565378Y-63073139D01*
X138655337Y-63054618D01*
X138674768Y-63047563D01*
X138910219Y-63047563D01*
X138997708Y-63065201D01*
X139086608Y-63075785D01*
X139176919Y-63079313D01*
X139289455Y-63069611D01*
X139381530Y-63040507D01*
X139453144Y-62992000D01*
X139504297Y-62924090D01*
X139534988Y-62836778D01*
X139545219Y-62730063D01*
X139529939Y-62623700D01*
X139484100Y-62533213D01*
X139415242Y-62466934D01*
X139330906Y-62433200D01*
X139330906Y-62431613D01*
X139405320Y-62399069D01*
X139463463Y-62342713D01*
X139500967Y-62267306D01*
X139513469Y-62177613D01*
X139499626Y-62073600D01*
X139458097Y-61992701D01*
X139388882Y-61934915D01*
X139291981Y-61900244D01*
X139167394Y-61888687D01*
X139036425Y-61896625D01*
X138910219Y-61920437D01*
X138910219Y-63047563D01*
X138674768Y-63047563D01*
X138740356Y-63023750D01*
X138740356Y-62372875D01*
X138370469Y-62372875D01*
X138370469Y-62507813D01*
X138570494Y-62507813D01*
X138570494Y-62923738D01*
X138475244Y-62942788D01*
X138378406Y-62915800D01*
X138306969Y-62834838D01*
X138274337Y-62746996D01*
X138254758Y-62627404D01*
X138248231Y-62476063D01*
X138255110Y-62328160D01*
X138275748Y-62212538D01*
X138310144Y-62129194D01*
X138389122Y-62053589D01*
X138502231Y-62028388D01*
X138599466Y-62037913D01*
X138700669Y-62066488D01*
X138700669Y-61923613D01*
X138603434Y-61897419D01*
X138502231Y-61888687D01*
X138371263Y-61904386D01*
X138264106Y-61951482D01*
X138180763Y-62029975D01*
X138133882Y-62110838D01*
X138100395Y-62212141D01*
X138080304Y-62333882D01*
X138073606Y-62476063D01*
X137859793Y-62476063D01*
X137905331Y-62422881D01*
X137938669Y-62338545D01*
X137949781Y-62234763D01*
X137939992Y-62125842D01*
X137910623Y-62038265D01*
X137861675Y-61972031D01*
X137791737Y-61925729D01*
X137699397Y-61897948D01*
X137584656Y-61888687D01*
X137493287Y-61892215D01*
X137403328Y-61902799D01*
X137314781Y-61920437D01*
X137314781Y-63063438D01*
X136262251Y-63063438D01*
X136214077Y-62998481D01*
X136167356Y-62920533D01*
X136128501Y-62838381D01*
X136097885Y-62752816D01*
X136075804Y-62664662D01*
X136062470Y-62574768D01*
X136058010Y-62484000D01*
X136062470Y-62393232D01*
X136075804Y-62303338D01*
X136097885Y-62215184D01*
X136128501Y-62129619D01*
X136167356Y-62047467D01*
X136214077Y-61969519D01*
X136268212Y-61896525D01*
X136329242Y-61829190D01*
X136396577Y-61768160D01*
X136469571Y-61714024D01*
X136547519Y-61667304D01*
X136629671Y-61628449D01*
X136715236Y-61597833D01*
X136803390Y-61575752D01*
X136893284Y-61562417D01*
X136984052Y-61557958D01*
X137314781Y-61557958D01*
X139545219Y-61557958D01*
X139875948Y-61557958D01*
X139966716Y-61562417D01*
G37*
D11*
%TO.C,D1*%
X104866000Y-98948000D02*
X104866000Y-102248000D01*
X104866000Y-98948000D02*
X110376000Y-98948000D01*
X104866000Y-102248000D02*
X110376000Y-102248000D01*
%TO.C,J5*%
X138694000Y-111968000D02*
X138694000Y-113298000D01*
X137364000Y-111968000D02*
X138694000Y-111968000D01*
X136094000Y-111968000D02*
X125874000Y-111968000D01*
X136094000Y-111968000D02*
X136094000Y-114628000D01*
X125874000Y-111968000D02*
X125874000Y-114628000D01*
X136094000Y-114628000D02*
X125874000Y-114628000D01*
%TO.C,kibuzzard-6541D591*%
G36*
X129619375Y-109729588D02*
G01*
X129619375Y-109732763D01*
X129100262Y-109732763D01*
X129100262Y-109478763D01*
X129105025Y-109478763D01*
X129619375Y-109729588D01*
G37*
G36*
X129442369Y-107924600D02*
G01*
X129562225Y-107938888D01*
X129645569Y-107962700D01*
X129718792Y-108018659D01*
X129743200Y-108100813D01*
X129718792Y-108182966D01*
X129645569Y-108238925D01*
X129562225Y-108262738D01*
X129442369Y-108277025D01*
X129286000Y-108281788D01*
X129129631Y-108277025D01*
X129009775Y-108262738D01*
X128926431Y-108238925D01*
X128853208Y-108182966D01*
X128828800Y-108100813D01*
X128853208Y-108018659D01*
X128926431Y-107962700D01*
X129009775Y-107938888D01*
X129129631Y-107924600D01*
X129286000Y-107919837D01*
X129442369Y-107924600D01*
G37*
G36*
X130212042Y-106706458D02*
G01*
X130212042Y-107037187D01*
X130212042Y-107037188D01*
X130212042Y-110037563D01*
X130212042Y-110368292D01*
X130212042Y-110923917D01*
X128359958Y-110368292D01*
X128359958Y-110037563D01*
X128359958Y-109907388D01*
X128706562Y-109907388D01*
X128963737Y-109907388D01*
X128963737Y-110037563D01*
X129100262Y-110037563D01*
X129100262Y-109907388D01*
X129865437Y-109907388D01*
X129865437Y-109715300D01*
X129100262Y-109339063D01*
X128963737Y-109339063D01*
X128963737Y-109732763D01*
X128706562Y-109732763D01*
X128706562Y-109907388D01*
X128359958Y-109907388D01*
X128359958Y-108889800D01*
X128706562Y-108889800D01*
X128706562Y-109067600D01*
X129865437Y-109067600D01*
X129865437Y-108891388D01*
X129703512Y-108613575D01*
X129547937Y-108613575D01*
X129700337Y-108886625D01*
X129698750Y-108889800D01*
X128706562Y-108889800D01*
X128359958Y-108889800D01*
X128359958Y-108100813D01*
X128690687Y-108100813D01*
X128704181Y-108211144D01*
X128744662Y-108297663D01*
X128818084Y-108363345D01*
X128930400Y-108411169D01*
X129028472Y-108432776D01*
X129147006Y-108445741D01*
X129286000Y-108450063D01*
X129424994Y-108445741D01*
X129543528Y-108432776D01*
X129641600Y-108411169D01*
X129753916Y-108363345D01*
X129827337Y-108297663D01*
X129867819Y-108211144D01*
X129881313Y-108100813D01*
X129867819Y-107990481D01*
X129827337Y-107903963D01*
X129753916Y-107838280D01*
X129641600Y-107790456D01*
X129543528Y-107768849D01*
X129424994Y-107755884D01*
X129286000Y-107751563D01*
X129147006Y-107755884D01*
X129028472Y-107768849D01*
X128930400Y-107790456D01*
X128818084Y-107838280D01*
X128744662Y-107903963D01*
X128704181Y-107990481D01*
X128690687Y-108100813D01*
X128359958Y-108100813D01*
X128359958Y-107576938D01*
X128706562Y-107576938D01*
X128844675Y-107576938D01*
X128844675Y-107399137D01*
X129727325Y-107399137D01*
X129727325Y-107576938D01*
X129865437Y-107576938D01*
X129865437Y-107037187D01*
X129727325Y-107037187D01*
X129727325Y-107214988D01*
X128844675Y-107214988D01*
X128844675Y-107037187D01*
X128706562Y-107037187D01*
X128706562Y-107576938D01*
X128359958Y-107576938D01*
X128359958Y-107037187D01*
X128359958Y-106706458D01*
X128359958Y-106150833D01*
X130212042Y-106706458D01*
G37*
%TO.C,R3*%
X138764436Y-67859000D02*
X139218564Y-67859000D01*
X138764436Y-69329000D02*
X139218564Y-69329000D01*
D12*
%TO.C,U1*%
X142244000Y-76876000D02*
X142244000Y-92876000D01*
X134614000Y-76876000D02*
X142244000Y-76876000D01*
X118244000Y-76876000D02*
X118874000Y-76876000D01*
X142244000Y-92876000D02*
X134614000Y-92876000D01*
X118244000Y-92876000D02*
X118244000Y-76876000D01*
X118244000Y-92876000D02*
X118874000Y-92876000D01*
D13*
X133844000Y-74576000D02*
G75*
G03*
X133844000Y-74576000I-100000J0D01*
G01*
D11*
%TO.C,J6*%
X90643000Y-83803000D02*
X90643000Y-95803000D01*
X79643000Y-83803000D02*
X90643000Y-83803000D01*
X79643000Y-85303000D02*
X79643000Y-83803000D01*
X78443000Y-85303000D02*
X79643000Y-85303000D01*
X78443000Y-86803000D02*
X78443000Y-85303000D01*
X76643000Y-86803000D02*
X78443000Y-86803000D01*
X79643000Y-87803000D02*
X76643000Y-87803000D01*
X79643000Y-91803000D02*
X79643000Y-87803000D01*
X76643000Y-91803000D02*
X79643000Y-91803000D01*
X78443000Y-92803000D02*
X76643000Y-92803000D01*
X76643000Y-92803000D02*
X76643000Y-86803000D01*
X79643000Y-94303000D02*
X78443000Y-94303000D01*
X78443000Y-94303000D02*
X78443000Y-92803000D01*
X90643000Y-95803000D02*
X79643000Y-95803000D01*
X79643000Y-95803000D02*
X79643000Y-94303000D01*
%TO.C,C1*%
X102237000Y-93935252D02*
X102237000Y-93412748D01*
X103707000Y-93935252D02*
X103707000Y-93412748D01*
%TO.C,C8*%
X95885252Y-91543000D02*
X95362748Y-91543000D01*
X95885252Y-90073000D02*
X95362748Y-90073000D01*
%TO.C,C4*%
X120246000Y-73676252D02*
X120246000Y-73153748D01*
X121716000Y-73676252D02*
X121716000Y-73153748D01*
%TO.C,kibuzzard-6541E704*%
G36*
X140666788Y-99572762D02*
G01*
X140648619Y-99670658D01*
X140594115Y-99729396D01*
X140503275Y-99748975D01*
X140419733Y-99736275D01*
X140362781Y-99698175D01*
X140330039Y-99633087D01*
X140319125Y-99539425D01*
X140319125Y-99493387D01*
X140654087Y-99493387D01*
X140666788Y-99572762D01*
G37*
G36*
X140184188Y-99560062D02*
G01*
X140171091Y-99657694D01*
X140131800Y-99725162D01*
X140063934Y-99764453D01*
X139965113Y-99777550D01*
X139867680Y-99765445D01*
X139800806Y-99729131D01*
X139762111Y-99668211D01*
X139749213Y-99582287D01*
X139761912Y-99493387D01*
X140184188Y-99493387D01*
X140184188Y-99560062D01*
G37*
G36*
X140364369Y-102612825D02*
G01*
X140484225Y-102627112D01*
X140567569Y-102650925D01*
X140640792Y-102706884D01*
X140665200Y-102789037D01*
X140640792Y-102871191D01*
X140567569Y-102927150D01*
X140484225Y-102950962D01*
X140364369Y-102965250D01*
X140208000Y-102970012D01*
X140051631Y-102965250D01*
X139931775Y-102950962D01*
X139848431Y-102927150D01*
X139775208Y-102871191D01*
X139750800Y-102789037D01*
X139775208Y-102706884D01*
X139848431Y-102650925D01*
X139931775Y-102627112D01*
X140051631Y-102612825D01*
X140208000Y-102608062D01*
X140364369Y-102612825D01*
G37*
G36*
X140298768Y-98063276D02*
G01*
X140388662Y-98076610D01*
X140476816Y-98098692D01*
X140562381Y-98129307D01*
X140644533Y-98168162D01*
X140722481Y-98214883D01*
X140795475Y-98269018D01*
X140862810Y-98330048D01*
X140923840Y-98397384D01*
X140977976Y-98470377D01*
X141024696Y-98548325D01*
X141063551Y-98630478D01*
X141094167Y-98716043D01*
X141116248Y-98804197D01*
X141129583Y-98894090D01*
X141134042Y-98984858D01*
X141134042Y-99315587D01*
X141134042Y-103884412D01*
X141134042Y-104215142D01*
X141129583Y-104305910D01*
X141116248Y-104395803D01*
X141094167Y-104483957D01*
X141063551Y-104569522D01*
X141024696Y-104651675D01*
X140977976Y-104729623D01*
X140923840Y-104802616D01*
X140862810Y-104869952D01*
X140795475Y-104930982D01*
X140722481Y-104985117D01*
X140644533Y-105031837D01*
X140562381Y-105070693D01*
X140476816Y-105101308D01*
X140388662Y-105123390D01*
X140298768Y-105136724D01*
X140208000Y-105141183D01*
X140117232Y-105136724D01*
X140027338Y-105123390D01*
X139939184Y-105101308D01*
X139853619Y-105070693D01*
X139771467Y-105031837D01*
X139693519Y-104985117D01*
X139620525Y-104930982D01*
X139553190Y-104869952D01*
X139492160Y-104802616D01*
X139438024Y-104729623D01*
X139391304Y-104651675D01*
X139352449Y-104569522D01*
X139321833Y-104483957D01*
X139299752Y-104395803D01*
X139286417Y-104305910D01*
X139281958Y-104215142D01*
X139281958Y-103884412D01*
X139281958Y-103281162D01*
X139628563Y-103281162D01*
X139628563Y-103455787D01*
X140469938Y-103455787D01*
X140469938Y-103458962D01*
X139628563Y-103706612D01*
X139628563Y-103884412D01*
X140787437Y-103884412D01*
X140787437Y-103717725D01*
X139946063Y-103717725D01*
X139946063Y-103712962D01*
X140787437Y-103465312D01*
X140787437Y-103281162D01*
X139628563Y-103281162D01*
X139281958Y-103281162D01*
X139281958Y-102789037D01*
X139612688Y-102789037D01*
X139626181Y-102899369D01*
X139666663Y-102985887D01*
X139740084Y-103051570D01*
X139852400Y-103099394D01*
X139950472Y-103121001D01*
X140069006Y-103133966D01*
X140208000Y-103138287D01*
X140346994Y-103133966D01*
X140465528Y-103121001D01*
X140563600Y-103099394D01*
X140675916Y-103051570D01*
X140749337Y-102985887D01*
X140789819Y-102899369D01*
X140803313Y-102789037D01*
X140789819Y-102678706D01*
X140749337Y-102592187D01*
X140675916Y-102526505D01*
X140563600Y-102478681D01*
X140465528Y-102457074D01*
X140346994Y-102444109D01*
X140208000Y-102439787D01*
X140069006Y-102444109D01*
X139950472Y-102457074D01*
X139852400Y-102478681D01*
X139740084Y-102526505D01*
X139666663Y-102592187D01*
X139626181Y-102678706D01*
X139612688Y-102789037D01*
X139281958Y-102789037D01*
X139281958Y-102084187D01*
X139628563Y-102084187D01*
X140649325Y-102084187D01*
X140649325Y-102320725D01*
X140787437Y-102320725D01*
X140787437Y-101669850D01*
X140649325Y-101669850D01*
X140649325Y-101906387D01*
X139628563Y-101906387D01*
X139628563Y-102084187D01*
X139281958Y-102084187D01*
X139281958Y-101290437D01*
X139628563Y-101290437D01*
X140649325Y-101290437D01*
X140649325Y-101526975D01*
X140787437Y-101526975D01*
X140787437Y-100876100D01*
X140649325Y-100876100D01*
X140649325Y-101112637D01*
X139628563Y-101112637D01*
X139628563Y-101290437D01*
X139281958Y-101290437D01*
X139281958Y-100407787D01*
X139612688Y-100407787D01*
X139620801Y-100510358D01*
X139645143Y-100591585D01*
X139685713Y-100651469D01*
X139745332Y-100692479D01*
X139826824Y-100717085D01*
X139930188Y-100725287D01*
X140787437Y-100725287D01*
X140787437Y-100552250D01*
X139961937Y-100552250D01*
X139858155Y-100544312D01*
X139794456Y-100520500D01*
X139750800Y-100410962D01*
X139761912Y-100344684D01*
X139795250Y-100301425D01*
X139859147Y-100277612D01*
X139961937Y-100269675D01*
X140787437Y-100269675D01*
X140787437Y-100090287D01*
X139930188Y-100090287D01*
X139826824Y-100098490D01*
X139745332Y-100123096D01*
X139685713Y-100164106D01*
X139645143Y-100223990D01*
X139620801Y-100305217D01*
X139612688Y-100407787D01*
X139281958Y-100407787D01*
X139281958Y-99582287D01*
X139612688Y-99582287D01*
X139622389Y-99694824D01*
X139651493Y-99786899D01*
X139700000Y-99858512D01*
X139767910Y-99909665D01*
X139855222Y-99940357D01*
X139961937Y-99950587D01*
X140068300Y-99935308D01*
X140158788Y-99889469D01*
X140225066Y-99820611D01*
X140258800Y-99736275D01*
X140260387Y-99736275D01*
X140292931Y-99810689D01*
X140349288Y-99868831D01*
X140424694Y-99906336D01*
X140514388Y-99918837D01*
X140618401Y-99904994D01*
X140699300Y-99863465D01*
X140757085Y-99794250D01*
X140791756Y-99697349D01*
X140803313Y-99572762D01*
X140795375Y-99441794D01*
X140771563Y-99315587D01*
X139644437Y-99315587D01*
X139626799Y-99403076D01*
X139616215Y-99491976D01*
X139612688Y-99582287D01*
X139281958Y-99582287D01*
X139281958Y-99315587D01*
X139281958Y-98984858D01*
X139286417Y-98894090D01*
X139299752Y-98804197D01*
X139321833Y-98716043D01*
X139352449Y-98630478D01*
X139391304Y-98548325D01*
X139438024Y-98470377D01*
X139492160Y-98397384D01*
X139553190Y-98330048D01*
X139620525Y-98269018D01*
X139693519Y-98214883D01*
X139771467Y-98168162D01*
X139853619Y-98129307D01*
X139939184Y-98098692D01*
X140027338Y-98076610D01*
X140117232Y-98063276D01*
X140208000Y-98058817D01*
X140298768Y-98063276D01*
G37*
%TO.C,Q2*%
X133058500Y-67197000D02*
X133058500Y-65522000D01*
X133058500Y-67197000D02*
X133058500Y-67847000D01*
X129938500Y-67197000D02*
X129938500Y-66547000D01*
X129938500Y-67197000D02*
X129938500Y-67847000D01*
%TO.C,kibuzzard-6541E997*%
G36*
X87065660Y-104742417D02*
G01*
X87155553Y-104755752D01*
X87243707Y-104777833D01*
X87329272Y-104808449D01*
X87411425Y-104847304D01*
X87489373Y-104894024D01*
X87562366Y-104948160D01*
X87629702Y-105009190D01*
X87690732Y-105076525D01*
X87744867Y-105149519D01*
X87791587Y-105227467D01*
X87830443Y-105309619D01*
X87861058Y-105395184D01*
X87883140Y-105483338D01*
X87896474Y-105573232D01*
X87900933Y-105664000D01*
X87896474Y-105754768D01*
X87883140Y-105844662D01*
X87861058Y-105932816D01*
X87830443Y-106018381D01*
X87791587Y-106100533D01*
X87744867Y-106178481D01*
X87690732Y-106251475D01*
X87629702Y-106318810D01*
X87562366Y-106379840D01*
X87489373Y-106433976D01*
X87411425Y-106480696D01*
X87329272Y-106519551D01*
X87243707Y-106550167D01*
X87155553Y-106572248D01*
X87065660Y-106585583D01*
X86974892Y-106590042D01*
X86644162Y-106590042D01*
X86040912Y-106590042D01*
X85818662Y-106590042D01*
X84037487Y-106590042D01*
X83437412Y-106590042D01*
X82167412Y-106590042D01*
X82011837Y-106590042D01*
X81681108Y-106590042D01*
X81590340Y-106585583D01*
X81500447Y-106572248D01*
X81412293Y-106550167D01*
X81326728Y-106519551D01*
X81244575Y-106480696D01*
X81166627Y-106433976D01*
X81093634Y-106379840D01*
X81026298Y-106318810D01*
X80965268Y-106251475D01*
X80959307Y-106243437D01*
X82011837Y-106243437D01*
X82167412Y-106243437D01*
X82194400Y-105259187D01*
X82199162Y-105259187D01*
X82289650Y-105973563D01*
X82440462Y-105973563D01*
X82538887Y-105259187D01*
X82540475Y-105259187D01*
X82564287Y-106243437D01*
X82734150Y-106243437D01*
X82675412Y-105084563D01*
X82897662Y-105084563D01*
X82897662Y-105222675D01*
X83075462Y-105222675D01*
X83075462Y-106105325D01*
X82897662Y-106105325D01*
X82897662Y-106243437D01*
X83437412Y-106243437D01*
X83437412Y-106105325D01*
X83259612Y-106105325D01*
X83259612Y-105648125D01*
X83635850Y-105648125D01*
X83642126Y-105791372D01*
X83660952Y-105915520D01*
X83692330Y-106020567D01*
X83736259Y-106106516D01*
X83792740Y-106173364D01*
X83861771Y-106221113D01*
X83943354Y-106249763D01*
X84037487Y-106259312D01*
X84143453Y-106249391D01*
X84239100Y-106219625D01*
X84239100Y-106073575D01*
X84148612Y-106110484D01*
X84064475Y-106122787D01*
X83986864Y-106109602D01*
X83923364Y-106070047D01*
X83873975Y-106004122D01*
X83838697Y-105911826D01*
X83817531Y-105793161D01*
X83810475Y-105648125D01*
X83816869Y-105513761D01*
X83836051Y-105403826D01*
X83868022Y-105318322D01*
X83912781Y-105257247D01*
X83970327Y-105220602D01*
X84040662Y-105208387D01*
X84077175Y-105214737D01*
X84077175Y-105462387D01*
X84247037Y-105462387D01*
X84247037Y-105103613D01*
X84173436Y-105084563D01*
X85278912Y-105084563D01*
X85278912Y-105222675D01*
X85456712Y-105222675D01*
X85456712Y-106105325D01*
X85278912Y-106105325D01*
X85278912Y-106243437D01*
X85818662Y-106243437D01*
X85818662Y-106105325D01*
X85640862Y-106105325D01*
X85640862Y-105222675D01*
X85818662Y-105222675D01*
X85818662Y-105084563D01*
X86040912Y-105084563D01*
X86040912Y-106243437D01*
X86215537Y-106243437D01*
X86215537Y-105402062D01*
X86218712Y-105402062D01*
X86466362Y-106243437D01*
X86644162Y-106243437D01*
X86644162Y-105084563D01*
X86477475Y-105084563D01*
X86477475Y-105925937D01*
X86472712Y-105925937D01*
X86225062Y-105084563D01*
X86040912Y-105084563D01*
X85818662Y-105084563D01*
X85278912Y-105084563D01*
X84173436Y-105084563D01*
X84145834Y-105077419D01*
X84032725Y-105068687D01*
X83939707Y-105077741D01*
X83859092Y-105104902D01*
X83790879Y-105150171D01*
X83735069Y-105213547D01*
X83691661Y-105295030D01*
X83660655Y-105394621D01*
X83642051Y-105512319D01*
X83635850Y-105648125D01*
X83259612Y-105648125D01*
X83259612Y-105222675D01*
X83437412Y-105222675D01*
X83437412Y-105084563D01*
X82897662Y-105084563D01*
X82675412Y-105084563D01*
X82475387Y-105084563D01*
X82380137Y-105822750D01*
X82376962Y-105822750D01*
X82280125Y-105084563D01*
X82072162Y-105084563D01*
X82011837Y-106243437D01*
X80959307Y-106243437D01*
X80911133Y-106178481D01*
X80864413Y-106100533D01*
X80825557Y-106018381D01*
X80794942Y-105932816D01*
X80772860Y-105844662D01*
X80759526Y-105754768D01*
X80755067Y-105664000D01*
X80759526Y-105573232D01*
X80772860Y-105483338D01*
X80794942Y-105395184D01*
X80825557Y-105309619D01*
X80864413Y-105227467D01*
X80911133Y-105149519D01*
X80965268Y-105076525D01*
X81026298Y-105009190D01*
X81093634Y-104948160D01*
X81166627Y-104894024D01*
X81244575Y-104847304D01*
X81326728Y-104808449D01*
X81412293Y-104777833D01*
X81500447Y-104755752D01*
X81590340Y-104742417D01*
X81681108Y-104737958D01*
X82011837Y-104737958D01*
X86644162Y-104737958D01*
X86974892Y-104737958D01*
X87065660Y-104742417D01*
G37*
%TO.C,R2*%
X130541000Y-72402936D02*
X130541000Y-72857064D01*
X129071000Y-72402936D02*
X129071000Y-72857064D01*
%TO.C,R6*%
X128042564Y-70331000D02*
X127588436Y-70331000D01*
X128042564Y-68861000D02*
X127588436Y-68861000D01*
%TO.C,Q3*%
X102326000Y-84836000D02*
X102326000Y-86511000D01*
X102326000Y-84836000D02*
X102326000Y-84186000D01*
X105446000Y-84836000D02*
X105446000Y-85486000D01*
X105446000Y-84836000D02*
X105446000Y-84186000D01*
%TO.C,kibuzzard-6541E98B*%
G36*
X82359500Y-81919763D02*
G01*
X82142013Y-81919763D01*
X82249963Y-81375250D01*
X82251550Y-81375250D01*
X82359500Y-81919763D01*
G37*
G36*
X86945819Y-80874317D02*
G01*
X87034942Y-80887537D01*
X87122341Y-80909429D01*
X87207172Y-80939782D01*
X87288620Y-80978304D01*
X87365901Y-81024624D01*
X87438268Y-81078296D01*
X87505027Y-81138802D01*
X87565533Y-81205561D01*
X87619205Y-81277929D01*
X87665525Y-81355209D01*
X87704047Y-81436657D01*
X87734400Y-81521488D01*
X87756292Y-81608887D01*
X87769512Y-81698010D01*
X87773933Y-81788000D01*
X87769512Y-81877990D01*
X87756292Y-81967113D01*
X87734400Y-82054512D01*
X87704047Y-82139343D01*
X87665525Y-82220791D01*
X87619205Y-82298071D01*
X87565533Y-82370439D01*
X87505027Y-82437198D01*
X87438268Y-82497704D01*
X87365901Y-82551376D01*
X87288620Y-82597696D01*
X87207172Y-82636218D01*
X87122341Y-82666571D01*
X87034942Y-82688463D01*
X86945819Y-82701683D01*
X86855829Y-82706104D01*
X86525100Y-82706104D01*
X85921850Y-82706104D01*
X85699600Y-82706104D01*
X84178775Y-82706104D01*
X83048475Y-82706104D01*
X81876900Y-82706104D01*
X81546171Y-82706104D01*
X81456181Y-82701683D01*
X81367058Y-82688463D01*
X81279659Y-82666571D01*
X81194828Y-82636218D01*
X81113380Y-82597696D01*
X81036100Y-82551376D01*
X80963732Y-82497704D01*
X80896973Y-82437198D01*
X80836467Y-82370439D01*
X80828354Y-82359500D01*
X81876900Y-82359500D01*
X82054700Y-82359500D01*
X82115025Y-82054700D01*
X82386488Y-82054700D01*
X82446813Y-82359500D01*
X82630963Y-82359500D01*
X82356325Y-81200625D01*
X82730975Y-81200625D01*
X82730975Y-82057875D01*
X82739177Y-82161239D01*
X82763783Y-82242731D01*
X82804794Y-82302350D01*
X82864678Y-82342919D01*
X82945905Y-82367261D01*
X83048475Y-82375375D01*
X83151045Y-82367261D01*
X83176943Y-82359500D01*
X83504088Y-82359500D01*
X83691413Y-82359500D01*
X83835875Y-81895950D01*
X83839050Y-81895950D01*
X83985100Y-82359500D01*
X84178775Y-82359500D01*
X83953350Y-81768950D01*
X84175600Y-81200625D01*
X85159850Y-81200625D01*
X85159850Y-81338737D01*
X85337650Y-81338737D01*
X85337650Y-82221388D01*
X85159850Y-82221388D01*
X85159850Y-82359500D01*
X85699600Y-82359500D01*
X85699600Y-82221388D01*
X85521800Y-82221388D01*
X85521800Y-81338737D01*
X85699600Y-81338737D01*
X85699600Y-81200625D01*
X85921850Y-81200625D01*
X85921850Y-82359500D01*
X86096475Y-82359500D01*
X86096475Y-81518125D01*
X86099650Y-81518125D01*
X86347300Y-82359500D01*
X86525100Y-82359500D01*
X86525100Y-81200625D01*
X86358413Y-81200625D01*
X86358413Y-82042000D01*
X86353650Y-82042000D01*
X86106000Y-81200625D01*
X85921850Y-81200625D01*
X85699600Y-81200625D01*
X85159850Y-81200625D01*
X84175600Y-81200625D01*
X83991450Y-81200625D01*
X83845400Y-81645125D01*
X83842225Y-81645125D01*
X83697763Y-81200625D01*
X83508850Y-81200625D01*
X83731100Y-81768950D01*
X83504088Y-82359500D01*
X83176943Y-82359500D01*
X83232272Y-82342919D01*
X83292156Y-82302350D01*
X83333167Y-82242731D01*
X83357773Y-82161239D01*
X83365975Y-82057875D01*
X83365975Y-81200625D01*
X83192938Y-81200625D01*
X83192938Y-82026125D01*
X83185000Y-82129908D01*
X83161188Y-82193606D01*
X83051650Y-82237263D01*
X82985372Y-82226150D01*
X82942113Y-82192813D01*
X82918300Y-82128916D01*
X82910363Y-82026125D01*
X82910363Y-81200625D01*
X82730975Y-81200625D01*
X82356325Y-81200625D01*
X82149950Y-81200625D01*
X81876900Y-82359500D01*
X80828354Y-82359500D01*
X80782795Y-82298071D01*
X80736475Y-82220791D01*
X80697953Y-82139343D01*
X80667600Y-82054512D01*
X80645708Y-81967113D01*
X80632488Y-81877990D01*
X80628067Y-81788000D01*
X80632488Y-81698010D01*
X80645708Y-81608887D01*
X80667600Y-81521488D01*
X80697953Y-81436657D01*
X80736475Y-81355209D01*
X80782795Y-81277929D01*
X80836467Y-81205561D01*
X80896973Y-81138802D01*
X80963732Y-81078296D01*
X81036100Y-81024624D01*
X81113380Y-80978304D01*
X81194828Y-80939782D01*
X81279659Y-80909429D01*
X81367058Y-80887537D01*
X81456181Y-80874317D01*
X81546171Y-80869896D01*
X81876900Y-80869896D01*
X86525100Y-80869896D01*
X86855829Y-80869896D01*
X86945819Y-80874317D01*
G37*
%TO.C,C11*%
X96731252Y-109461000D02*
X96208748Y-109461000D01*
X96731252Y-107991000D02*
X96208748Y-107991000D01*
%TO.C,kibuzzard-6541D5B9*%
G36*
X126902369Y-107976988D02*
G01*
X127022225Y-107991275D01*
X127105569Y-108015088D01*
X127178792Y-108071047D01*
X127203200Y-108153200D01*
X127178792Y-108235353D01*
X127105569Y-108291313D01*
X127022225Y-108315125D01*
X126902369Y-108329413D01*
X126746000Y-108334175D01*
X126589631Y-108329413D01*
X126469775Y-108315125D01*
X126386431Y-108291313D01*
X126313208Y-108235353D01*
X126288800Y-108153200D01*
X126313208Y-108071047D01*
X126386431Y-108015088D01*
X126469775Y-107991275D01*
X126589631Y-107976988D01*
X126746000Y-107972225D01*
X126902369Y-107976988D01*
G37*
G36*
X127672042Y-106758846D02*
G01*
X127672042Y-107089575D01*
X127672042Y-110037563D01*
X127672042Y-110368292D01*
X127672042Y-110923917D01*
X125819958Y-110368292D01*
X125819958Y-110037563D01*
X125819958Y-109693075D01*
X126150687Y-109693075D01*
X126160565Y-109801907D01*
X126190199Y-109889220D01*
X126239587Y-109955013D01*
X126311907Y-110000874D01*
X126410332Y-110028391D01*
X126534862Y-110037563D01*
X126669165Y-110027403D01*
X126773623Y-109996923D01*
X126848235Y-109946123D01*
X126893002Y-109875003D01*
X126907925Y-109783563D01*
X126898003Y-109708157D01*
X126868237Y-109643863D01*
X126868237Y-109640688D01*
X127188912Y-109651800D01*
X127188912Y-110005813D01*
X127325437Y-110005813D01*
X127325437Y-109489875D01*
X126709487Y-109474000D01*
X126709487Y-109620050D01*
X126757112Y-109675216D01*
X126772987Y-109735938D01*
X126718219Y-109829600D01*
X126644995Y-109852222D01*
X126534862Y-109859763D01*
X126418777Y-109849047D01*
X126343569Y-109816900D01*
X126302492Y-109761338D01*
X126288800Y-109680375D01*
X126303881Y-109574410D01*
X126349125Y-109466063D01*
X126198312Y-109466063D01*
X126162594Y-109575203D01*
X126150687Y-109693075D01*
X125819958Y-109693075D01*
X125819958Y-108942188D01*
X126166562Y-108942188D01*
X126166562Y-109119988D01*
X127325437Y-109119988D01*
X127325437Y-108943775D01*
X127163512Y-108665963D01*
X127007937Y-108665963D01*
X127160337Y-108939013D01*
X127158750Y-108942188D01*
X126166562Y-108942188D01*
X125819958Y-108942188D01*
X125819958Y-108153200D01*
X126150687Y-108153200D01*
X126164181Y-108263532D01*
X126204662Y-108350050D01*
X126278084Y-108415733D01*
X126390400Y-108463557D01*
X126488472Y-108485164D01*
X126607006Y-108498129D01*
X126746000Y-108502450D01*
X126884994Y-108498129D01*
X127003528Y-108485164D01*
X127101600Y-108463557D01*
X127213916Y-108415733D01*
X127287337Y-108350050D01*
X127327819Y-108263532D01*
X127341313Y-108153200D01*
X127327819Y-108042869D01*
X127287337Y-107956350D01*
X127213916Y-107890667D01*
X127101600Y-107842844D01*
X127003528Y-107821236D01*
X126884994Y-107808272D01*
X126746000Y-107803950D01*
X126607006Y-107808272D01*
X126488472Y-107821236D01*
X126390400Y-107842844D01*
X126278084Y-107890667D01*
X126204662Y-107956350D01*
X126164181Y-108042869D01*
X126150687Y-108153200D01*
X125819958Y-108153200D01*
X125819958Y-107629325D01*
X126166562Y-107629325D01*
X126304675Y-107629325D01*
X126304675Y-107451525D01*
X127187325Y-107451525D01*
X127187325Y-107629325D01*
X127325437Y-107629325D01*
X127325437Y-107089575D01*
X127187325Y-107089575D01*
X127187325Y-107267375D01*
X126304675Y-107267375D01*
X126304675Y-107089575D01*
X126166562Y-107089575D01*
X126166562Y-107629325D01*
X125819958Y-107629325D01*
X125819958Y-107089575D01*
X125819958Y-106758846D01*
X125819958Y-106203221D01*
X127672042Y-106758846D01*
G37*
%TO.C,C7*%
X87587252Y-103868000D02*
X87064748Y-103868000D01*
X87587252Y-102398000D02*
X87064748Y-102398000D01*
%TO.C,Q1*%
X133621500Y-67197000D02*
X133621500Y-68872000D01*
X133621500Y-67197000D02*
X133621500Y-66547000D01*
X136741500Y-67197000D02*
X136741500Y-67847000D01*
X136741500Y-67197000D02*
X136741500Y-66547000D01*
%TO.C,R15*%
X98729064Y-106921000D02*
X98274936Y-106921000D01*
X98729064Y-105451000D02*
X98274936Y-105451000D01*
%TO.C,R9*%
X95917064Y-84723000D02*
X95462936Y-84723000D01*
X95917064Y-83253000D02*
X95462936Y-83253000D01*
%TO.C,R12*%
X87553064Y-101328000D02*
X87098936Y-101328000D01*
X87553064Y-99858000D02*
X87098936Y-99858000D01*
%TO.C,D2*%
X127618000Y-56064000D02*
X134918000Y-56064000D01*
X127618000Y-61564000D02*
X134918000Y-61564000D01*
X134918000Y-61564000D02*
X134918000Y-60414000D01*
%TO.C,R7*%
X107910564Y-82537000D02*
X107456436Y-82537000D01*
X107910564Y-81067000D02*
X107456436Y-81067000D01*
%TO.C,R10*%
X95917064Y-95137000D02*
X95462936Y-95137000D01*
X95917064Y-93667000D02*
X95462936Y-93667000D01*
%TO.C,C9*%
X95885252Y-88533000D02*
X95362748Y-88533000D01*
X95885252Y-87063000D02*
X95362748Y-87063000D01*
%TO.C,C3*%
X118087000Y-73615252D02*
X118087000Y-73092748D01*
X119557000Y-73615252D02*
X119557000Y-73092748D01*
%TO.C,J3*%
X127247000Y-56051000D02*
X127247000Y-55311000D01*
X127247000Y-55311000D02*
X126747000Y-55311000D01*
X127007000Y-65472000D02*
X127007000Y-55551000D01*
X127007000Y-65472000D02*
X106886000Y-65472000D01*
X127007000Y-62512000D02*
X106886000Y-62512000D01*
X127007000Y-57611000D02*
X106886000Y-57611000D01*
X127007000Y-56111000D02*
X106886000Y-56111000D01*
X127007000Y-55551000D02*
X106886000Y-55551000D01*
X120674000Y-59188000D02*
X120721000Y-59142000D01*
X120481000Y-58972000D02*
X120516000Y-58937000D01*
X118377000Y-61486000D02*
X118412000Y-61450000D01*
X118172000Y-61280000D02*
X118219000Y-61234000D01*
X115674000Y-59188000D02*
X115721000Y-59142000D01*
X115481000Y-58972000D02*
X115516000Y-58937000D01*
X113377000Y-61486000D02*
X113412000Y-61450000D01*
X113172000Y-61280000D02*
X113219000Y-61234000D01*
X110674000Y-59188000D02*
X110721000Y-59142000D01*
X110481000Y-58972000D02*
X110516000Y-58937000D01*
X108377000Y-61486000D02*
X108412000Y-61450000D01*
X108172000Y-61280000D02*
X108219000Y-61234000D01*
X106886000Y-65472000D02*
X106886000Y-55551000D01*
X125981999Y-60894999D02*
G75*
G03*
X125982426Y-59527958I-1534992J684000D01*
G01*
X123763001Y-61745999D02*
G75*
G03*
X125130042Y-61746426I684000J1534992D01*
G01*
X125131000Y-58676001D02*
G75*
G03*
X124418195Y-58530748I-683999J-1535000D01*
G01*
X124447000Y-58531001D02*
G75*
G03*
X123763682Y-58676245I0J-1679999D01*
G01*
X122912000Y-59527000D02*
G75*
G03*
X122911574Y-60894042I1535000J-684000D01*
G01*
X121127000Y-60211000D02*
G75*
G03*
X121127000Y-60211000I-1680000J0D01*
G01*
X116127000Y-60211000D02*
G75*
G03*
X116127000Y-60211000I-1680000J0D01*
G01*
X111127000Y-60211000D02*
G75*
G03*
X111127000Y-60211000I-1680000J0D01*
G01*
%TO.C,kibuzzard-6541D5D1*%
G36*
X131982369Y-107969050D02*
G01*
X132102225Y-107983337D01*
X132185569Y-108007150D01*
X132258792Y-108063109D01*
X132283200Y-108145263D01*
X132258792Y-108227416D01*
X132185569Y-108283375D01*
X132102225Y-108307188D01*
X131982369Y-108321475D01*
X131826000Y-108326238D01*
X131669631Y-108321475D01*
X131549775Y-108307188D01*
X131466431Y-108283375D01*
X131393208Y-108227416D01*
X131368800Y-108145263D01*
X131393208Y-108063109D01*
X131466431Y-108007150D01*
X131549775Y-107983337D01*
X131669631Y-107969050D01*
X131826000Y-107964287D01*
X131982369Y-107969050D01*
G37*
G36*
X132752042Y-106750908D02*
G01*
X132752042Y-107081637D01*
X132752042Y-107081638D01*
X132752042Y-110037563D01*
X132752042Y-110368292D01*
X132752042Y-110923917D01*
X130899958Y-110368292D01*
X130899958Y-110037563D01*
X130899958Y-109680375D01*
X131230687Y-109680375D01*
X131240389Y-109789516D01*
X131269493Y-109878813D01*
X131318000Y-109948266D01*
X131385910Y-109997875D01*
X131473222Y-110027641D01*
X131579937Y-110037563D01*
X131691459Y-110024664D01*
X131776787Y-109985969D01*
X131835922Y-109921477D01*
X131868862Y-109831188D01*
X131870450Y-109831188D01*
X131910832Y-109914531D01*
X131971653Y-109974062D01*
X132052913Y-110009781D01*
X132154612Y-110021688D01*
X132266333Y-110001844D01*
X132350669Y-109942313D01*
X132403652Y-109845872D01*
X132421313Y-109715300D01*
X132415139Y-109629222D01*
X132396618Y-109540322D01*
X132365750Y-109448600D01*
X132218112Y-109448600D01*
X132268119Y-109571631D01*
X132284787Y-109683550D01*
X132267854Y-109775272D01*
X132217054Y-109830306D01*
X132132387Y-109848650D01*
X132043091Y-109834363D01*
X131981575Y-109791500D01*
X131945856Y-109716491D01*
X131933950Y-109605762D01*
X131933950Y-109574013D01*
X131794250Y-109574013D01*
X131794250Y-109605762D01*
X131782145Y-109724825D01*
X131745831Y-109802612D01*
X131682133Y-109845475D01*
X131587875Y-109859763D01*
X131492030Y-109847261D01*
X131423569Y-109809756D01*
X131382492Y-109747248D01*
X131368800Y-109659738D01*
X131385072Y-109541866D01*
X131433887Y-109426375D01*
X131281487Y-109426375D01*
X131243387Y-109550994D01*
X131230687Y-109680375D01*
X130899958Y-109680375D01*
X130899958Y-108934250D01*
X131246562Y-108934250D01*
X131246562Y-109112050D01*
X132405437Y-109112050D01*
X132405437Y-108935837D01*
X132243512Y-108658025D01*
X132087937Y-108658025D01*
X132240337Y-108931075D01*
X132238750Y-108934250D01*
X131246562Y-108934250D01*
X130899958Y-108934250D01*
X130899958Y-108145263D01*
X131230687Y-108145263D01*
X131244181Y-108255594D01*
X131284662Y-108342112D01*
X131358084Y-108407795D01*
X131470400Y-108455619D01*
X131568472Y-108477226D01*
X131687006Y-108490191D01*
X131826000Y-108494513D01*
X131964994Y-108490191D01*
X132083528Y-108477226D01*
X132181600Y-108455619D01*
X132293916Y-108407795D01*
X132367337Y-108342112D01*
X132407819Y-108255594D01*
X132421313Y-108145263D01*
X132407819Y-108034931D01*
X132367337Y-107948413D01*
X132293916Y-107882730D01*
X132181600Y-107834906D01*
X132083528Y-107813299D01*
X131964994Y-107800334D01*
X131826000Y-107796012D01*
X131687006Y-107800334D01*
X131568472Y-107813299D01*
X131470400Y-107834906D01*
X131358084Y-107882730D01*
X131284662Y-107948413D01*
X131244181Y-108034931D01*
X131230687Y-108145263D01*
X130899958Y-108145263D01*
X130899958Y-107621387D01*
X131246562Y-107621387D01*
X131384675Y-107621387D01*
X131384675Y-107443587D01*
X132267325Y-107443587D01*
X132267325Y-107621387D01*
X132405437Y-107621387D01*
X132405437Y-107081637D01*
X132267325Y-107081637D01*
X132267325Y-107259437D01*
X131384675Y-107259437D01*
X131384675Y-107081637D01*
X131246562Y-107081637D01*
X131246562Y-107621387D01*
X130899958Y-107621387D01*
X130899958Y-107081637D01*
X130899958Y-106750908D01*
X130899958Y-106195283D01*
X132752042Y-106750908D01*
G37*
%TO.C,R1*%
X134351000Y-72402936D02*
X134351000Y-72857064D01*
X132881000Y-72402936D02*
X132881000Y-72857064D01*
%TO.C,K1*%
X96298000Y-77839500D02*
X96298000Y-55139500D01*
X96298000Y-55139500D02*
X79598000Y-55139500D01*
X92448000Y-72989500D02*
X89298000Y-72989500D01*
X88948000Y-78099500D02*
X86948000Y-78099500D01*
X88298000Y-73589500D02*
X88298000Y-72389500D01*
X88298000Y-72789500D02*
X87598000Y-73189500D01*
X88298000Y-72389500D02*
X87598000Y-72389500D01*
X87598000Y-73589500D02*
X88298000Y-73589500D01*
X87598000Y-72389500D02*
X87598000Y-73589500D01*
X86598000Y-72989500D02*
X83448000Y-72989500D01*
X79598000Y-77839500D02*
X96298000Y-77839500D01*
X79598000Y-55139500D02*
X79598000Y-77839500D01*
%TO.C,C2*%
X109771252Y-88887000D02*
X109248748Y-88887000D01*
X109771252Y-87417000D02*
X109248748Y-87417000D01*
%TO.C,J4*%
X103605000Y-113902000D02*
X103605000Y-114642000D01*
X103605000Y-114642000D02*
X104105000Y-114642000D01*
X103845000Y-104481000D02*
X103845000Y-114402000D01*
X103845000Y-104481000D02*
X113965000Y-104481000D01*
X103845000Y-107441000D02*
X113965000Y-107441000D01*
X103845000Y-112342000D02*
X113965000Y-112342000D01*
X103845000Y-113842000D02*
X113965000Y-113842000D01*
X103845000Y-114402000D02*
X113965000Y-114402000D01*
X110178000Y-110765000D02*
X110131000Y-110811000D01*
X110371000Y-110981000D02*
X110336000Y-111016000D01*
X112475000Y-108467000D02*
X112440000Y-108503000D01*
X112680000Y-108673000D02*
X112633000Y-108719000D01*
X113965000Y-104481000D02*
X113965000Y-114402000D01*
X104870001Y-109058001D02*
G75*
G03*
X104869574Y-110425042I1534992J-684000D01*
G01*
X107088999Y-108207001D02*
G75*
G03*
X105721958Y-108206574I-684000J-1534992D01*
G01*
X105721000Y-111276999D02*
G75*
G03*
X106433805Y-111422252I683999J1535000D01*
G01*
X106405000Y-111421999D02*
G75*
G03*
X107088318Y-111276755I0J1679999D01*
G01*
X107940000Y-110426000D02*
G75*
G03*
X107940426Y-109058958I-1535000J684000D01*
G01*
X113085000Y-109742000D02*
G75*
G03*
X113085000Y-109742000I-1680000J0D01*
G01*
%TO.C,F2*%
X104979000Y-56818000D02*
X104004000Y-56818000D01*
X98629000Y-56818000D02*
X99604000Y-56818000D01*
X104979000Y-63068000D02*
X104979000Y-56818000D01*
X104979000Y-63068000D02*
X103504000Y-63068000D01*
X98629000Y-63068000D02*
X98629000Y-56818000D01*
X98629000Y-63068000D02*
X100104000Y-63068000D01*
X104979000Y-73168000D02*
X103404000Y-73168000D01*
X104304000Y-73168000D02*
X104304000Y-63068000D01*
X99304000Y-73168000D02*
X99304000Y-63068000D01*
X98629000Y-73168000D02*
X100204000Y-73168000D01*
X98629000Y-73168000D02*
X98629000Y-79418000D01*
X104979000Y-79418000D02*
X104979000Y-73168000D01*
X103904000Y-79418000D02*
X104979000Y-79418000D01*
X99704000Y-79418000D02*
X98629000Y-79418000D01*
%TO.C,C5*%
X106616677Y-73339000D02*
X107616677Y-73339000D01*
X107116677Y-72839000D02*
X107116677Y-73839000D01*
X112096323Y-71134000D02*
X112096323Y-81294000D01*
X112136323Y-71134000D02*
X112136323Y-81294000D01*
X112176323Y-71134000D02*
X112176323Y-81294000D01*
X112216323Y-71135000D02*
X112216323Y-81293000D01*
X112256323Y-71136000D02*
X112256323Y-81292000D01*
X112296323Y-71137000D02*
X112296323Y-81291000D01*
X112336323Y-71139000D02*
X112336323Y-81289000D01*
X112376323Y-71141000D02*
X112376323Y-81287000D01*
X112416323Y-71144000D02*
X112416323Y-81284000D01*
X112456323Y-71146000D02*
X112456323Y-81282000D01*
X112496323Y-71149000D02*
X112496323Y-81279000D01*
X112536323Y-71152000D02*
X112536323Y-81276000D01*
X112576323Y-71156000D02*
X112576323Y-81272000D01*
X112616323Y-71160000D02*
X112616323Y-81268000D01*
X112656323Y-71164000D02*
X112656323Y-81264000D01*
X112696323Y-71169000D02*
X112696323Y-81259000D01*
X112736323Y-71174000D02*
X112736323Y-81254000D01*
X112776323Y-71179000D02*
X112776323Y-81249000D01*
X112817323Y-71184000D02*
X112817323Y-81244000D01*
X112857323Y-71190000D02*
X112857323Y-81238000D01*
X112897323Y-71196000D02*
X112897323Y-81232000D01*
X112937323Y-71203000D02*
X112937323Y-81225000D01*
X112977323Y-71210000D02*
X112977323Y-81218000D01*
X113017323Y-71217000D02*
X113017323Y-81211000D01*
X113057323Y-71224000D02*
X113057323Y-81204000D01*
X113097323Y-71232000D02*
X113097323Y-81196000D01*
X113137323Y-71240000D02*
X113137323Y-81188000D01*
X113177323Y-71249000D02*
X113177323Y-81179000D01*
X113217323Y-71258000D02*
X113217323Y-81170000D01*
X113257323Y-71267000D02*
X113257323Y-81161000D01*
X113297323Y-71276000D02*
X113297323Y-81152000D01*
X113337323Y-71286000D02*
X113337323Y-81142000D01*
X113377323Y-71296000D02*
X113377323Y-74973000D01*
X113377323Y-77455000D02*
X113377323Y-81132000D01*
X113417323Y-71307000D02*
X113417323Y-74973000D01*
X113417323Y-77455000D02*
X113417323Y-81121000D01*
X113457323Y-71317000D02*
X113457323Y-74973000D01*
X113457323Y-77455000D02*
X113457323Y-81111000D01*
X113497323Y-71329000D02*
X113497323Y-74973000D01*
X113497323Y-77455000D02*
X113497323Y-81099000D01*
X113537323Y-71340000D02*
X113537323Y-74973000D01*
X113537323Y-77455000D02*
X113537323Y-81088000D01*
X113577323Y-71352000D02*
X113577323Y-74973000D01*
X113577323Y-77455000D02*
X113577323Y-81076000D01*
X113617323Y-71364000D02*
X113617323Y-74973000D01*
X113617323Y-77455000D02*
X113617323Y-81064000D01*
X113657323Y-71377000D02*
X113657323Y-74973000D01*
X113657323Y-77455000D02*
X113657323Y-81051000D01*
X113697323Y-71390000D02*
X113697323Y-74973000D01*
X113697323Y-77455000D02*
X113697323Y-81038000D01*
X113737323Y-71403000D02*
X113737323Y-74973000D01*
X113737323Y-77455000D02*
X113737323Y-81025000D01*
X113777323Y-71417000D02*
X113777323Y-74973000D01*
X113777323Y-77455000D02*
X113777323Y-81011000D01*
X113817323Y-71431000D02*
X113817323Y-74973000D01*
X113817323Y-77455000D02*
X113817323Y-80997000D01*
X113857323Y-71446000D02*
X113857323Y-74973000D01*
X113857323Y-77455000D02*
X113857323Y-80982000D01*
X113897323Y-71460000D02*
X113897323Y-74973000D01*
X113897323Y-77455000D02*
X113897323Y-80968000D01*
X113937323Y-71476000D02*
X113937323Y-74973000D01*
X113937323Y-77455000D02*
X113937323Y-80952000D01*
X113977323Y-71491000D02*
X113977323Y-74973000D01*
X113977323Y-77455000D02*
X113977323Y-80937000D01*
X114017323Y-71507000D02*
X114017323Y-74973000D01*
X114017323Y-77455000D02*
X114017323Y-80921000D01*
X114057323Y-71524000D02*
X114057323Y-74973000D01*
X114057323Y-77455000D02*
X114057323Y-80904000D01*
X114097323Y-71540000D02*
X114097323Y-74973000D01*
X114097323Y-77455000D02*
X114097323Y-80888000D01*
X114137323Y-71557000D02*
X114137323Y-74973000D01*
X114137323Y-77455000D02*
X114137323Y-80871000D01*
X114177323Y-71575000D02*
X114177323Y-74973000D01*
X114177323Y-77455000D02*
X114177323Y-80853000D01*
X114217323Y-71593000D02*
X114217323Y-74973000D01*
X114217323Y-77455000D02*
X114217323Y-80835000D01*
X114257323Y-71611000D02*
X114257323Y-74973000D01*
X114257323Y-77455000D02*
X114257323Y-80817000D01*
X114297323Y-71630000D02*
X114297323Y-74973000D01*
X114297323Y-77455000D02*
X114297323Y-80798000D01*
X114337323Y-71650000D02*
X114337323Y-74973000D01*
X114337323Y-77455000D02*
X114337323Y-80778000D01*
X114377323Y-71669000D02*
X114377323Y-74973000D01*
X114377323Y-77455000D02*
X114377323Y-80759000D01*
X114417323Y-71689000D02*
X114417323Y-74973000D01*
X114417323Y-77455000D02*
X114417323Y-80739000D01*
X114457323Y-71710000D02*
X114457323Y-74973000D01*
X114457323Y-77455000D02*
X114457323Y-80718000D01*
X114497323Y-71731000D02*
X114497323Y-74973000D01*
X114497323Y-77455000D02*
X114497323Y-80697000D01*
X114537323Y-71752000D02*
X114537323Y-74973000D01*
X114537323Y-77455000D02*
X114537323Y-80676000D01*
X114577323Y-71774000D02*
X114577323Y-74973000D01*
X114577323Y-77455000D02*
X114577323Y-80654000D01*
X114617323Y-71797000D02*
X114617323Y-74973000D01*
X114617323Y-77455000D02*
X114617323Y-80631000D01*
X114657323Y-71819000D02*
X114657323Y-74973000D01*
X114657323Y-77455000D02*
X114657323Y-80609000D01*
X114697323Y-71843000D02*
X114697323Y-74973000D01*
X114697323Y-77455000D02*
X114697323Y-80585000D01*
X114737323Y-71867000D02*
X114737323Y-74973000D01*
X114737323Y-77455000D02*
X114737323Y-80561000D01*
X114777323Y-71891000D02*
X114777323Y-74973000D01*
X114777323Y-77455000D02*
X114777323Y-80537000D01*
X114817323Y-71916000D02*
X114817323Y-74973000D01*
X114817323Y-77455000D02*
X114817323Y-80512000D01*
X114857323Y-71941000D02*
X114857323Y-74973000D01*
X114857323Y-77455000D02*
X114857323Y-80487000D01*
X114897323Y-71967000D02*
X114897323Y-74973000D01*
X114897323Y-77455000D02*
X114897323Y-80461000D01*
X114937323Y-71993000D02*
X114937323Y-74973000D01*
X114937323Y-77455000D02*
X114937323Y-80435000D01*
X114977323Y-72020000D02*
X114977323Y-74973000D01*
X114977323Y-77455000D02*
X114977323Y-80408000D01*
X115017323Y-72048000D02*
X115017323Y-74973000D01*
X115017323Y-77455000D02*
X115017323Y-80380000D01*
X115057323Y-72076000D02*
X115057323Y-74973000D01*
X115057323Y-77455000D02*
X115057323Y-80352000D01*
X115097323Y-72104000D02*
X115097323Y-74973000D01*
X115097323Y-77455000D02*
X115097323Y-80324000D01*
X115137323Y-72134000D02*
X115137323Y-74973000D01*
X115137323Y-77455000D02*
X115137323Y-80294000D01*
X115177323Y-72164000D02*
X115177323Y-74973000D01*
X115177323Y-77455000D02*
X115177323Y-80264000D01*
X115217323Y-72194000D02*
X115217323Y-74973000D01*
X115217323Y-77455000D02*
X115217323Y-80234000D01*
X115257323Y-72225000D02*
X115257323Y-74973000D01*
X115257323Y-77455000D02*
X115257323Y-80203000D01*
X115297323Y-72257000D02*
X115297323Y-74973000D01*
X115297323Y-77455000D02*
X115297323Y-80171000D01*
X115337323Y-72289000D02*
X115337323Y-74973000D01*
X115337323Y-77455000D02*
X115337323Y-80139000D01*
X115377323Y-72322000D02*
X115377323Y-74973000D01*
X115377323Y-77455000D02*
X115377323Y-80106000D01*
X115417323Y-72356000D02*
X115417323Y-74973000D01*
X115417323Y-77455000D02*
X115417323Y-80072000D01*
X115457323Y-72390000D02*
X115457323Y-74973000D01*
X115457323Y-77455000D02*
X115457323Y-80038000D01*
X115497323Y-72425000D02*
X115497323Y-74973000D01*
X115497323Y-77455000D02*
X115497323Y-80003000D01*
X115537323Y-72461000D02*
X115537323Y-74973000D01*
X115537323Y-77455000D02*
X115537323Y-79967000D01*
X115577323Y-72498000D02*
X115577323Y-74973000D01*
X115577323Y-77455000D02*
X115577323Y-79930000D01*
X115617323Y-72535000D02*
X115617323Y-74973000D01*
X115617323Y-77455000D02*
X115617323Y-79893000D01*
X115657323Y-72574000D02*
X115657323Y-74973000D01*
X115657323Y-77455000D02*
X115657323Y-79854000D01*
X115697323Y-72613000D02*
X115697323Y-74973000D01*
X115697323Y-77455000D02*
X115697323Y-79815000D01*
X115737323Y-72653000D02*
X115737323Y-74973000D01*
X115737323Y-77455000D02*
X115737323Y-79775000D01*
X115777323Y-72694000D02*
X115777323Y-74973000D01*
X115777323Y-77455000D02*
X115777323Y-79734000D01*
X115817323Y-72736000D02*
X115817323Y-74973000D01*
X115817323Y-77455000D02*
X115817323Y-79692000D01*
X115857323Y-72778000D02*
X115857323Y-79650000D01*
X115897323Y-72822000D02*
X115897323Y-79606000D01*
X115937323Y-72867000D02*
X115937323Y-79561000D01*
X115977323Y-72913000D02*
X115977323Y-79515000D01*
X116017323Y-72960000D02*
X116017323Y-79468000D01*
X116057323Y-73008000D02*
X116057323Y-79420000D01*
X116097323Y-73058000D02*
X116097323Y-79370000D01*
X116137323Y-73108000D02*
X116137323Y-79320000D01*
X116177323Y-73160000D02*
X116177323Y-79268000D01*
X116217323Y-73214000D02*
X116217323Y-79214000D01*
X116257323Y-73269000D02*
X116257323Y-79159000D01*
X116297323Y-73325000D02*
X116297323Y-79103000D01*
X116337323Y-73384000D02*
X116337323Y-79044000D01*
X116377323Y-73444000D02*
X116377323Y-78984000D01*
X116417323Y-73505000D02*
X116417323Y-78923000D01*
X116457323Y-73569000D02*
X116457323Y-78859000D01*
X116497323Y-73635000D02*
X116497323Y-78793000D01*
X116537323Y-73704000D02*
X116537323Y-78724000D01*
X116577323Y-73775000D02*
X116577323Y-78653000D01*
X116617323Y-73849000D02*
X116617323Y-78579000D01*
X116657323Y-73925000D02*
X116657323Y-78503000D01*
X116697323Y-74005000D02*
X116697323Y-78423000D01*
X116737323Y-74089000D02*
X116737323Y-78339000D01*
X116777323Y-74177000D02*
X116777323Y-78251000D01*
X116817323Y-74270000D02*
X116817323Y-78158000D01*
X116857323Y-74368000D02*
X116857323Y-78060000D01*
X116897323Y-74472000D02*
X116897323Y-77956000D01*
X116937323Y-74584000D02*
X116937323Y-77844000D01*
X116977323Y-74704000D02*
X116977323Y-77724000D01*
X117017323Y-74836000D02*
X117017323Y-77592000D01*
X117057323Y-74984000D02*
X117057323Y-77444000D01*
X117097323Y-75152000D02*
X117097323Y-77276000D01*
X117137323Y-75352000D02*
X117137323Y-77076000D01*
X117177323Y-75615000D02*
X117177323Y-76813000D01*
X117216323Y-76214000D02*
G75*
G03*
X117216323Y-76214000I-5120000J0D01*
G01*
%TO.C,R11*%
X87098936Y-97318000D02*
X87553064Y-97318000D01*
X87098936Y-98788000D02*
X87553064Y-98788000D01*
%TO.C,F1*%
X100840000Y-108984578D02*
X100840000Y-108467422D01*
X102260000Y-108984578D02*
X102260000Y-108467422D01*
%TD*%
D14*
X106680000Y-89281000D03*
X105410000Y-89281000D03*
X104267000Y-89916000D03*
X102997000Y-89916000D03*
X139904000Y-64022000D03*
X123190000Y-69342000D03*
X122152351Y-63775649D03*
X108535000Y-89676000D03*
X96470000Y-92724000D03*
X104902000Y-83566000D03*
X122505000Y-72399000D03*
X125983996Y-104648000D03*
X95962000Y-103392000D03*
X110186000Y-84342000D03*
X103074000Y-91200000D03*
X96470000Y-85612000D03*
X120912365Y-71137671D03*
X101431607Y-92715393D03*
X108560000Y-86628000D03*
X112472000Y-100598000D03*
X118822000Y-71002000D03*
X89739000Y-100598000D03*
X133692327Y-64806000D03*
X104344000Y-91200000D03*
X132284000Y-60466000D03*
X117298000Y-72399000D03*
X108916000Y-97296000D03*
X89866000Y-98058000D03*
X126188000Y-99328000D03*
X125744000Y-95073998D03*
X98298000Y-87797998D03*
X121362000Y-82296000D03*
X121412000Y-69850000D03*
X128469347Y-90179347D03*
X123902000Y-79008000D03*
X124664000Y-81294000D03*
X123398653Y-80273347D03*
X114504000Y-86120000D03*
X121616000Y-95772000D03*
X135332000Y-70372000D03*
X135332000Y-72912000D03*
X129744006Y-67324000D03*
X127712000Y-74182000D03*
X103328000Y-103392000D03*
X115062000Y-102870000D03*
X118314000Y-100598000D03*
X118314000Y-103138000D03*
X118314000Y-105678000D03*
X118314000Y-108218000D03*
X118314000Y-110758000D03*
X118314000Y-113298000D03*
X83262000Y-101614000D03*
X83262000Y-99074000D03*
X139142000Y-58180000D03*
X130304000Y-99110000D03*
X136804000Y-99110000D03*
X130304000Y-103610000D03*
X136804000Y-103610000D03*
X94946000Y-112536000D03*
X92446000Y-112536000D03*
X97446000Y-112536000D03*
X137364000Y-113298000D03*
X134824000Y-113298000D03*
X132284000Y-113298000D03*
X129744000Y-113298000D03*
X127204000Y-113298000D03*
X82943000Y-84803000D03*
X80443000Y-84803000D03*
X87943000Y-89803000D03*
X82943000Y-94803000D03*
X80443000Y-94803000D03*
D15*
X82943000Y-89803000D03*
D16*
X87943000Y-84803000D03*
D17*
X87943000Y-87303000D03*
D16*
X87943000Y-94803000D03*
D17*
X87943000Y-92303000D03*
D14*
X82246000Y-112536000D03*
X124447000Y-60211000D03*
X119447000Y-60211000D03*
X114447000Y-60211000D03*
X109447000Y-60211000D03*
X87948000Y-75189500D03*
X93948000Y-73189500D03*
X93948000Y-60989500D03*
X81948000Y-60989500D03*
X81948000Y-73189500D03*
X106405000Y-109742000D03*
X111405000Y-109742000D03*
D18*
X101804000Y-56308000D03*
D19*
X101804000Y-63578000D03*
X101804000Y-72658000D03*
D18*
X101804000Y-79928000D03*
D14*
X109596323Y-76214000D03*
X114596323Y-76214000D03*
M02*
