%TF.GenerationSoftware,KiCad,Pcbnew,7.0.8-7.0.8~ubuntu20.04.1*%
%TF.CreationDate,2023-11-01T16:13:29+05:30*%
%TF.ProjectId,WLED_V0.1_panelized,574c4544-5f56-4302-9e31-5f70616e656c,rev?*%
%TF.SameCoordinates,Original*%
%TF.FileFunction,Legend,Bot*%
%TF.FilePolarity,Positive*%
%FSLAX46Y46*%
G04 Gerber Fmt 4.6, Leading zero omitted, Abs format (unit mm)*
G04 Created by KiCad (PCBNEW 7.0.8-7.0.8~ubuntu20.04.1) date 2023-11-01 16:13:29*
%MOMM*%
%LPD*%
G01*
G04 APERTURE LIST*
%ADD10C,0.350000*%
%ADD11O,0.400000X1.400000*%
%ADD12O,1.400000X0.400000*%
%ADD13O,1.500000X0.800000*%
%ADD14O,2.710000X1.020000*%
%ADD15O,1.870000X1.020000*%
G04 APERTURE END LIST*
D10*
X106680000Y-89281000D03*
X105410000Y-89281000D03*
X104267000Y-89916000D03*
X102997000Y-89916000D03*
X139904000Y-64022000D03*
X123190000Y-69342000D03*
X122152351Y-63775649D03*
X108535000Y-89676000D03*
X96470000Y-92724000D03*
X104902000Y-83566000D03*
X122505000Y-72399000D03*
X125983996Y-104648000D03*
X95962000Y-103392000D03*
X110186000Y-84342000D03*
X103074000Y-91200000D03*
X96470000Y-85612000D03*
X120912365Y-71137671D03*
X101431607Y-92715393D03*
X108560000Y-86628000D03*
X112472000Y-100598000D03*
X118822000Y-71002000D03*
X89739000Y-100598000D03*
X133692327Y-64806000D03*
X104344000Y-91200000D03*
X132284000Y-60466000D03*
X117298000Y-72399000D03*
X108916000Y-97296000D03*
X89866000Y-98058000D03*
X126188000Y-99328000D03*
X125744000Y-95073998D03*
X98298000Y-87797998D03*
X121362000Y-82296000D03*
X121412000Y-69850000D03*
X128469347Y-90179347D03*
X123902000Y-79008000D03*
X124664000Y-81294000D03*
X123398653Y-80273347D03*
X114504000Y-86120000D03*
X121616000Y-95772000D03*
X135332000Y-70372000D03*
X135332000Y-72912000D03*
X129744006Y-67324000D03*
X127712000Y-74182000D03*
X103328000Y-103392000D03*
X115062000Y-102870000D03*
X118314000Y-100598000D03*
X118314000Y-103138000D03*
X118314000Y-105678000D03*
X118314000Y-108218000D03*
X118314000Y-110758000D03*
X118314000Y-113298000D03*
X83262000Y-101614000D03*
X83262000Y-99074000D03*
X139142000Y-58180000D03*
X130304000Y-99110000D03*
X136804000Y-99110000D03*
X130304000Y-103610000D03*
X136804000Y-103610000D03*
X94946000Y-112536000D03*
X92446000Y-112536000D03*
X97446000Y-112536000D03*
X137364000Y-113298000D03*
X134824000Y-113298000D03*
X132284000Y-113298000D03*
X129744000Y-113298000D03*
X127204000Y-113298000D03*
X82943000Y-84803000D03*
X80443000Y-84803000D03*
X87943000Y-89803000D03*
X82943000Y-94803000D03*
X80443000Y-94803000D03*
D11*
X82943000Y-89803000D03*
D12*
X87943000Y-84803000D03*
D13*
X87943000Y-87303000D03*
D12*
X87943000Y-94803000D03*
D13*
X87943000Y-92303000D03*
D10*
X82246000Y-112536000D03*
X124447000Y-60211000D03*
X119447000Y-60211000D03*
X114447000Y-60211000D03*
X109447000Y-60211000D03*
X87948000Y-75189500D03*
X93948000Y-73189500D03*
X93948000Y-60989500D03*
X81948000Y-60989500D03*
X81948000Y-73189500D03*
X106405000Y-109742000D03*
X111405000Y-109742000D03*
D14*
X101804000Y-56308000D03*
D15*
X101804000Y-63578000D03*
X101804000Y-72658000D03*
D14*
X101804000Y-79928000D03*
D10*
X109596323Y-76214000D03*
X114596323Y-76214000D03*
M02*
